<svg width="87" height="78" fill="none" xmlns="http://www.w3.org/2000/svg"><path d="M33.422 29.077a3.95 3.95 0 00-2.844-1.28c-2.171-.028-3.967 1.703-4.004 3.872-.012.7.546 1.276 1.245 1.287h.022c.689 0 1.254-.552 1.265-1.244a1.406 1.406 0 011.432-1.383c.39.006.75.168 1.014.456a1.266 1.266 0 101.87-1.708zm6.737 4.127a3.628 3.628 0 00-2.073-1.975 3.625 3.625 0 00-4.647 2.136 1.266 1.266 0 002.374.88 1.09 1.09 0 011.396-.64c.281.104.502.313.62.59a1.266 1.266 0 002.33-.99zM48.32 21.99a1.266 1.266 0 00-1.79.002l-1.194 1.195a1.266 1.266 0 101.792 1.79l1.194-1.197a1.266 1.266 0 00-.002-1.79zm-7.878 16.346h-1.688a1.266 1.266 0 100 2.533h1.688a1.266 1.266 0 100-2.533zm12.94 0h-1.688a1.266 1.266 0 100 2.533h1.688a1.266 1.266 0 000-2.533z" fill="#D27292"/><path d="M86.4 61.167l-.33-1.78a2.4 2.4 0 00-2.797-1.922l-6.713 1.233 3.04-2.032a2.397 2.397 0 00.756-3.17l-.92-1.629a2.412 2.412 0 00-1.473-1.14 2.412 2.412 0 00-.932-.059 32.03 32.03 0 00.513-5.718 2.12 2.12 0 00-1.258-1.934 9.71 9.71 0 00.077-7.346 1.525 1.525 0 00-.86-.862 9.633 9.633 0 00-4.048-.676c-.175-3.534-3.1-6.356-6.671-6.356-.47 0-.929.05-1.372.143.308-1.84.127-3.765-.59-5.572a1.562 1.562 0 00-.875-.883 10.375 10.375 0 00-3.856-.741c-1.995 0-3.903.56-5.55 1.604a12.524 12.524 0 00-2.982-4.77 2.136 2.136 0 00-1.521-.632c-.575 0-1.115.224-1.522.632l-6.13 6.144a6.364 6.364 0 00-5.352-1.52 6.428 6.428 0 00-3.468 1.822 6.432 6.432 0 00-3.879-.544c-.29.05-.57.121-.843.208v-4.735a5.978 5.978 0 00-5.862-5.975v-2.685a2.112 2.112 0 001.75-2.077V2.11c0-1.163-.947-2.11-2.11-2.11H10.325c-1.164 0-2.11.947-2.11 2.11v6.085c0 1.04.757 1.905 1.75 2.077v2.685a5.977 5.977 0 00-5.863 5.974v36.956C1.574 58.17 0 61.357 0 64.88c0 6.93 6.082 12.567 13.558 12.567l50.68-.014a5.802 5.802 0 004.463-2.086 5.76 5.76 0 001.272-4.616l10.123 1.819a2.414 2.414 0 001.824-.41 2.41 2.41 0 00.978-1.597l.274-1.84a2.399 2.399 0 00-1.838-2.69l-3.568-.819 6.706-1.231a2.387 2.387 0 001.545-1 2.379 2.379 0 00.383-1.795zM71.925 36.652a7.1 7.1 0 012.232.359 7.172 7.172 0 01-.606 5.823h-3.41l1.088-1.091a1.266 1.266 0 10-1.793-1.789l-.576.577a5.872 5.872 0 00-1.36-2.337 7.08 7.08 0 014.425-1.542zm-7.141-6.344a4.158 4.158 0 014.147 4.16l-.003.127a9.62 9.62 0 00-3.615 2.144 5.81 5.81 0 00-.51-.17 5.874 5.874 0 00-3.5-4.355 4.14 4.14 0 013.48-1.905zm-6.693-7.053c.86 0 1.705.14 2.52.414a7.933 7.933 0 01-.314 5.848 6.725 6.725 0 00-1.622 2.25 5.99 5.99 0 00-.676.076 5.912 5.912 0 00-2.691 1.228 6.705 6.705 0 00-.958-1.33l2.904-2.91a1.266 1.266 0 10-1.793-1.789l-3.174 3.181a6.62 6.62 0 00-1.943-.577 7.912 7.912 0 012.164-4.071 7.834 7.834 0 015.583-2.32zm-9.703 19.579H47.29a1.266 1.266 0 00-2.355 0h-1.292a1.266 1.266 0 00-1.974-1.556l-1.194 1.196c-.107.107-.19.23-.25.36h-2.577a10.015 10.015 0 01-1.624-5.11h20.088a10.016 10.016 0 01-1.624 5.11h-2.682a1.262 1.262 0 00-.25-.36l-1.193-1.196a1.266 1.266 0 00-1.975 1.556zm-2.945-7.643a4.156 4.156 0 014.003-3.074 4.156 4.156 0 014.003 3.074h-8.006zm2.59-15.57c1.204 1.302 2 2.848 2.39 4.472a10.43 10.43 0 00-1.606 2.305 1.257 1.257 0 00-.66-.187H46.47a1.266 1.266 0 100 2.533h1.48c-.083.35-.148.703-.195 1.06-.503.132-.983.32-1.432.56a6.392 6.392 0 00-3.898-2.978c0-.004 0-.007-.002-.01a6.41 6.41 0 00-.508-1.623l6.117-6.131zm-22.89 11.426a3.865 3.865 0 013.646-5.152c.834 0 1.631.267 2.305.77a1.266 1.266 0 001.813-.315 3.834 3.834 0 012.561-1.675 3.84 3.84 0 014.516 3.79 1.266 1.266 0 001.156 1.259 3.853 3.853 0 013.179 2.27 6.676 6.676 0 00-1.463 3.197h-7.221c-.898 0-1.668.554-1.99 1.339a9.592 9.592 0 00-5.423-1.665c-1.23 0-2.433.231-3.58.688a1.529 1.529 0 00-.858.86 9.705 9.705 0 00-.59 2.25 3.833 3.833 0 01-.9-1.88 3.862 3.862 0 012.187-4.16c.596-.274.883-.958.662-1.576zm3.775 11.44l.345.347h-3.041a7.175 7.175 0 01-.232-5.078 7.1 7.1 0 012.232-.359 7.093 7.093 0 015.558 2.663c.214.972.544 1.9.969 2.773H32.84L30.71 40.7a1.266 1.266 0 10-1.793 1.788zm-5.393.347h-4.514a4.165 4.165 0 011.963-2.889 6.366 6.366 0 002.31 1.914 9.7 9.7 0 00.241.975zM10.747 2.532H20.2v5.24h-9.453v-5.24zm7.702 7.773v2.65h-5.952v-2.65h5.952zM6.634 24.067h8.223a1.266 1.266 0 100-2.533H6.634v-2.603a3.443 3.443 0 013.434-3.444h10.81a3.443 3.443 0 013.434 3.444v2.603h-2.364a1.266 1.266 0 100 2.533h2.364v1.123a6.382 6.382 0 00-1.832 5.654l.002.013a6.399 6.399 0 00-2.591 6.788c-.633.35-1.201.8-1.688 1.327H6.634V24.067zm0 17.437h10.099c-.135.427-.23.871-.276 1.33h-.213a2.117 2.117 0 00-2.114 2.115c0 2.01.187 3.985.549 5.916a13.61 13.61 0 00-1.117-.045c-1.53 0-2.99.243-4.107.684-1.71.675-2.182 1.633-2.285 2.297-.182.09-.36.185-.536.282V41.504zm16.034 15.555c.456.365.735.675.896.899h-.047c-.716 0-2.004-.289-3.468-1.1a9.127 9.127 0 01-1.453-.986c-.472-.4-1.165-.4-1.637 0a9.075 9.075 0 01-1.452.986c-1.464.811-2.752 1.1-3.469 1.1h-.047c.161-.224.44-.534.896-.9a1.266 1.266 0 00-.644-2.245c-1.235-.145-2.017-.46-2.383-.689.459-.285 1.618-.772 3.703-.772 1.727 0 2.99.363 3.595.703.385.216.854.216 1.24 0 .605-.34 1.868-.703 3.595-.703 2.085 0 3.244.487 3.702.773-.365.229-1.147.543-2.383.688a1.266 1.266 0 00-.644 2.246zm-2.533 15.412l.044.234c.15.814.468 1.56.912 2.209h-7.533c-6.08 0-11.026-4.502-11.026-10.035 0-3.782 2.311-7.08 5.714-8.79.391.291.878.543 1.456.746-.229.392-.389.813-.426 1.252-.05.583.128 1.138.503 1.561.495.56 1.255.843 2.26.843 1.337 0 3.092-.53 4.695-1.417.368-.204.717-.42 1.044-.645.326.225.675.44 1.044.645 1.602.887 3.358 1.416 4.695 1.417 1.004 0 1.764-.284 2.26-.843.374-.423.553-.977.503-1.561-.038-.44-.198-.86-.427-1.252.578-.203 1.066-.455 1.456-.746 2.7 1.356 4.71 3.712 5.427 6.514l-8.955 3.403a5.79 5.79 0 00-3.646 6.465zm46.623 1.251a3.276 3.276 0 01-2.52 1.177h-1.33l-.83-4.483a1.266 1.266 0 10-2.49.462l.745 4.022-4.357.002-.561-3.031a1.266 1.266 0 00-2.49.46l.476 2.572-10.134.004-.763-4.117a1.266 1.266 0 10-2.49.461l.677 3.657-14.797.006a3.274 3.274 0 01-3.226-2.67l-.043-.235a3.258 3.258 0 012.054-3.636l4.977-1.89.37 2a1.266 1.266 0 102.49-.461l-.454-2.454 7.387-2.806a1.266 1.266 0 00-.9-2.367L35.113 61.7c-.964-3.414-3.441-6.266-6.727-7.9-.103-.663-.575-1.621-2.285-2.296-1.117-.442-2.576-.684-4.107-.684-1.054 0-2.06.116-2.949.328v-.765a1.266 1.266 0 00-2.049-.995 29.59 29.59 0 01-.33-4.022h41.243a1.266 1.266 0 100-2.533h-.518a12.535 12.535 0 001.262-5.49 2.154 2.154 0 00-1.944-2.142 3.336 3.336 0 012.31-.914 3.346 3.346 0 013.351 3.353c0 .655.502 1.202 1.156 1.26a3.357 3.357 0 013.01 2.767c.07.398.06.79-.009 1.166h-1.358a1.266 1.266 0 100 2.533h9.841a29.186 29.186 0 01-.888 6.793l-6.862 4.05a5.778 5.778 0 00-2.74-3.451 5.813 5.813 0 00-4.914-.362l-14.133 5.369a1.266 1.266 0 00.899 2.367l1.862-.707.578 3.121a1.267 1.267 0 002.49-.46l-.662-3.575 9.865-3.747a3.287 3.287 0 012.778.204 3.254 3.254 0 011.617 2.25l2.562 13.83a3.239 3.239 0 01-.703 2.674zm4.518-9.91a1.266 1.266 0 00-.055 2.479l9.428 2.162-.236 1.58-10.929-1.964-1.708-9.224 9.52-5.619.792 1.404-8.029 5.367a1.266 1.266 0 00.933 2.298l12.612-2.316.281 1.516-12.61 2.316z" fill="#D27292"/></svg>