<svg width="79" height="79" fill="none" xmlns="http://www.w3.org/2000/svg"><path d="M38.105 57.8a1.313 1.313 0 100 2.626c11.598-.014 20.997-9.412 21.01-21.01a1.313 1.313 0 10-2.626 0c-.01 10.148-8.235 18.373-18.384 18.384zm5.253-21.011a6.566 6.566 0 10-6.566-6.566 6.574 6.574 0 006.566 6.566zm0-10.506a3.94 3.94 0 11-.002 7.88 3.94 3.94 0 01.002-7.88zM26.286 28.91a5.253 5.253 0 100 10.506 5.253 5.253 0 000-10.506zm0 7.88a2.626 2.626 0 110-5.253 2.626 2.626 0 010 5.252zm17.072 9.191a5.253 5.253 0 10-10.506 0 5.253 5.253 0 0010.506 0zm-7.88 0a2.627 2.627 0 115.254.001 2.627 2.627 0 01-5.254 0zM23.16 44.773c-.159.066-.305.16-.433.276-.24.252-.375.584-.38.932.002.172.037.341.104.5.064.16.157.307.276.432.128.116.274.21.434.276.157.068.327.103.499.105.347-.005.68-.14.932-.38.118-.126.212-.273.275-.434a1.28 1.28 0 00.105-.499 1.38 1.38 0 00-.38-.932 1.34 1.34 0 00-1.431-.276zm6.567 7.879c-.16.067-.306.16-.434.276a1.38 1.38 0 00-.38.933c.001.17.038.34.105.498.063.16.157.308.275.434.128.115.275.209.434.275.158.067.327.104.498.105a1.38 1.38 0 00.933-.38c.119-.126.213-.273.276-.434.067-.158.102-.327.105-.498a1.38 1.38 0 00-.381-.933 1.34 1.34 0 00-1.431-.276z" fill="#D27292"/><path d="M73.56 34.163a5.252 5.252 0 00-5.066 3.939h-4.192a26.119 26.119 0 00-6.75-16.277l2.932-2.932a6.566 6.566 0 10-1.857-1.857L55.7 19.968a26.118 26.118 0 00-16.283-6.75v-2.88a5.253 5.253 0 10-2.627 0v2.88a26.122 26.122 0 00-16.276 6.75l-2.933-2.932a6.557 6.557 0 10-1.857 1.857l2.933 2.932a26.122 26.122 0 00-6.75 16.277H9a4.596 4.596 0 100 2.626h2.907a26.117 26.117 0 006.75 16.284l-2.933 2.933a6.566 6.566 0 101.857 1.856l2.933-2.933a26.115 26.115 0 0016.276 6.744v2.88a5.253 5.253 0 102.627 0v-2.88a26.117 26.117 0 0016.283-6.75l2.932 2.933a6.566 6.566 0 101.857-1.857l-2.939-2.926a26.117 26.117 0 006.75-16.284h4.193a5.244 5.244 0 105.067-6.565zM61.32 10.63a3.94 3.94 0 110 5.571 3.928 3.928 0 010-5.57zM35.477 5.272a2.627 2.627 0 115.254.001 2.627 2.627 0 01-5.254 0zM9.32 16.201a3.94 3.94 0 115.572-5.573A3.94 3.94 0 019.32 16.2zM4.618 41.385a1.97 1.97 0 11.001-3.94 1.97 1.97 0 010 3.94zM14.89 68.201a3.94 3.94 0 11-5.572-5.574 3.94 3.94 0 015.572 5.574zm25.841 5.357a2.626 2.626 0 11-5.252 0 2.626 2.626 0 015.252 0zm23.375-12.081a3.94 3.94 0 11-.003 7.879 3.94 3.94 0 01.003-7.88zm-26.001 1.575c-13.055 0-23.638-10.583-23.638-23.637S25.05 15.778 38.105 15.778c13.054 0 23.637 10.583 23.637 23.637-.015 13.049-10.589 23.622-23.637 23.637zm35.456-21.01a2.626 2.626 0 110-5.253 2.626 2.626 0 010 5.253z" fill="#D27292"/></svg>