<svg width="69" height="70" fill="none" xmlns="http://www.w3.org/2000/svg"><path d="M65.834 34.905a13.573 13.573 0 00-9.531-4.696 8.123 8.123 0 004.03-7.004 1.16 1.16 0 00-1.161-1.16h-6.961a5.809 5.809 0 00-5.802 5.8v4.62c-.03-.019-.063-.027-.092-.05a11.166 11.166 0 00-6.7-2.249 13.587 13.587 0 00-10.312 4.739 12.958 12.958 0 00-3.025 10.394c.252 1.655.76 3.26 1.509 4.757l7.967 15.935a6.457 6.457 0 003.249 3.126 6.387 6.387 0 007.57-2.039l.995-1.33.864 1.151a6.65 6.65 0 003.655 2.524 6.481 6.481 0 001.565.191 6.32 6.32 0 005.67-3.51l8.025-16.051a1.16 1.16 0 10-2.075-1.038l-8.026 16.052a4.03 4.03 0 01-4.601 2.104 4.338 4.338 0 01-2.358-1.665l-1.791-2.389a1.16 1.16 0 00-1.857 0l-1.923 2.565a4.069 4.069 0 01-4.826 1.288 4.143 4.143 0 01-2.06-2.021l-7.966-15.934a13.664 13.664 0 01-1.292-4.06 10.5 10.5 0 012.49-8.533 11.271 11.271 0 018.553-3.935 8.86 8.86 0 015.337 1.807 4.365 4.365 0 005.273-.028 8.826 8.826 0 015.295-1.78 11.27 11.27 0 018.553 3.931 10.499 10.499 0 012.49 8.533 1.16 1.16 0 002.294.348 12.959 12.959 0 00-3.025-10.393zm-17.104-7.06a3.481 3.481 0 013.48-3.48h5.686a5.81 5.81 0 01-5.685 4.64H48.73v-1.16zm.056 4.6c-.018.013-.039.016-.056.029v-1.148h1.883a11.31 11.31 0 00-1.828 1.119z" fill="#D27292"/><path d="M62.949 45.573a1.16 1.16 0 001.323-.972 8.215 8.215 0 00-1.958-6.672 8.95 8.95 0 00-6.792-3.122 1.16 1.16 0 000 2.32 6.633 6.633 0 015.033 2.315 5.923 5.923 0 011.422 4.81 1.16 1.16 0 00.972 1.321zm-22.341 17.08a1.16 1.16 0 100-2.32 1.16 1.16 0 000 2.32zm-2.32-3.481a1.16 1.16 0 100-2.32 1.16 1.16 0 000 2.32z" fill="#D27292"/><path d="M33.647 67.294H5.801a3.481 3.481 0 01-3.48-3.48V5.8a3.48 3.48 0 013.48-3.48h44.09a3.48 3.48 0 013.48 3.48v12.763a1.16 1.16 0 002.32 0V5.8A5.808 5.808 0 0049.892 0H5.8A5.808 5.808 0 000 5.801v58.012a5.808 5.808 0 005.801 5.802h27.846a1.16 1.16 0 100-2.32z" fill="#D27292"/><path d="M48.73 20.164a1.16 1.16 0 001.16-1.16V6.962a1.16 1.16 0 00-1.16-1.16H6.961a1.16 1.16 0 00-1.16 1.16v20.884a1.16 1.16 0 001.16 1.16H42.93a1.16 1.16 0 100-2.32H8.122V8.122H47.57v10.882a1.16 1.16 0 001.16 1.16zM15.083 32.487a1.16 1.16 0 00-1.16-1.16H6.96a1.16 1.16 0 00-1.16 1.16v6.961a1.16 1.16 0 001.16 1.16h6.962a1.16 1.16 0 001.16-1.16v-6.961zm-2.32 5.801H8.121v-4.64h4.64v4.64zm15.083-4.641v-1.16a1.16 1.16 0 00-1.16-1.16h-6.962a1.16 1.16 0 00-1.16 1.16v6.961a1.16 1.16 0 001.16 1.16h3.48a1.16 1.16 0 100-2.32h-2.32v-4.64h4.641a1.16 1.16 0 102.32 0zM15.083 44.089a1.16 1.16 0 00-1.16-1.16H6.96a1.16 1.16 0 00-1.16 1.16v6.961a1.16 1.16 0 001.16 1.16h6.962a1.16 1.16 0 001.16-1.16v-6.96zm-2.32 5.801H8.121v-4.64h4.64v4.64zm10.442-4.64a1.16 1.16 0 100-2.321h-3.481a1.16 1.16 0 00-1.16 1.16v6.961a1.16 1.16 0 001.16 1.16h4.64a1.16 1.16 0 000-2.32h-3.48v-4.64h2.32zm-9.282 10.441H6.96a1.16 1.16 0 00-1.16 1.16v6.962a1.16 1.16 0 001.16 1.16h6.962a1.16 1.16 0 001.16-1.16v-6.961a1.16 1.16 0 00-1.16-1.16zm-1.16 6.962H8.121v-4.641h4.64v4.64zm5.801 1.16a1.16 1.16 0 001.16 1.16h6.961a1.16 1.16 0 001.16-1.16v-6.961a1.16 1.16 0 00-1.16-1.16h-6.961a1.16 1.16 0 00-1.16 1.16v6.961zm2.32-5.801h4.641v4.64h-4.64v-4.64z" fill="#D27292"/><path d="M19.384 14.263a1.16 1.16 0 00-1.64 0l-2.661 2.66v-4.16a1.16 1.16 0 10-2.32 0v9.282a1.16 1.16 0 102.32 0v-1.84l2.66 2.66a1.16 1.16 0 001.64-1.64l-2.66-2.661 2.66-2.66a1.16 1.16 0 000-1.641zm7.301 1.98a1.16 1.16 0 102.32 0 2.32 2.32 0 00-2.32-2.32h-2.32a2.32 2.32 0 00-2.32 2.32v4.641a2.32 2.32 0 002.32 2.32h2.32a2.32 2.32 0 002.32-2.32 1.16 1.16 0 10-2.32 0h-2.32v-4.64h2.32zm5.802 1.161a2.32 2.32 0 00-2.32 2.32v1.16a2.32 2.32 0 002.32 2.32h1.16a3.458 3.458 0 002.32-.904c.635.58 1.462.902 2.321.905a1.16 1.16 0 100-2.32 1.16 1.16 0 01-1.16-1.16v-3.482a2.32 2.32 0 00-2.32-2.32h-3.481a1.16 1.16 0 100 2.32h3.48v1.16h-2.32zm1.16 3.48h-1.16v-1.16h2.32a1.16 1.16 0 01-1.16 1.16zm8.122-8.121v9.282a1.16 1.16 0 102.32 0v-9.282a1.16 1.16 0 00-2.32 0z" fill="#D27292"/></svg>