<svg width="83" height="77" fill="none" xmlns="http://www.w3.org/2000/svg"><path d="M47.724 14.298a7.668 7.668 0 001.445-4.486v-2.1C49.169 3.46 45.709 0 41.456 0c-4.252 0-7.712 3.46-7.712 7.712v2.1a7.67 7.67 0 001.445 4.486c-5.03.26-9.042 4.434-9.042 9.527v14.909a4.91 4.91 0 006.571 4.613V71.27a5.185 5.185 0 005.18 5.179c1.377 0 2.63-.542 3.559-1.422a5.159 5.159 0 003.559 1.422 5.185 5.185 0 005.179-5.18V43.348c.52.188 1.081.292 1.666.292a4.91 4.91 0 004.905-4.905v-14.91c0-5.093-4.012-9.267-9.042-9.527zm-10.74-6.586a4.478 4.478 0 014.473-4.473 4.478 4.478 0 014.472 4.473v2.1a4.478 4.478 0 01-4.472 4.473 4.478 4.478 0 01-4.473-4.473v-2.1zm9.971 63.558c0 1.07-.87 1.94-1.94 1.94a1.942 1.942 0 01-1.939-1.94V45.59a1.62 1.62 0 00-3.24 0v25.68c0 1.07-.87 1.94-1.939 1.94-1.07 0-1.94-.87-1.94-1.94V38.059h10.998v33.21zm6.572-32.537c0 .919-.748 1.666-1.666 1.666a1.668 1.668 0 01-1.666-1.666V26.961a1.62 1.62 0 00-3.24 0v7.858H35.958v-7.858a1.62 1.62 0 00-3.24 0v11.773c0 .918-.747 1.665-1.666 1.665a1.668 1.668 0 01-1.665-1.665V23.825a6.308 6.308 0 016.3-6.3h11.538a6.308 6.308 0 016.301 6.3v14.908zM19.811 61.505c-6.136-5.144-9.901-12.37-10.602-20.347-.653-7.435 1.43-14.694 5.882-20.614l1.514 1.27a1.62 1.62 0 002.657-1.142l.706-11.353a1.62 1.62 0 00-1.998-1.675L6.914 10.32a1.62 1.62 0 00-.66 2.816l1.863 1.562C2.11 22.483-.713 32.099.153 41.954c.914 10.395 5.82 19.813 13.817 26.518a1.62 1.62 0 002.282-.2l3.76-4.485a1.62 1.62 0 00-.201-2.282zm-4.978 3.416C8.221 58.86 4.171 50.664 3.38 41.671c-.837-9.533 2.087-18.822 8.235-26.155a1.62 1.62 0 00-.2-2.282l-.621-.52 5.805-1.405-.371 5.96-.33-.275a1.62 1.62 0 00-2.282.2c-5.7 6.799-8.41 15.41-7.634 24.248.73 8.298 4.452 15.864 10.531 21.476l-1.68 2.003zm61.826-1.607l-1.863-1.562c6.009-7.786 8.83-17.402 7.964-27.257-.913-10.395-5.82-19.813-13.817-26.518a1.62 1.62 0 00-2.282.2l-3.76 4.485a1.62 1.62 0 00.201 2.281c4.301 3.606 7.488 8.298 9.217 13.569a1.62 1.62 0 003.078-1.01 33.036 33.036 0 00-8.997-13.97l1.68-2.004c6.613 6.061 10.663 14.257 11.453 23.25.838 9.533-2.087 18.822-8.235 26.155a1.62 1.62 0 00.2 2.282l.621.52-5.804 1.405.37-5.96.33.276a1.621 1.621 0 002.282-.2c3.994-4.765 6.564-10.503 7.432-16.592a1.62 1.62 0 00-3.207-.458 29.799 29.799 0 01-5.7 13.699l-1.514-1.27a1.62 1.62 0 00-2.657 1.142l-.706 11.353a1.62 1.62 0 001.998 1.675l11.056-2.675a1.62 1.62 0 00.66-2.816z" fill="#D27292"/><path d="M75.318 36.769a1.62 1.62 0 100-3.24 1.62 1.62 0 000 3.24z" fill="#D27292"/></svg>