<svg width="92" height="72" fill="none" xmlns="http://www.w3.org/2000/svg"><path d="M64.245 54.603c-.586-3.318-3.49-5.845-6.972-5.845h-.047a7.096 7.096 0 00-5.69-2.868h-.046a7.096 7.096 0 00-5.69-2.868 7.096 7.096 0 00-5.69 2.868h-.046a7.096 7.096 0 00-5.69 2.868h-.047c-3.482 0-6.386 2.527-6.972 5.845a7.099 7.099 0 00-5.715 5.628h-7.767l7.638 7.637v3.656H70.09v-3.656l7.637-7.637H69.96a7.099 7.099 0 00-5.715-5.628zm3.156 12.152v2.08H24.199v-2.08l-3.835-3.835h12.53v-2.69H24.41a4.4 4.4 0 014.18-3.047h1.345V55.84a4.397 4.397 0 014.96-4.354l.898.116.445-.787a4.403 4.403 0 014.394-2.197l.897.116.445-.787A4.403 4.403 0 0145.8 45.71c1.58 0 3.046.856 3.825 2.235l.445.787.897-.116a4.403 4.403 0 014.394 2.197l.445.787.898-.116a4.397 4.397 0 014.96 4.354v1.344h1.345a4.399 4.399 0 014.18 3.048H35.762v2.689h35.474L67.4 66.755zM18.553 40.154h2.868v2.689h-2.868v-2.69zm5.737 0h2.867v2.689H24.29v-2.69zm40.153 0h2.868v2.689h-2.868v-2.69zm5.737 0h2.868v2.689h-2.869v-2.69zM17.03 27.158c0-5.486-3.82-9.95-8.515-9.95S0 21.673 0 27.159c0 3.695 1.735 6.925 4.302 8.64v22.909a4.217 4.217 0 004.213 4.213 4.217 4.217 0 004.212-4.213v-22.91c2.567-1.715 4.302-4.945 4.302-8.64zm-14.341 0c0-4.004 2.613-7.26 5.826-7.26 3.212 0 5.825 3.256 5.825 7.26 0 4.003-2.613 7.26-5.825 7.26-3.213 0-5.826-3.257-5.826-7.26zm7.35 31.549c0 .84-.684 1.524-1.524 1.524s-1.524-.684-1.524-1.524V47.234a1.525 1.525 0 013.047 0v11.473zm0-15.399a4.19 4.19 0 00-3.048 0v-6.364a7.334 7.334 0 001.524.162 7.32 7.32 0 001.523-.162v6.364zm78.873-23.321v8.605a5.833 5.833 0 01-5.826 5.826 5.833 5.833 0 01-5.826-5.826v-8.605h-2.69v8.605a8.518 8.518 0 004.302 7.395v22.72a4.217 4.217 0 004.213 4.213 4.217 4.217 0 004.212-4.213v-22.72a8.518 8.518 0 004.303-7.395v-8.605h-2.69zm-4.303 38.72c0 .84-.683 1.524-1.523 1.524-.84 0-1.524-.684-1.524-1.524V47.235a1.525 1.525 0 013.047 0v11.472zm0-15.399a4.19 4.19 0 00-3.047 0v-6.34a8.492 8.492 0 003.047-.001v6.341z" fill="#D27292"/><path d="M79.352 19.987h2.689v8.605h-2.69v-8.605zm4.78 0h2.688v8.605h-2.688v-8.605zM38.63 54.495h2.868v2.689H38.63v-2.69zm5.736 0h2.868v2.689h-2.868v-2.69zm5.736 0h2.869v2.689h-2.868v-2.69zm-21.421-31.64c0 9.44 7.68 17.12 17.12 17.12 3.956 0 7.816-1.382 10.867-3.892l-1.708-2.076a14.454 14.454 0 01-9.16 3.279c-7.957 0-14.43-6.474-14.43-14.43 0-7.957 6.473-14.43 14.43-14.43s14.43 6.473 14.43 14.43c0 3.335-1.164 6.588-3.279 9.16l2.077 1.707a17.148 17.148 0 003.892-10.867c0-9.44-7.68-17.12-17.12-17.12-9.44 0-17.119 7.68-17.119 17.12z" fill="#D27292"/><path d="M50.103 12.35L45.8 16.652l-4.302-4.302-6.203 6.203 4.302 4.302-4.302 4.302 6.203 6.204 4.303-4.302 4.302 4.302 6.203-6.204-4.302-4.302 4.302-4.302-6.203-6.203zm2.4 14.807l-2.4 2.401-4.303-4.302-4.302 4.302-2.4-2.4 4.302-4.303-4.303-4.302 2.401-2.401 4.303 4.302 4.302-4.302 2.4 2.401-4.301 4.302 4.302 4.302zm-26.692-6.992l-2.665-.355a23.168 23.168 0 00-.201 3.045h2.689c0-.9.06-1.804.177-2.69zM45.8 2.689V0C35.55 0 26.49 6.893 23.767 16.761l2.591.716C28.762 8.77 36.757 2.689 45.8 2.689z" fill="#D27292"/></svg>