<svg width="72" height="79" fill="none" xmlns="http://www.w3.org/2000/svg"><path d="M48.736 31.73c2.188 3.787 6.14 6.05 10.465 6.05a12.06 12.06 0 002.529-.263 1.15 1.15 0 00-.478-2.252 9.795 9.795 0 01-1.327.188 9.744 9.744 0 01-9.197-4.875 9.721 9.721 0 01-.98-7.43 9.73 9.73 0 014.568-5.947c4.682-2.701 10.69-1.093 13.393 3.585a9.72 9.72 0 01.979 7.43 9.73 9.73 0 01-4.567 5.947 1.15 1.15 0 001.15 1.993 12.017 12.017 0 005.64-7.343c.836-3.121.407-6.38-1.21-9.179-3.337-5.775-10.755-7.76-16.534-4.427a12.017 12.017 0 00-5.64 7.344 12.01 12.01 0 001.21 9.179zM32.047 17.656a1.15 1.15 0 001.396-.836l.435-1.741h3.572l.436 1.74a1.15 1.15 0 102.232-.558l-1.955-7.814a2.572 2.572 0 00-2.499-1.949 2.571 2.571 0 00-2.498 1.95L31.21 16.26a1.15 1.15 0 00.837 1.395zm3.35-8.65a.274.274 0 01.534 0l.943 3.772h-2.42l.944-3.772z" fill="#D27292"/><path d="M35.664 24.19c6.674 0 12.104-5.427 12.104-12.095C47.768 5.425 42.338 0 35.664 0 28.99 0 23.56 5.426 23.56 12.095c0 6.668 5.43 12.094 12.104 12.094zm0-21.89c5.406 0 9.804 4.394 9.804 9.795 0 5.4-4.398 9.793-9.804 9.793-5.406 0-9.803-4.393-9.803-9.793 0-5.4 4.398-9.794 9.803-9.794zm22.341 17.424H54.47a1.15 1.15 0 00-1.15 1.15v8.893c0 .635.514 1.15 1.15 1.15h4.257a3.566 3.566 0 002.06-6.48 3.183 3.183 0 00-2.783-4.713zm-2.384 2.301h2.384a.88.88 0 010 1.756H55.62v-1.756zm3.107 6.591h-3.107v-2.534h3.107a1.268 1.268 0 010 2.534zM27.352 41.105a1.15 1.15 0 00-.091-1.625L25 37.462a1.152 1.152 0 00-1.625.093l-1.928 2.162a1.15 1.15 0 001.717 1.532l.121-.137a12.413 12.413 0 002.9 6.312 12.433 12.433 0 008.55 4.307 12.561 12.561 0 0011.877-6.411 1.15 1.15 0 00-2.011-1.116 10.252 10.252 0 01-9.695 5.233 10.147 10.147 0 01-6.979-3.516 10.136 10.136 0 01-2.313-4.825l.113.1a1.15 1.15 0 001.624-.091zm37.765-10.616v-1.111a1.15 1.15 0 10-2.3 0v1.111a1.15 1.15 0 102.3 0zm-18.15 11.454c.301 0 .59-.118.806-.329l2.07-2.028a1.15 1.15 0 00-1.61-1.643l-.112.109a12.404 12.404 0 00-2.977-6.948 12.433 12.433 0 00-8.55-4.307c-5.138-.381-10.064 2.491-12.256 7.15a1.15 1.15 0 102.082.98c1.788-3.802 5.81-6.148 10.003-5.835 2.72.202 5.198 1.45 6.978 3.515a10.125 10.125 0 012.393 5.34l-.123-.125a1.15 1.15 0 10-1.644 1.61l2.118 2.165c.214.218.505.342.81.346h.012zm12.485 9.668a3.182 3.182 0 00-2.783-4.713h-3.535a1.15 1.15 0 00-1.15 1.15v8.892c0 .636.515 1.15 1.15 1.15h4.258a3.567 3.567 0 002.06-6.48zM54.285 49.2h2.383a.879.879 0 010 1.756h-2.383V49.2zm3.107 6.591h-3.107v-2.534h3.107c.698 0 1.267.568 1.267 1.267a1.27 1.27 0 01-1.267 1.267zm-22.84 7.356h2.224c.593 0 1.075.481 1.075 1.073a1.15 1.15 0 102.3 0 3.378 3.378 0 00-3.375-3.374h-2.225a3.378 3.378 0 00-3.375 3.374v4.445a3.378 3.378 0 003.375 3.374h2.225a3.378 3.378 0 003.376-3.374 1.15 1.15 0 10-2.3 0c0 .592-.483 1.073-1.075 1.073h-2.225a1.075 1.075 0 01-1.075-1.073V64.22c0-.592.482-1.073 1.075-1.073zM62.481 55.4a1.15 1.15 0 00-1.15 1.151v1.112a1.15 1.15 0 102.3 0V56.55a1.15 1.15 0 00-1.15-1.15z" fill="#D27292"/><path d="M70.91 49.725a12.016 12.016 0 00-5.64-7.343c-5.78-3.335-13.196-1.349-16.533 4.426a12.006 12.006 0 00-1.21 9.178 12.018 12.018 0 005.64 7.344 12.036 12.036 0 006.031 1.618c4.186 0 8.264-2.17 10.503-6.044a12.007 12.007 0 001.21-9.179zm-3.2 8.027c-2.704 4.677-8.712 6.286-13.393 3.585a9.731 9.731 0 01-4.568-5.947 9.721 9.721 0 01.98-7.43c1.813-3.14 5.115-4.896 8.506-4.896 1.662 0 3.346.422 4.886 1.31a9.731 9.731 0 014.567 5.947 9.721 9.721 0 01-.979 7.431z" fill="#D27292"/><path d="M65.304 55.4a1.15 1.15 0 00-1.15 1.151v1.112a1.15 1.15 0 102.3 0V56.55a1.15 1.15 0 00-1.15-1.15zM6.058 36.156a12.034 12.034 0 006.031 1.618c4.186 0 8.264-2.17 10.503-6.044a12.007 12.007 0 001.21-9.179 12.017 12.017 0 00-5.64-7.344c-4.38-2.526-9.93-2.048-13.811 1.188a1.15 1.15 0 001.473 1.767 9.848 9.848 0 0111.188-.961 9.73 9.73 0 014.567 5.946 9.721 9.721 0 01-.98 7.431c-2.702 4.677-8.71 6.286-13.392 3.585a9.73 9.73 0 01-4.567-5.947 9.72 9.72 0 01.979-7.43 1.15 1.15 0 00-1.992-1.152 12.007 12.007 0 00-1.21 9.178 12.018 12.018 0 005.641 7.344zM40.06 55.171a1.15 1.15 0 10-.834 2.144 9.738 9.738 0 016.242 9.128c0 5.4-4.398 9.794-9.804 9.794-5.406 0-9.803-4.394-9.803-9.794s4.397-9.794 9.803-9.794a1.15 1.15 0 000-2.3c-6.674 0-12.104 5.425-12.104 12.094s5.43 12.094 12.104 12.094c6.675 0 12.105-5.425 12.105-12.094 0-2.483-.748-4.87-2.163-6.902a12.084 12.084 0 00-5.545-4.37z" fill="#D27292"/><path d="M14.891 22.386a1.15 1.15 0 000-2.301H9.329a1.15 1.15 0 00-1.15 1.15v8.892c0 .636.514 1.15 1.15 1.15h5.562a1.15 1.15 0 000-2.3h-4.412v-2.534h3.105a1.15 1.15 0 000-2.301h-3.105v-1.756h4.412zM11.002 47.26h-2.23a1.15 1.15 0 00-1.15 1.15v8.892c0 .635.515 1.15 1.15 1.15h2.23a5.603 5.603 0 005.595-5.596 5.602 5.602 0 00-5.595-5.597zm0 8.891h-1.08v-6.59h1.08a3.3 3.3 0 013.295 3.295 3.3 3.3 0 01-3.295 3.295z" fill="#D27292"/><path d="M22.592 46.808c-3.336-5.775-10.754-7.76-16.533-4.427a12.017 12.017 0 00-5.64 7.344 12.007 12.007 0 001.209 9.178c2.24 3.876 6.316 6.045 10.503 6.045 2.051 0 4.13-.521 6.03-1.618a12.016 12.016 0 005.64-7.343c.838-3.121.408-6.38-1.209-9.179zM21.58 55.39a9.73 9.73 0 01-4.568 5.947c-4.682 2.7-10.69 1.092-13.392-3.585a9.721 9.721 0 01-.98-7.43 9.73 9.73 0 014.568-5.947 9.75 9.75 0 014.886-1.31c3.39 0 6.693 1.756 8.506 4.895a9.721 9.721 0 01.98 7.43z" fill="#D27292"/></svg>