<svg width="53" height="83" fill="none" xmlns="http://www.w3.org/2000/svg"><path d="M33.955 37.763h-3.809v-3.878A3.65 3.65 0 0026.5 30.24a3.65 3.65 0 00-3.646 3.646v3.878h-3.809c-1.989 0-3.619 1.525-3.71 3.471a3.617 3.617 0 001.003 2.692 3.663 3.663 0 002.639 1.13h3.877v3.877A3.65 3.65 0 0026.5 52.58a3.65 3.65 0 003.646-3.646v-3.878h3.878c.992 0 1.953-.412 2.638-1.13a3.617 3.617 0 001.004-2.69c-.092-1.947-1.722-3.472-3.711-3.472zm.948 4.485a1.204 1.204 0 01-.88.376h-4.35a1.96 1.96 0 00-1.957 1.958v4.35a1.217 1.217 0 01-2.43 0v-4.35a1.96 1.96 0 00-1.959-1.958h-4.35c-.336 0-.648-.133-.88-.376a1.208 1.208 0 01-.334-.9c.03-.636.605-1.154 1.282-1.154h4.282a1.96 1.96 0 001.958-1.958v-4.35a1.217 1.217 0 012.43 0v4.35a1.96 1.96 0 001.958 1.958h4.282c.677 0 1.253.518 1.283 1.155.016.337-.103.656-.335.899zm-8.404-26.174c4.041 0 7.33-3.288 7.33-7.33V6.157A6.164 6.164 0 0027.671 0h-2.346a6.164 6.164 0 00-6.157 6.157v2.587c0 4.042 3.288 7.33 7.33 7.33zm-4.9-9.917a3.73 3.73 0 013.727-3.726h2.346a3.73 3.73 0 013.726 3.726v2.587a4.905 4.905 0 01-4.9 4.899A4.905 4.905 0 0121.6 8.744V6.157z" fill="#D27292"/><path d="M52.341 39.496L42.017 21.112a6.383 6.383 0 00-5.559-3.253h-19.92a6.383 6.383 0 00-5.555 3.253l-2.882 5.133a1.215 1.215 0 002.12 1.19l2.881-5.132a3.95 3.95 0 013.44-2.013h19.916a3.95 3.95 0 013.44 2.013L50.22 40.687a2.725 2.725 0 01-1.04 3.705 2.725 2.725 0 01-3.706-1.04l-1.382-2.462c-.275-9.466-8.061-17.082-17.593-17.082S9.182 31.424 8.907 40.89l-1.383 2.462a2.703 2.703 0 01-1.637 1.287 2.7 2.7 0 01-2.068-.247 2.725 2.725 0 01-1.04-3.706l4.598-8.188a1.215 1.215 0 00-2.12-1.19L.66 39.496a5.158 5.158 0 004.485 7.678c.467 0 .938-.065 1.4-.194a5.113 5.113 0 002.743-1.89 17.572 17.572 0 004.304 8.27l-3.336 19.29-2.521 5.701a3.277 3.277 0 00.252 3.124 3.276 3.276 0 002.754 1.494h7.273a3.698 3.698 0 003.651-3.168l4.512-20.794c4.006.107 8.118-1.345 11.103-3.693l3.096 17.898c.017.097.046.193.086.284l2.58 5.837a.85.85 0 01-.066.816.847.847 0 01-.717.39h-7.272a1.262 1.262 0 01-1.248-1.103 1.219 1.219 0 00-.018-.104L30.324 63.68a1.215 1.215 0 10-2.375.515L31.335 79.8a3.698 3.698 0 003.65 3.168h7.272a3.277 3.277 0 002.754-1.492 3.28 3.28 0 00.254-3.126l-2.52-5.701-3.337-19.288a17.575 17.575 0 004.305-8.271 5.113 5.113 0 002.743 1.889 5.124 5.124 0 003.916-.468 5.158 5.158 0 001.969-7.016zM19.279 79.332a.943.943 0 00-.018.104 1.262 1.262 0 01-1.247 1.102H10.74a.847.847 0 01-.717-.39.848.848 0 01-.066-.813l2.582-5.839c.04-.09.069-.186.086-.284l3.095-17.899a17.523 17.523 0 008.015 3.48L19.28 79.332zM26.5 56.58c-8.365 0-15.17-6.805-15.17-15.17 0-8.366 6.805-15.172 15.17-15.172s15.17 6.806 15.17 15.171c0 8.366-6.805 15.171-15.17 15.171z" fill="#D27292"/></svg>