<svg width="74" height="74" fill="none" xmlns="http://www.w3.org/2000/svg"><path d="M73.346 36.673C73.346 16.452 56.894 0 36.673 0 16.545 0 0 16.355 0 36.673c0 20.221 16.452 36.673 36.673 36.673 20.128 0 36.673-16.355 36.673-36.673zm-70.726 0c0-8.918 3.45-17.042 9.081-23.12l9.637 9.639c1.216 1.215 3.08-.625 1.852-1.852l-9.637-9.64c6.078-5.63 14.202-9.081 23.12-9.081 18.778 0 34.054 15.276 34.054 34.053 0 8.918-3.451 17.043-9.082 23.12L50.532 48.68c-1.226-1.226-3.077.627-1.852 1.852l11.113 11.113c-6.077 5.63-14.202 9.082-23.12 9.082-18.777 0-34.053-15.277-34.053-34.054z" fill="#D27292"/><path d="M20.974 36.422h-3.938c-1.751 0-1.749 2.798 0 2.798h2.409v7.309c-.67 1.142-1.672 1.713-3.008 1.713-2.673 0-4.01-3.856-4.01-11.568s1.337-11.567 4.01-11.567c1.496 0 2.154.902 2.744 2.31.511 1.215 2.173.894 2.59-.05.549-1.248-1.535-5.101-5.335-5.101-6.09 0-7.268 8.317-7.268 14.407s1.178 14.407 7.268 14.407c2.342 0 4.212-.995 5.61-2.985a1.3 1.3 0 00.238-.752v-9.612a1.31 1.31 0 00-1.31-1.31zm22.933-13.696H42.05a1.31 1.31 0 00-1.268.98l-4.59 17.688-4.51-17.682a1.31 1.31 0 00-1.27-.986H28.48a1.31 1.31 0 00-1.31 1.31c.521 23.609-1.182 26.544 1.31 26.544h.513a1.31 1.31 0 001.31-1.31V29.742l5.112 20.238c.202.798 1.353.8 1.556.002l5.151-20.24V49.27c0 .723.587 1.31 1.31 1.31h.473a1.31 1.31 0 001.31-1.31V24.035a1.307 1.307 0 00-1.31-1.31zM56.91 51.08c6.028 0 7.268-8.385 7.268-14.407 0-6.021-1.24-14.407-7.268-14.407-6.072 0-7.269 8.339-7.269 14.407 0 6.044 1.285 14.407 7.27 14.407zm0-25.975c3.66 0 4.01 7.926 4.01 11.568 0 3.625-.36 11.568-4.01 11.568-2.673 0-4.011-3.856-4.011-11.568s1.338-11.568 4.011-11.568z" fill="#D27292"/></svg>