<svg width="77" height="77" fill="none" xmlns="http://www.w3.org/2000/svg"><path d="M33.458 16.171c-.616 0-1.115.5-1.115 1.116v12.932a3.432 3.432 0 00-2.31 3.24 3.43 3.43 0 003.425 3.425 3.432 3.432 0 003.24-2.31h7.537a1.115 1.115 0 100-2.231h-7.538a3.443 3.443 0 00-2.123-2.124V17.287c0-.616-.5-1.116-1.116-1.116zm0 18.482a1.196 1.196 0 01-1.194-1.195c0-.658.536-1.194 1.194-1.194.659 0 1.195.536 1.195 1.194 0 .659-.536 1.195-1.195 1.195z" fill="#D27292"/><path d="M65.557 42.929C71.86 21.533 55.839 0 33.458 0 20.318 0 8.746 7.61 3.28 18.993a1.115 1.115 0 102.011.966C10.382 9.357 21.17 2.231 33.458 2.231c20.762 0 35.797 19.999 29.988 39.967-.764-.21-1.55-.369-2.353-.472A28.976 28.976 0 0060.7 23.97a1.116 1.116 0 10-2.107.734 26.484 26.484 0 011.45 7.638H56.56a1.116 1.116 0 100 2.23h3.482a26.504 26.504 0 01-1.24 7.01c-9.478.038-17.181 7.741-17.218 17.219a26.509 26.509 0 01-7.01 1.24V56.56a1.115 1.115 0 10-2.231 0v3.482c-6.497-.27-12.399-2.879-16.884-7.006l2.453-2.453a1.115 1.115 0 10-1.578-1.578l-2.453 2.453C9.754 46.973 7.144 41.07 6.875 34.574h3.481a1.115 1.115 0 100-2.231H6.875c.27-6.497 2.879-12.399 7.006-16.884l2.453 2.453a1.116 1.116 0 001.578-1.578l-2.453-2.453c4.485-4.127 10.387-6.737 16.884-7.006v3.482a1.115 1.115 0 102.23 0V6.875a26.668 26.668 0 0116.89 7l-2.458 2.459a1.115 1.115 0 101.578 1.577l2.46-2.46a26.582 26.582 0 013.598 4.94 1.116 1.116 0 001.942-1.098C53.38 10.084 43.66 4.62 33.458 4.62 17.565 4.62 4.62 17.548 4.62 33.458c0 15.893 12.927 28.838 28.838 28.838 2.821 0 5.596-.404 8.269-1.203.103.796.262 1.582.473 2.352a31.242 31.242 0 01-8.742 1.24c-17.218 0-31.227-14.008-31.227-31.227 0-2.996.424-5.959 1.259-8.806a1.115 1.115 0 10-2.141-.628A33.498 33.498 0 000 33.458C0 51.95 14.964 66.917 33.458 66.917c3.227 0 6.407-.457 9.47-1.36a17.254 17.254 0 002.843 4.594 1.115 1.115 0 101.69-1.456 15.052 15.052 0 01-3.646-9.824c0-8.275 6.785-15.356 15.743-15.04 7.984.36 14.368 6.968 14.368 15.04 0 8.301-6.754 15.055-15.056 15.055a15.01 15.01 0 01-7.962-2.275 1.116 1.116 0 00-1.181 1.893 17.245 17.245 0 009.144 2.614c9.532 0 17.286-7.755 17.286-17.288 0-7.162-4.379-13.322-10.6-15.941z" fill="#D27292"/><path d="M63.166 50.845a4.322 4.322 0 00-1.134-3.26c-2.78-3.003-7.77-.772-7.458 3.26l.699 9.05a3.624 3.624 0 003.597 3.33 3.624 3.624 0 003.597-3.33l.699-9.05zm-2.224-.172l-.7 9.05a1.383 1.383 0 01-1.372 1.27 1.383 1.383 0 01-1.373-1.27l-.7-9.05a2.077 2.077 0 012.073-2.238 2.076 2.076 0 012.072 2.238zM58.87 64.685a3.43 3.43 0 00-3.426 3.426 3.43 3.43 0 003.426 3.425 3.43 3.43 0 003.426-3.425 3.43 3.43 0 00-3.426-3.426zm0 4.62a1.196 1.196 0 01-1.194-1.194c0-.659.535-1.195 1.194-1.195a1.196 1.196 0 010 2.39z" fill="#D27292"/></svg>