<svg width="75" height="75" fill="none" xmlns="http://www.w3.org/2000/svg"><path d="M60.013 21.563c.8 0 1.45-.65 1.45-1.45V4.349A4.354 4.354 0 0057.112 0H4.35A4.354 4.354 0 000 4.349v65.52a4.354 4.354 0 004.349 4.35h52.764a4.354 4.354 0 004.35-4.35V59.192a1.45 1.45 0 00-2.9 0V69.87c0 .8-.65 1.45-1.45 1.45H4.35c-.8 0-1.45-.65-1.45-1.45V4.349c0-.8.65-1.45 1.45-1.45h52.764c.8 0 1.45.65 1.45 1.45v15.764c0 .8.65 1.45 1.45 1.45z" fill="#E4E4E4"/><path d="M30.732 7.828c-7.353 0-13.336 5.982-13.336 13.336a13.3 13.3 0 004.187 9.693c.048.052.1.1.155.145a13.284 13.284 0 008.994 3.498 13.29 13.29 0 008.994-3.498 1.33 1.33 0 00.155-.145 13.3 13.3 0 004.187-9.693c0-7.354-5.982-13.336-13.336-13.336zm0 23.773a10.38 10.38 0 01-6.304-2.126 7.201 7.201 0 016.304-3.672 7.201 7.201 0 016.304 3.672 10.381 10.381 0 01-6.304 2.126zm-2.32-11.017v-.942c0-1.279 1.041-2.32 2.32-2.32s2.32 1.041 2.32 2.32v.942c0 1.28-1.041 2.32-2.32 2.32a2.322 2.322 0 01-2.32-2.32zm10.719 6.767a10.056 10.056 0 00-4.27-3.58 5.19 5.19 0 001.09-3.187v-.942a5.224 5.224 0 00-5.219-5.218 5.224 5.224 0 00-5.218 5.218v.942c0 1.2.407 2.305 1.09 3.187a10.056 10.056 0 00-4.27 3.58 10.38 10.38 0 01-2.039-6.187c0-5.755 4.682-10.437 10.437-10.437 5.755 0 10.437 4.682 10.437 10.437a10.38 10.38 0 01-2.038 6.187zm-.571 36.141h-7.828a1.45 1.45 0 000 2.899h7.828a1.45 1.45 0 000-2.9zm-.001-8.118H17.975a1.45 1.45 0 000 2.9h20.584a1.45 1.45 0 000-2.9zm0-8.118H17.975a1.45 1.45 0 000 2.9h20.584a1.45 1.45 0 000-2.9zM12.81 39.563a1.46 1.46 0 00-1.026-.424 1.46 1.46 0 00-1.025.424 1.46 1.46 0 00-.425 1.025c0 .382.155.756.425 1.025.27.27.643.425 1.025.425.382 0 .755-.155 1.026-.425.27-.27.425-.643.425-1.025a1.46 1.46 0 00-.425-1.025zm0 8.118a1.463 1.463 0 00-1.026-.425 1.46 1.46 0 00-1.025.425 1.46 1.46 0 00-.425 1.025c0 .381.155.755.425 1.025.27.27.643.425 1.025.425.382 0 .755-.155 1.026-.425.27-.27.425-.644.425-1.025a1.46 1.46 0 00-.425-1.025zm0 8.118a1.463 1.463 0 00-1.026-.425 1.46 1.46 0 00-1.025.425 1.46 1.46 0 00-.425 1.025c0 .38.155.755.425 1.025.27.27.643.424 1.025.424a1.46 1.46 0 001.026-.425c.27-.27.425-.643.425-1.024a1.46 1.46 0 00-.425-1.025zm25.749-16.66H17.975a1.45 1.45 0 000 2.899h20.584a1.45 1.45 0 000-2.9zM71.173 18.89a6.05 6.05 0 00-4.62-.607 6.048 6.048 0 00-3.696 2.836L44.615 52.715a1.45 1.45 0 00-.186.564L43.145 64.78a1.45 1.45 0 002.3 1.329l9.32-6.863c.16-.119.295-.27.395-.443l18.242-31.595a6.095 6.095 0 00-2.229-8.317zM46.394 61.81l.67-6.007 4.196 2.422-4.866 3.584zm6.98-5.712L47.85 52.91l14.64-25.356 5.524 3.19-14.639 25.354zm17.517-30.34l-1.429 2.475-5.524-3.19 1.43-2.474a3.168 3.168 0 011.936-1.486 3.167 3.167 0 012.42.319 3.167 3.167 0 011.485 1.936 3.17 3.17 0 01-.318 2.42z" fill="#E4E4E4"/></svg>