<svg width="75" height="75" fill="none" xmlns="http://www.w3.org/2000/svg"><path d="M42.246 0a1.45 1.45 0 100 2.9c16.031 0 29.074 13.04 29.074 29.071a1.45 1.45 0 002.9 0C74.218 14.342 59.875 0 42.246 0z" fill="#E4E4E4"/><path d="M64.049 33.422c.8 0 1.45-.65 1.45-1.45 0-12.821-10.432-23.252-23.252-23.252a1.45 1.45 0 000 2.9c11.222 0 20.352 9.13 20.352 20.352 0 .8.649 1.45 1.45 1.45z" fill="#E4E4E4"/><path d="M53.877 31.972a1.45 1.45 0 002.9 0c0-8.012-6.519-14.53-14.53-14.53a1.45 1.45 0 100 2.899c6.413 0 11.63 5.217 11.63 11.631zm-13.08-4.36c0 .8.649 1.45 1.45 1.45a2.914 2.914 0 012.91 2.91 1.45 1.45 0 002.9 0 5.816 5.816 0 00-5.81-5.81c-.801 0-1.45.65-1.45 1.45zM27.17 47.065a1.45 1.45 0 11-2.9 0 1.45 1.45 0 012.9 0z" fill="#E4E4E4"/><path d="M39.723 72.459c6.6 3.234 14.542 1.889 19.761-3.331l2.998-2.997a4.159 4.159 0 000-5.886l-11.58-11.58a4.157 4.157 0 00-5.886 0l-4.92 4.92c-.964.964-2.451 1.16-3.536.468a54.373 54.373 0 01-5.115-3.706 1.45 1.45 0 00-1.835 2.244A57.183 57.183 0 0035 56.496c2.222 1.42 5.227 1.058 7.146-.86l4.921-4.922a1.26 1.26 0 011.784 0l11.581 11.58a1.261 1.261 0 010 1.786l-2.997 2.998c-4.348 4.348-10.953 5.464-16.436 2.778C20.913 60.006 9.984 44.388 4.353 33.02 1.66 27.583 2.778 21.003 7.137 16.646l2.932-2.931a1.258 1.258 0 011.783 0l11.582 11.582a1.26 1.26 0 01-.001 1.784l-4.92 4.921c-1.92 1.919-2.28 4.924-.861 7.147a57.262 57.262 0 002.68 3.837 1.45 1.45 0 102.306-1.756 54.574 54.574 0 01-2.544-3.641c-.692-1.086-.496-2.573.468-3.537l4.92-4.92a4.158 4.158 0 00.001-5.885l-11.581-11.58a4.156 4.156 0 00-5.884-.001l-2.931 2.93c-5.24 5.238-6.578 13.159-3.331 19.71 5.83 11.771 17.15 27.944 37.967 38.153z" fill="#E4E4E4"/></svg>