<svg width="75" height="74" fill="none" xmlns="http://www.w3.org/2000/svg"><path d="M34.968 54.773a1.255 1.255 0 00-1.754.268l-.155.211a1.255 1.255 0 002.02 1.489l.158-.214c.41-.559.29-1.344-.269-1.754z" fill="#E4E4E4"/><path d="M35.295 66.71l-3.228-5.868 3.014-4.104a1.255 1.255 0 10-2.023-1.485l-3.488 4.75a1.255 1.255 0 00-.088 1.347l3.614 6.57a1.255 1.255 0 102.199-1.21zm9.353-6.707l-3.473-4.73a1.253 1.253 0 00-2.23.438c-.09.363-.014.746.207 1.047l2.998 4.084-3.205 5.829a1.255 1.255 0 102.2 1.21l3.591-6.53a1.255 1.255 0 00-.088-1.348zm1.989-19.72a1.255 1.255 0 00-1.296.078 19.987 19.987 0 00-2.058 1.619c-3.377 3.053-6.586 2.64-6.711 2.621a1.227 1.227 0 00-.23-.015c-1.334.035-3.74-1.185-6.286-3.184a20.116 20.116 0 00-1.187-.866 1.254 1.254 0 00-1.957 1.04v4.304a1.255 1.255 0 00.58 1.057l8.897 5.946.005.003.023.016a1.255 1.255 0 001.4-.01l.013-.008a.476.476 0 00.015-.01l8.877-5.931a1.254 1.254 0 00.587-1.062v-4.487a1.257 1.257 0 00-.672-1.11zm-1.839 4.926l-7.688 5.137-7.688-5.137v-1.141c1.872 1.36 4.626 3.029 6.87 3.029h.015c.754.083 4.597.31 8.491-3.107v1.22z" fill="#E4E4E4"/><path d="M38.347 51.65a1.255 1.255 0 00-2.249-.537l-2.884 3.929a1.255 1.255 0 102.023 1.485l2.87-3.908a1.253 1.253 0 00.24-.97zm17.879-40.455c-.024-.196-.612-4.439-4.606-6.112.116-.745.104-1.703-.369-2.634-.636-1.253-1.89-2.068-3.73-2.426A1.25 1.25 0 0047.284 0H30.44c-6.838 0-12.402 5.564-12.402 12.403v6.609c0 1.721.587 3.4 1.652 4.727.528.658 1.179 1.807 1.277 3.544a1.255 1.255 0 002.508-.071v-8.617c.852-3.523 3.76-4.21 4.26-4.302h5.447c.641 0 1.271-.098 1.874-.29 1.036-.333 2.679-.944 3.875-1.399a3.638 3.638 0 012.496-.031l5.832 2.047c2.916 1.076 3.436 3.636 3.5 4.038v10.34a1.254 1.254 0 002.496.186c.005-.033.506-3.27 2.122-5.86a5.63 5.63 0 00.86-2.975v-8.995c0-.053-.004-.106-.01-.159zm-2.5 9.154c0 .56-.158 1.116-.457 1.61v-3.387c0-.046-.002-.09-.007-.136-.02-.182-.539-4.482-5.146-6.175l-.017-.006-5.841-2.05a6.147 6.147 0 00-4.218.053c-1.675.637-2.972 1.105-3.75 1.355a3.622 3.622 0 01-1.108.17h-5.549a1.28 1.28 0 00-.161.01c-.213.029-5.217.74-6.477 6.386-.02.09-.03.181-.03.273v2.582a5.098 5.098 0 01-.418-2.022v-6.609c0-5.455 4.438-9.893 9.893-9.893h16.716c.692.147 1.533.45 1.852 1.065.39.754-.054 1.791-.055 1.792a1.255 1.255 0 00.842 1.753c3.195.77 3.846 3.833 3.931 4.329v8.9z" fill="#E4E4E4"/><path d="M53.262 18.436c-.02-.182-.538-4.483-5.146-6.175l-.017-.006-5.84-2.05a6.153 6.153 0 00-4.219.053c-1.675.636-2.972 1.104-3.75 1.354a3.622 3.622 0 01-1.108.171h-5.549a1.26 1.26 0 00-.16.01c-.213.028-5.218.74-6.478 6.385-.02.09-.03.181-.03.273v10.815c.009.375.274 9.224 6.388 13.271l.032.023c.026.018.052.037.08.055.348.236.698.491 1.04.76 1.782 1.399 5.139 3.721 7.787 3.721h.014c.144.016.401.037.75.037 1.5 0 4.702-.393 7.909-3.292a17.487 17.487 0 011.8-1.415l.093-.065.093-.065c2.04-1.37 5.572-4.904 6.313-13.186a1.05 1.05 0 00.005-.112V18.57c0-.045-.002-.09-.007-.135zM50.76 28.94c-.684 7.474-3.869 10.372-5.209 11.272l-.141.098-.07.049a20 20 0 00-2.058 1.619c-3.364 3.041-6.562 2.642-6.72 2.62a1.262 1.262 0 00-.22-.013c-1.334.034-3.74-1.185-6.286-3.185a20.8 20.8 0 00-1.187-.866l-.03-.021-.096-.067c-4.935-3.265-5.257-10.908-5.268-11.227V18.595c.855-3.537 3.78-4.215 4.258-4.302h5.45c.64 0 1.27-.098 1.873-.291 1.036-.333 2.68-.944 3.876-1.398a3.637 3.637 0 012.495-.032l5.832 2.048c2.916 1.075 3.436 3.635 3.5 4.037v10.284zM38.23 51.295a1.255 1.255 0 00-2.134-.182l-3.005 4.094a1.255 1.255 0 002.021 1.487l3.006-4.079a1.29 1.29 0 00.245-.759c0-.195-.046-.387-.133-.561zm.081 20.205a1.255 1.255 0 00-1.753-.06l-.287.263a1.254 1.254 0 00-.249 1.538l.009.015a1.255 1.255 0 001.983.276l.278-.278a1.254 1.254 0 00.02-1.755z" fill="#E4E4E4"/><path d="M37.946 71.703l-.287-.262a1.255 1.255 0 00-1.734 1.813l.279.278a1.255 1.255 0 001.987-.284l.009-.015a1.255 1.255 0 00-.254-1.53z" fill="#E4E4E4"/><path d="M37.968 71.722l-.002-.001a1.255 1.255 0 00-1.713-.002l-.003.003a1.255 1.255 0 00-.04 1.817l.014.013a1.25 1.25 0 001.772-.002l.013-.013a1.255 1.255 0 00-.041-1.815zm-.454-21.082a1.26 1.26 0 00-1.407.472 1.253 1.253 0 001.025 1.98 1.255 1.255 0 001.257-1.255v-.004c0-.546-.355-1.026-.876-1.192z" fill="#E4E4E4"/><path d="M38.128 51.103l-.01-.015a1.255 1.255 0 00-2.265.746v.022a1.254 1.254 0 001.258 1.25 1.255 1.255 0 001.017-2.003z" fill="#E4E4E4"/><path d="M52.036 47.16a1.254 1.254 0 00-.75-.736l-4.811-1.725a1.254 1.254 0 00-1.121.138l-8.915 5.957-.008.005.7 1.04-.715-1.03a1.255 1.255 0 00-.319 1.79l6.527 8.889a1.254 1.254 0 002.11-.138l7.228-13.14c.177-.322.204-.706.074-1.05zm-8.553 11.258l-4.587-6.248 7.326-4.895 2.832 1.015-5.57 10.128z" fill="#E4E4E4"/><path d="M38.346 51.64a1.255 1.255 0 00-.536-.826l-8.945-5.977a1.256 1.256 0 00-1.121-.138l-4.811 1.725a1.254 1.254 0 00-.676 1.786l7.227 13.14a1.255 1.255 0 002.11.138l3.488-4.75a.375.375 0 00.008-.011l3.032-4.129c.202-.276.283-.622.224-.959zm-5.286 3.612l-.01.012-2.315 3.154-5.57-10.128 2.831-1.015 7.326 4.895-2.263 3.082zm41.096 13.33l-1.62-9.775a8.653 8.653 0 00-5.587-6.716l-15.66-5.666a1.255 1.255 0 00-1.55 1.74l3.27 6.557-3.208.05a1.255 1.255 0 00-1.093 1.836l1.316 2.513-13.467 12.32a1.224 1.224 0 00-.04.038l-.278.278c-.394.394-.481 1-.214 1.49l.01.017c.22.402.643.653 1.101.653h32.495c1.35 0 2.625-.59 3.498-1.62a4.577 4.577 0 001.026-3.715zm-2.94 2.092a2.073 2.073 0 01-1.584.733h-29.32l12.12-11.087c.42-.384.529-1.003.264-1.508l-.818-1.563 3.163-.049a1.255 1.255 0 001.104-1.814l-2.76-5.534 12.711 4.598a6.14 6.14 0 013.965 4.767l1.62 9.775a2.074 2.074 0 01-.466 1.682z" fill="#E4E4E4"/><path d="M37.978 71.732l-.014-.013a1.255 1.255 0 00-1.733.045l-.013.014a1.255 1.255 0 00.89 2.14h.028a1.255 1.255 0 00.842-2.186z" fill="#E4E4E4"/><path d="M37.939 71.696a1.254 1.254 0 00-1.94.329l-.008.016a1.255 1.255 0 00.198 1.476l.005.005a1.251 1.251 0 001.747.054l.013-.012c.114-.104.208-.228.277-.366a1.269 1.269 0 00-.292-1.502z" fill="#E4E4E4"/><path d="M37.994 71.773l-.005-.006-.01-.01-.279-.278a.965.965 0 00-.04-.038L24.193 59.12l1.316-2.512a1.255 1.255 0 00-1.092-1.837l-3.209-.05 3.27-6.557a1.255 1.255 0 00-1.55-1.74L7.268 52.09a8.653 8.653 0 00-5.587 6.716L.06 68.582a4.578 4.578 0 001.028 3.715 4.578 4.578 0 003.497 1.62H37.11a1.254 1.254 0 00.885-2.144zm-33.408-.365a2.073 2.073 0 01-2.048-2.416l1.619-9.775a6.14 6.14 0 013.965-4.766l12.71-4.599-2.759 5.534a1.255 1.255 0 001.104 1.814l3.164.05-.819 1.562a1.255 1.255 0 00.265 1.508l12.12 11.088H4.587z" fill="#E4E4E4"/><path d="M41.381 56.319a1.25 1.25 0 00-.206-1.047l-3.053-4.16a1.25 1.25 0 00-1.402-.441 1.25 1.25 0 00-.66.51l-2.998 4.068a1.258 1.258 0 00-.02 1.463l1.276 1.834-1.36 8.572c-.044.275.005.557.14.801l2.913 5.297a1.255 1.255 0 002.199 0l2.935-5.336a1.252 1.252 0 00.14-.802l-1.354-8.532 1.263-1.813a1.27 1.27 0 00.187-.414zm-4.27 13.689l-1.607-2.921 1.372-8.647c.05-.32-.025-.648-.21-.914l-1.052-1.51 1.5-2.035 1.508 2.053-1.04 1.492a1.26 1.26 0 00-.209.914l1.366 8.607-1.628 2.96z" fill="#E4E4E4"/></svg>