<svg width="54" height="61" fill="none" xmlns="http://www.w3.org/2000/svg"><g filter="url(#filter0_d_0_78)"><circle cx="27" cy="19" r="19" fill="#E4E4E4"/></g><path fill-rule="evenodd" clip-rule="evenodd" d="M27 11a5.949 5.949 0 00-4.242 1.79A6.172 6.172 0 0021 17.112a7.3 7.3 0 001.24 3.463 32.572 32.572 0 004.19 5.19.81.81 0 001.14 0 32.563 32.563 0 004.19-5.19A7.3 7.3 0 0033 17.111c0-1.62-.633-3.174-1.758-4.32A5.95 5.95 0 0027 11zm0 3.333c-.485 0-.96.147-1.364.422a2.49 2.49 0 00-.904 1.121 2.54 2.54 0 00-.14 1.445c.095.485.329.93.672 1.28s.78.588 1.257.684c.476.097.97.047 1.418-.142.449-.19.832-.51 1.102-.92a2.534 2.534 0 00-.306-3.157A2.434 2.434 0 0027 14.333z" fill="#78325C"/><defs><filter id="filter0_d_0_78" x="0" y="0" width="54" height="61" filterUnits="userSpaceOnUse" color-interpolation-filters="sRGB"><feFlood flood-opacity="0" result="BackgroundImageFix"/><feColorMatrix in="SourceAlpha" values="0 0 0 0 0 0 0 0 0 0 0 0 0 0 0 0 0 0 127 0" result="hardAlpha"/><feMorphology radius="6" in="SourceAlpha" result="effect1_dropShadow_0_78"/><feOffset dy="15"/><feGaussianBlur stdDeviation="7"/><feComposite in2="hardAlpha" operator="out"/><feColorMatrix values="0 0 0 0 0 0 0 0 0 0 0 0 0 0 0 0 0 0 0.13 0"/><feBlend in2="BackgroundImageFix" result="effect1_dropShadow_0_78"/><feBlend in="SourceGraphic" in2="effect1_dropShadow_0_78" result="shape"/></filter></defs></svg>