<svg width="97" height="39" fill="none" xmlns="http://www.w3.org/2000/svg"><path fill-rule="evenodd" clip-rule="evenodd" d="M59.019 13.494c.024-.12.06-.24.097-.345l.022-.14h.01v-.033h.011v-.033h.011v-.064h.01v-.032h.012v-.033h.01l.011-.097h.011v-.032h.01v-.033h.012v-.032h.01l.011-.108h.01v-.021h.011l.022-.14h.01v-.033h.012v-.032h.01l.011-.098h.011v-.032h.011v-.032h.01v-.065h.012v-.032h.01v-.033h.011v-.032h.011l.01-.108h.011v-.032h.011v-.033h.011l.01-.097h.012v-.032h.01v-.033h.011v-.032h.011v-.065h.011v-.032h.01v-.032h.012l.01-.098h.011v-.032h.01v-.032h.012v-.032h.01v-.065h.011v-.043h.011v-.033h.01V11.1h.012v-.054h.01v-.043h.011v-.033h.011v-.032h.01c.005-.032.008-.065.012-.097h.01v-.032h.011v-.033h.011v-.054h.01v-.043h.012v-.032h.01v-.033h.011l.011-.107h.01v-.033h.012v-.032h.01l.011-.097h.011v-.033h.01v-.032h.012v-.032h.01l.011-.108h.011v-.022h.01l.012-.097h.01l.011-.075h.011v-.033h.01V9.87h.011v-.054h.012v-.032H60V9.75h.01v-.064h.012v-.033h.01v-.032h.011l.011-.065h.011v-.075h.01v-.033h.011v-.032h.011l.022-.13h.01v-.032h.011v-.032h.011v-.054h.011v-.043h.01v-.033h.012V9.05h.01v-.054h.011v-.032h.011V8.93h.011v-.033h.01l.011-.108h.011v-.032h.011v-.032h.01l.011-.098h.011v-.032h.011v-.032h.01V8.53h.012v-.065h.01v-.032h.011v-.032h.011v-.065h.011v-.032h.01v-.033h.012V8.23h.01l.022-.097c-.014-.009-.013-.007-.022-.021h-5.364l-.02.032h-.26v.01h-.14v.011h-.108v.011h-.14c-.086.025-.207.029-.292.054h-.076v.011h-.053v.01h-.044v.011l-.119.011v.011h-.032v.011h-.065v.01h-.032v.012h-.043v.01h-.065v.011h-.022v.01h-.043v.012h-.054v.01h-.021v.011l-.087.011v.01h-.021v.011h-.054v.011h-.033v.011h-.021v.01h-.054v.012h-.022v.01h-.032v.011h-.043l-.011.022h-.043v.01h-.033v.011h-.021v.011H52.9v.011h-.022v.01l-.065.012v.01l-.043.011v.011h-.043l-.01.022-.066.01-.01.022h-.044v.01h-.021l-.011.022h-.043l-.011.022h-.022v.01h-.043l-.01.022h-.022v.011h-.033a.836.836 0 00-.01.022h-.033v.01l-.043.011v.011h-.032v.01h-.022l-.01.022h-.033a.327.327 0 01-.011.022h-.022v.01h-.032a.572.572 0 01-.01.022h-.033v.011h-.022l-.01.022h-.033l-.01.021-.065.022-.011.022h-.033l-.01.021h-.022v.01h-.022v.011h-.021v.011h-.022v.011h-.021a.321.321 0 01-.011.022 1.833 1.833 0 01-.044.01l-.01.022-.043.01a.452.452 0 00-.011.022l-.065.022a6.08 6.08 0 00-.021.032 4.684 4.684 0 00-.065.022l-.011.021h-.021l-.012.022h-.02c-.005.007-.008.014-.012.022l-.043.01-.01.022h-.022l-.022.032-.043.011a.612.612 0 00-.01.022h-.023l-.021.032h-.022l-.01.022a1.28 1.28 0 01-.033.01v.011h-.022a1.86 1.86 0 00-.021.033l-.043.01-.022.033h-.022l-.021.032h-.021c-.008.01-.015.022-.022.033h-.022l-.021.032h-.022l-.032.043h-.022l-.01.022-.033.01-.032.044h-.022l-.033.043h-.021a.988.988 0 01-.01.021h-.012l-.01.022h-.022l-.043.054H50.6l-.054.065c-.149.107-.271.238-.4.366-.081.082-.167.153-.236.248l-.022.011c-.025.027-.077.072-.087.108h-.021c-.013.047-.034.037-.054.065v.021l-.076.065v.022l-.043.032v.022l-.054.043v.021l-.043.033v.021l-.043.033v.021l-.033.022v.021l-.043.033v.021l-.021.011v.022l-.022.01-.01.033-.033.022v.02l-.032.023-.011.032-.022.01-.01.044-.033.021-.01.043-.033.022v.022l-.022.01v.022l-.021.01-.011.044-.022.01v.022l-.032.022-.022.065-.032.021-.011.043-.022.011-.01.043-.022.011-.01.043-.022.011v.022h-.011v.021h-.011v.022h-.01v.021a.483.483 0 01-.022.011v.022h-.011v.021h-.01v.022h-.012v.022l-.021.01v.022h-.011v.021h-.011v.022h-.01v.022h-.011v.021h-.011v.022a1.073 1.073 0 01-.022.01l-.01.055h-.011v.021h-.011v.022h-.011v.021l-.022.011v.022h-.01v.032h-.011v.022h-.011v.021h-.011l-.021.065h-.011l-.011.065h-.01l-.022.064h-.011v.022h-.01v.021h-.012l-.021.098h-.011l-.011.043h-.01v.021h-.012v.033h-.01v.021h-.01l-.012.076h-.01v.021h-.011l-.022.097h-.01l-.012.065h-.01v.022h-.011l-.011.065h-.011v.043h-.01v.032h-.012v.032h-.01v.033h-.01v.043h-.012v.054h-.01v.032h-.011v.032h-.011l-.01.098h-.012v.032h-.01v.032h-.011v.043h-.011v.054h-.01v.033h-.012v.032h-.01l-.011.108h-.011v.032h-.011v.033h-.01v.032h-.012v.054h-.01v.043h-.011v.033h-.01v.032h-.012v.065h-.01v.032h-.011v.033h-.011a8.448 8.448 0 01-.01.086h-.012l-.021.108h-.011l-.01.107h-.012v.033h-.01v.032h-.011a9.568 9.568 0 01-.011.097h-.011v.033h-.01v.032h-.011v.043h-.011v.065h-.011v.021h-.01l-.012.076h-.01l-.011.097h-.011v.022h-.01l-.011.107h-.011v.033h-.011v.032h-.01v.032h-.012v.054h-.01v.044h-.011v.032h-.011v.033h-.01c-.005.035-.008.071-.012.107h-.01v.033h-.011v.032h-.011l-.01.086h-.012v.044h-.01v.021h-.011l-.011.108h-.01v.032h-.012v.033h-.01l-.011.097h-.011v.032h-.01v.033h-.012v.043h-.01v.064h-.011v.033h-.011v.032h-.01v.033h-.012l-.01.097h-.011v.032h-.011v.032h-.01v.065h-.012l-.032.151h-.01l-.011.087h-.011v.021h-.011l-.01.108h-.012v.032h-.01v.033h-.011v.043h-.011v.043h-.01v.043h-.012v.033h-.01l-.011.097H47.2v.032h-.011v.032h-.01v.043h-.012l-.01.098h-.011v.032h-.01v.032h-.012v.065h-.01v.032h-.011v.033h-.011v.032h-.01v.054l-.055.162v.054h-.01v.021h-.012v.044h-.01v.043h-.011v.043h-.01v.043h-.012v.032h-.01v.033h-.011v.064h-.011l-.022.108h-.01l-.011.087h-.011v.032h-.01v.032h-.012l-.01.108h-.011v.022h-.011l-.022.14h-.01v.033h-.011v.032h-.011a10.29 10.29 0 01-.01.097h-.012v.032h-.01v.033h-.011l-.022.14h-.01v.022h-.011l-.011.107h-.011v.033h-.01v.032h-.011l-.012.086h-.01l-.022.108h-.01v.065h-.011v.032h-.011v.033h-.01l-.033.172h-.01v.022h-.012l-.01.108h-.011v.032h-.011v.033h-.011v.053h-.01v.043h-.012v.033h-.01v.032h-.011l-.011.097h-.01v.033h-.012v.032h-.01l-.022.14h-.01v.033h-.012v.032h-.01v.065h-.011l-.022.108h-.01l-.011.086h-.011v.032h-.011v.033h-.01v.064h-.012v.044h-.01v.021h-.011l-.011.097h-.01v.043h-.011v.033h-.011v.032h-.011l-.01.098h-.012v.032h-.01v.032h-.011l-.011.097h-.01v.032h-.012v.033h-.01v.032h-.011v.065h-.011v.043h-.01v.033h-.012v.043h-.01l-.011.086h-.011v.032h-.01v.033h-.011v.053h-.011v.044h-.011v.032h-.01v.043h-.012v.054h-.01v.033h-.011v.032h-.011v.032h-.01l-.012.108h-.01v.033h-.011v.032h-.011l-.01.097h-.012v.032h-.01v.033h-.011v.032h-.011v.065h-.01v.032h-.012v.033h-.01v.053h-.011l-.011.087h-.01v.032h-.012v.033h-.01v.054h-.011v.043h-.011v.032h-.011v.043h-.01v.054h-.011v.032h-.011v.033h-.011v.032h-.01v.054h-.012v.054h-.01v.033h-.011v.032h-.011v.054h-.01v.032h-.012l-.021.108h-.011v.065h-.01v.032h-.012v.032h-.01l-.011.098h-.011v.032h-.01v.032h-.012v.033h-.01v.064h-.011v.044h-.011v.032h-.01v.032h-.012v.054h-.01v.044h-.011v.032h-.011v.032h-.01l-.012.097h-.01v.032H45.3v.033h-.01v.065h-.012v.032h-.01v.032h-.011v.033h-.011l-.01.108h-.012v.032h-.01v.032h-.011l-.011.097h-.01v.033h-.012v.032h-.01v.032h-.011v.065h-.011v.033h-.01v.032h-.012l-.01.097h-.011l-.011.075h-.01v.033h-.012l-.01.097h-.011v.032h-.011v.033h-.01v.064h-.012v.033h-.01v.032h-.011v.033h-.011l-.01.107h-.012v.022h-.01l-.011.097h-.011l-.01.076H44.9v.032h-.01v.032h-.011v.065h-.011v.032h-.01v.033h-.012l-.01.097h-.011v.032h-.011v.033h-.01v.032h-.012l-.01.108h-.011v.022h-.011v.043h-.01a6.377 6.377 0 01-.012.097h-.01v.032h-.011v.032h-.011v.033h-.01v.064h-.011v.033h-.011v.032h-.011v.065h-.01l-.023.108h-.01v.032h-.01l-.012.098h-.01v.021h-.011l-.011.108h-.011v.032h-.01v.033h-.012v.032h-.01v.054h-.011v.043h-.01v.032h-.012v.044h-.01a6.688 6.688 0 00-.011.097h-.011v.032h-.01v.032h-.012v.032h-.01v.065h-.011v.033h-.011v.032h-.01l-.012.097h-.01v.032h-.011v.033h-.011v.032h-.011v.065h-.01v.033h-.012v.032h-.01l-.022.14h-.01v.032h-.012v.033h-.01v.054h-.011v.043h-.01v.032h-.012v.043h-.01v.054h-.011v.033h-.011v.032h-.01v.032h-.012v.044h-.01v.053h-.011v.033h-.011v.032h-.01l-.012.108h-.01v.033h-.011v.032h-.011v.032h-.011v.065h-.01a.332.332 0 00-.022.13h5.385l.033-.14h.01V29.2h.011v-.032h.011v-.032h.01v-.033h.012l.01-.097h.011v-.032h.011v-.033h.01v-.064h.012v-.033h.01v-.043h.011v-.032h.011v-.032h.01v-.065h.012v-.033h.01v-.032h.011l.011-.097h.01v-.032h.011v-.033h.011l.011-.097h.01v-.043h.012v-.021h.01l.011-.098h.011v-.043h.01v-.032h.011v-.032h.011l.011-.098h.011v-.032h.01v-.032h.012v-.065h.01v-.032h.011v-.033h.011l.022-.13h.01v-.032h.011v-.032h.011v-.065h.01v-.043h.011v-.032h.011v-.033h.011v-.032h.01v-.065h.012v-.032h.01v-.033h.011v-.043h.011v-.054h.011l.01-.075h.011v-.032h.011v-.044h.011v-.054h.01v-.032h.012v-.032h.01v-.065h.011v-.032h.011v-.033h.01v-.032h.012l.01-.097h.011v-.032h.011v-.033h.01l.012-.108h.01v-.032h.011v-.032h.011v-.033h.011l.01-.097h.011l.022-.13h.011v-.032h.01v-.032h.011v-.033h.011v-.053h.011v-.044h.01v-.032h.012l.01-.108h.011v-.032h.011v-.033h.01v-.032h.011v-.032h.011v-.065h.011v-.032h.01v-.033h.012v-.065h.01v-.032h.011v-.032h.011v-.032h.01l.023-.14h.01v-.022h.011l.011-.108h.01v-.033h.011v-.032h.011v-.032h.011v-.054h.01l.022-.108h.011v-.065h.011v-.032h.01v-.033h.012l.021-.14h.011v-.032h.01v-.033h.012v-.064h.01v-.033h.011v-.032h.011v-.033h.01l.011-.097h.011v-.032h.011v-.032h.01l.012-.108h.01v-.033h.011v-.021h.011l.011-.097h.01v-.043h.012v-.033h.01v-.032h.011v-.065h.011v-.032h.01V23.7h.011v-.033h.011l.011-.108h.01v-.021h.012l.01-.098h.011v-.043h.011v-.032h.011v-.032h.01v-.043h.011v-.055h.011v-.032h.011v-.032h.01c.005-.032.008-.065.012-.097h.01v-.033h.011v-.032h.011l.022-.14h.01v-.022h.011v-.043h.011v-.065h.01v-.032h.012v-.032h.01v-.033h.011l.011-.097h.01v-.032h.012v-.033h.01v-.064h.011v-.033h.011v-.032h.01l.022-.14h.011v-.033h.011v-.032h.01l.012-.097h.01c.015-.065.03-.13.043-.194h.011v-.033h.011l.01-.097h.012v-.032h.01v-.033h.011l.022-.14h.01v-.032h.012v-.032h.01v-.065h.01v-.033h.012v-.032h.01v-.032h.011l.011-.097h.01v-.033h.012v-.032h.01v-.065h.011v-.043h.011v-.022h.011l.01-.086c.017-.049.04-.114.055-.162V20.7h.01v-.032h.011v-.032h.011l.022-.14h.01v-.022h.011l.022-.14h.01V20.3h.012v-.032h.01v-.043h.011v-.054h.011v-.033h.01v-.032h.012v-.054h.01v-.043h.01v-.032h.012v-.044h.01v-.032h.011l.011-.097h.011v-.022h.01l.012-.108h.01v-.032h.011v-.032h.011l.01-.087h.011l.022-.108h.01v-.064h.012v-.032h.01v-.033h.011l.033-.172h.01v-.022h.011l.011-.108h.01v-.032h.012v-.033h.01l.011-.097h.011v-.032h.01v-.032h.012l.01-.108h.011v-.033h.011v-.032h.01l.023-.13h.01v-.032h.011v-.032h.01v-.065h.012v-.032h.01v-.033h.011l.011-.086h.01l.022-.108h.011v-.065h.011v-.043h.01v-.032h.012v-.033h.01v-.043h.011v-.054h.011v-.032h.01v-.033h.012l.01-.096h.011v-.033h.01v-.032h.012v-.043h.01l.011-.098h.011v-.021h.01v-.032h.012v-.076h.01v-.032h.011v-.033h.011l.011-.086h.01l.022-.108h.011l.01-.108h.012v-.021h.01v-.043h.011v-.044h.011v-.043h.01v-.043h.012v-.021h.01l.011-.108h.011v-.033h.01v-.032h.012v-.043h.01v-.054h.011v-.032h.011v-.033h.01v-.032h.011l.012-.108h.01v-.022h.01v-.054h.012v-.043h.01v-.032h.011v-.033h.011v-.032h.011v-.032h.01l.012-.065h.01c.004-.018.008-.036.01-.054h.012v-.022h.01l.011-.064h.012v-.022h.01v-.032h.01c.005-.014.008-.029.012-.043h.01v-.022l.022-.01v-.044h.011v-.021l.022-.011.01-.043h.011v-.022h.01V15.5h.012v-.021h.01v-.021l.022-.012v-.02h.01v-.023h.012v-.021h.01v-.022l.033-.021.01-.054.033-.022v-.022l.022-.01v-.022l.021-.01.011-.033h.01v-.022l.023-.01v-.022c.006-.004.014-.007.021-.01v-.022l.032-.022v-.022l.033-.021v-.022l.032-.021v-.022l.043-.032v-.022l.054-.043v-.022l.076-.064v-.022l.172-.161.108-.12h.022l.076-.085h.021l.044-.054h.021l.032-.044h.022l.022-.032h.021l.01-.021h.022l.022-.033h.022l.021-.032h.022l.01-.022h.022l.022-.032.043-.011v-.01a2.05 2.05 0 00.032-.012l.022-.032h.032l.022-.032.043-.011.011-.022h.022v-.01h.021v-.011h.022v-.011h.021l.011-.022h.033l.01-.021h.022v-.011h.022v-.01h.021v-.012h.022v-.01h.021v-.011h.022v-.011l.065-.022v-.01h.032v-.011h.022l.01-.022h.044v-.01l.043-.011v-.011h.032v-.01l.043-.012v-.01h.044l.01-.022h.044v-.01h.032v-.012h.021v-.01h.054v-.011h.022v-.01l.087-.012v-.01h.032v-.011h.032v-.011h.065v-.011h.032v-.01h.054v-.012h.065v-.01h.043v-.01h.108v-.012h.065v-.01c.038-.012.083.009.108-.011h2.612c.087 0 .212.014.28-.011zM90.79 8.11h-2.364c-.112 0-.263-.015-.356.011h-.118l-.184.011v.01h-.151v.012h-.065v.01h-.064v.011h-.109v.011h-.053v.01l-.13.011v.011h-.043v.01l-.119.012v.01h-.032v.011l-.108.011v.01h-.033v.012h-.064v.01h-.022v.011l-.097.011v.011h-.022v.01h-.054v.012h-.032v.01h-.022v.01l-.086.012v.01h-.022v.011h-.054v.011l-.043.01v.012H86.3v.01h-.022v.011h-.032v.011h-.043v.01h-.022V8.5l-.065.01v.011h-.021v.011h-.043v.01a4.504 4.504 0 00-.043.012v.01h-.044l-.01.022h-.022v.01h-.043l-.011.022-.065.011-.01.022h-.044l-.01.021-.13.044-.01.021h-.033v.01l-.065.023v.01h-.022v.011h-.021v.01h-.032l-.012.022h-.02v.011h-.033l-.011.022h-.022v.01h-.032l-.01.022-.044.01-.01.022h-.033l-.01.022a12.36 12.36 0 00-.066.021l-.01.022h-.033l-.01.022a2.042 2.042 0 00-.044.01l-.01.022a3.427 3.427 0 01-.044.01l-.01.022-.044.011-.01.022-.044.01-.01.022h-.022v.011h-.022v.01H84.8l-.021.033-.043.01a.79.79 0 01-.011.022l-.032.011v.011l-.044.01a.565.565 0 01-.01.022h-.022l-.022.033-.043.01-.021.033h-.022a.836.836 0 00-.01.022 1.033 1.033 0 00-.033.01v.011h-.022l-.022.032h-.02l-.012.022h-.021l-.022.033h-.021l-.022.032h-.022l-.021.032h-.022l-.01.022h-.022l-.033.043h-.021l-.022.032h-.022l-.032.043h-.022l-.032.044h-.021a1.965 1.965 0 00-.033.043h-.021l-.043.054h-.022l-.065.075c-.153.111-.278.246-.41.378l-.237.226v.022h-.011l-.032.043-.152.14-.075.087-.054.032-.011.032c-.025.021-.02-.011-.032.033h-.022l-.173.183-.324.313-.043.054c-.05.05-.138.112-.172.172h-.022c-.008.03-.003.025-.032.033v.021h-.022c-.011.039-.04.041-.064.065l-.044.054-.108.097-.615.626h-.022v.021h-.01c-.02.023-.022.007-.033.043-.03.009-.024.003-.032.033-.031.008-.036.011-.043.043H81l-.194.205-.303.291-.118.13-.097.086a2.42 2.42 0 00-.033.043c-.03.028-.031.007-.054.054h-.022c-.007.027-.005.018-.02.033v.01h-.022a1.23 1.23 0 01-.022.033l-.054.043c-.093.102-.194.194-.291.291l-.173.184c-.062.061-.123.12-.194.172l-.087.108c-.143.104-.254.243-.377.367l-.238.226-.022.033c-.038.038-.09.07-.118.118h-.022c-.008.03-.002.025-.032.033l-.011.032h-.043l-.033-.097-.021-.01v-.022h-.011v-.033h-.01v-.021h-.012v-.022l-.021-.01v-.033h-.01c-.005-.014-.008-.029-.012-.043h-.01v-.022h-.011v-.021h-.011l-.022-.065h-.01v-.032h-.011v-.022l-.022-.01v-.022h-.01v-.033h-.012v-.021h-.01v-.022h-.011v-.021h-.011v-.022h-.01v-.022h-.012v-.021h-.01v-.022h-.011v-.022h-.011v-.021h-.01v-.022h-.011v-.021h-.011v-.032l-.022-.011v-.022h-.01v-.021h-.012v-.033h-.01v-.021h-.01v-.022h-.012v-.022H78v-.021h-.011v-.022h-.011v-.021h-.01v-.022h-.012v-.02h-.01v-.022h-.011v-.021h-.011v-.022h-.01V14l-.023-.01-.021-.076h-.01l-.012-.043h-.01v-.022h-.011v-.021h-.011v-.022h-.01v-.021h-.012v-.022h-.01l-.011-.043h-.011v-.022h-.01v-.032h-.012v-.022l-.021-.01v-.022h-.011v-.032h-.01l-.022-.065h-.011v-.021h-.011v-.022h-.011v-.022h-.01v-.021h-.011v-.022h-.011v-.021H77.6v-.022h-.01v-.021h-.012v-.033h-.01v-.021h-.011v-.022l-.022-.01v-.033h-.01v-.022h-.011a2.245 2.245 0 01-.011-.043h-.011v-.021h-.01v-.022h-.011v-.022h-.011v-.021h-.011v-.022h-.01c-.005-.014-.008-.028-.012-.043h-.01a2.04 2.04 0 01-.011-.054l-.022-.01-.032-.098h-.011l-.01-.043h-.012v-.022h-.01v-.021h-.011v-.022h-.011v-.021h-.01v-.022h-.012l-.01-.043h-.011v-.022h-.011l-.01-.054-.023-.01v-.033h-.01v-.021h-.011v-.022h-.01v-.021h-.012v-.022h-.01v-.021h-.011v-.022h-.011v-.022h-.01v-.021h-.012v-.022h-.01v-.022h-.011l-.033-.096-.021-.011-.033-.097h-.01v-.022h-.011v-.022h-.011v-.021h-.01v-.022h-.012v-.021h-.01l-.011-.043h-.011v-.022h-.01v-.033l-.023-.01-.01-.054a.394.394 0 00-.022-.01V11.8h-.01l-.011-.043h-.011l-.022-.065h-.01v-.022h-.011v-.021h-.011v-.022h-.01v-.021h-.012v-.022h-.01v-.022h-.011v-.021h-.011v-.033h-.01v-.021l-.022-.01v-.033h-.011v-.022h-.01v-.021h-.012v-.022h-.01v-.022h-.011v-.021h-.011v-.022h-.011v-.021h-.01v-.022h-.012v-.021h-.01v-.022h-.011v-.022h-.011v-.032h-.01l-.012-.043h-.01v-.022l-.022-.01v-.033h-.01v-.021h-.011v-.022h-.011v-.022h-.011v-.021h-.01v-.022h-.012v-.021h-.01v-.022h-.011v-.021h-.011v-.022h-.01v-.022h-.012v-.032h-.01v-.022h-.011l-.011-.043h-.011v-.021h-.01v-.022h-.012v-.021h-.01v-.022h-.011v-.022h-.01c-.005-.014-.008-.028-.012-.043h-.01l-.011-.054-.022-.01v-.044h-.01v-.021l-.022-.011v-.032h-.011v-.022h-.01v-.032h-.012a3.401 3.401 0 00-.01-.043h-.011v-.022h-.01v-.032h-.012l-.021-.065h-.011v-.022h-.011v-.021h-.01l-.023-.065-.02-.01v-.022h-.012v-.022h-.01v-.021h-.011v-.022h-.011v-.022l-.022-.01-.01-.044-.022-.01v-.022a.725.725 0 01-.022-.01V9.87l-.021-.011v-.022l-.022-.01v-.022l-.021-.01v-.022l-.022-.011V9.74l-.032-.021v-.022a.463.463 0 01-.022-.01v-.022a1.985 1.985 0 01-.022-.011l-.01-.032a2.137 2.137 0 00-.033-.022v-.02l-.054-.044v-.021l-.043-.033V9.46l-.075-.065v-.022l-.098-.086-.13-.14h-.02l-.066-.076h-.021l-.054-.064-.033-.011-.021-.033h-.022a3.031 3.031 0 01-.021-.032h-.022L74.99 8.9h-.022l-.022-.033h-.021l-.011-.021a1.06 1.06 0 01-.032-.011v-.011h-.022l-.01-.021h-.022l-.011-.022h-.022l-.01-.021a1.684 1.684 0 00-.033-.011v-.011l-.043-.01-.011-.022-.032-.011v-.011h-.033l-.01-.022-.043-.01-.012-.022-.043-.01v-.012h-.021v-.01h-.022v-.011h-.022v-.01h-.021v-.012h-.033l-.01-.021a4.482 4.482 0 00-.054-.011l-.01-.022h-.033V8.5l-.044-.011v-.011h-.032v-.01l-.043-.012v-.01h-.032v-.011a3.68 3.68 0 01-.044-.01v-.012a4.42 4.42 0 01-.064-.01v-.011h-.022V8.38a3.557 3.557 0 01-.065-.011v-.01l-.064-.011v-.011h-.022v-.011h-.043v-.01h-.033v-.012h-.032v-.01h-.054v-.011h-.022v-.01l-.097-.012v-.01h-.032V8.24l-.108-.011v-.01h-.032v-.012h-.065v-.01h-.065v-.011h-.043v-.011h-.097v-.011h-.055v-.01h-.075v-.011h-.14v-.011h-.098v-.011h-.205c-.105-.03-.274-.01-.4-.01h-1.92c-.188 0-.413-.02-.583.01.016.069.068.137.097.194l.022.076.022.01.043.12h.01v.02l.022.012v.032h.011v.021h.01v.022h.012v.022h.01v.021h.011l.011.043h.01v.033l.022.01v.022h.011v.033l.022.01v.032h.01v.022h.011v.022l.022.01.01.054h.012l.021.065h.011l.01.043h.011v.033h.011v.021l.022.011v.032l.021.011v.033h.011v.021h.011l.01.043h.012v.022h.01v.021h.011v.022h.011v.022h.011l.01.043h.011v.021h.011v.022h.011v.032l.022.01.032.098h.01v.022h.012v.021h.01v.022h.011v.021h.011v.022h.01v.022h.012l.01.043h.011v.021h.011v.033h.01v.021h.012v.022l.021.01v.033h.01v.022h.012l.01.043h.011v.021h.011v.022h.011v.022h.01v.02h.012v.023h.01l.01.043h.012l.01.054.022.01v.033l.022.01v.033h.01v.022h.012l.01.043h.01v.021h.012v.022h.01v.021h.011v.022h.011v.022h.01c.005.014.008.028.012.043h.01l.011.054.022.01v.022h.01v.022h.011v.032h.011l.022.065h.01v.021h.011v.022h.011v.021h.011l.022.065h.01l.011.043h.011v.033h.01v.021l.022.011v.032h.011v.022h.011v.022h.01v.021h.011v.022h.012v.021h.01v.022h.01v.022h.012v.021h.01l.033.097h.01v.022h.012v.021l.021.011.011.054h.01l.011.043h.011v.022h.011v.021h.01v.022h.012v.022h.01v.021h.011l.011.043h.01v.022h.012v.032h.01v.022h.011v.021l.022.011.01.054h.011l.022.065h.01v.021h.012v.022h.01v.022h.011v.032l.022.01v.022h.01v.022h.011v.032h.011v.022h.011l.01.043h.012v.021h.01v.022h.011v.022h.011v.021h.01l.012.043h.01v.022h.011v.021h.01v.033l.023.01.032.098h.01l.012.043.021.01v.022h.01v.033h.012l.021.064h.011v.022h.01v.021h.012v.022h.01l.011.043h.011v.033l.022.01v.033h.01v.021h.011v.022l.022.01v.033h.01v.022h.011v.021h.011v.022h.011v.021h.01v.022h.012v.032a.621.621 0 01.021.011v.022H72l.022.064h.01l.011.054h.011l.01.043h.012v.022h.01v.022h.011v.021h.011v.022h.01v.022h.012l.01.043h.011l.021.064h.012l.01.043h.011v.033h.011l.021.065h.011v.021h.011v.022h.01v.021h.012v.022h.01v.022h.011v.021h.011v.021h.01v.022h.011v.022h.012l.02.064h.012v.033h.01l.022.064h.011v.022h.01v.022h.012v.021h.01v.022h.011l.033.097.021.01v.022h.01l.012.043h.01v.033h.011v.021h.011v.022h.01v.022h.012v.02h.01v.023h.012v.021h.01v.022h.01v.021h.012v.022h.01v.021h.011v.022h.011v.033l.022.01v.022h.01v.021h.011v.033h.01v.021h.012v.022h.01v.021h.011v.022h.011v.022h.011v.021h.01v.022h.012v.021h.01v.022h.011v.022h.011v.021h.011v.033l.021.01.011.054h.01v.022h.012l.01.043h.011v.021h.011v.022h.011v.022h.01v.021h.011v.022h.011l.011.043h.01l.012.054.021.01v.022h.011v.022h.01v.032h.012v.022h.01v.021h.011v.022h.011v.022h.01v.02h.012v.023h.01v.022h.011v.02h.011v.023h.01v.021h.012v.022h.01v.032l.022.01v.022h.01v.022h.012v.032h.01v.022h.011l.011.043h.01v.022h.012v.021h.01v.022h.011v.021h.011v.022h.01c.005.014.008.029.012.043h.01l.011.054.022.01v.022h.01v.022h.011v.032h.011v.022h.01v.021h.012v.022h.01v.021h.011v.022h.011v.022h.011v.021h.01v.022h.011v.022h.011v.02h.011v.023h.01v.021h.012v.022h.01v.032l.022.01.032.098h.011v.021h.011v.022h.01v.022h.012v.021h.01v.022h.011l.011.043h.01l.011.043h.012v.022h.01v.032h.011v.022l.022.01.01.054h.011l.011.044h.01v.021h.012v.022h.01v.021h.011v.022h.011v.021h.01l.011.044h.011v.021h.011v.033h.01v.021l.023.01.043.12h.01v.021h.011v.022h.011v.021h.01v.022h.012v.022h.01l.011.042h.011v.022h.01l.012.054a.543.543 0 01.021.011v.022h.011v.032h.01l.022.064h.011v.022h.011v.022h.01v.021h.012v.022h.01v.021h.011v.022h.011v.022h.01v.032h.012v.022h.01v.021l.022.011v.032h.01v.022h.012l.01.043h.011v.021h.011v.022h.01v.022h.011v.021h.012v.022h.01l.01.043h.012l.032.097.022.01.01.055h.011l.011.043h.011l.01.043h.011v.022h.011v.022h.011v.02h.01v.023h.012v.021h.01v.021h.011l.011.055.022.01v.033h.01v.021h.011v.022h.011v.022h.01v.021h.012v.022h.01v.021h.011v.022h.011v.021h.01v.022h.012v.022h.01v.021h.011v.022h.011v.032h.01v.022h.012v.021l.021.011v.032h.011l.01.044h.012c-.01.064-.13.15-.173.194l-.41.42-.087.076-.032.043-.043.022v.021h-.022c-.008.03-.002.025-.032.033-.011.038-.04.04-.065.064l-.054.065-.108.097-.647.658h-.022v.022H73.1a8.42 8.42 0 01-.054.064h-.01v.022h-.022l-.183.194-.281.27-.119.13-.086.075a1.473 1.473 0 00-.032.043c-.03.028-.032.007-.054.054h-.022c-.014.05-.035.037-.065.065a5.098 5.098 0 00-.043.054l-.022.01v.022l-.075.054-.432.442-.097.086-.043.054c-.03.028-.031.007-.054.054h-.022c-.013.044-.006.013-.032.033l-.01.021-.088.076v.021h-.021l-.184.195-.323.312-.054.065c-.05.05-.138.113-.173.173h-.021v.021c-.032.008-.036.012-.044.044-.044.012-.01.007-.032.032h-.01v.01h-.022l-.076.087-.302.302-.248.237-.109.119h-.021v.01l-.022.012v.021l-.021.01-.033.044c-.15.11-.268.258-.399.388l-.043.033-.216.226c-.038.039-.09.07-.119.12h-.021v.02h-.011c-.02.023-.022.007-.032.044-.045.012-.012.007-.033.032h-.01v.01c-.026.022-.022-.011-.033.033h-.022l-.194.205-.302.291-.119.13-.097.086-.032.043c-.031.028-.032.007-.055.054h-.021c-.008.03-.003.025-.032.033v.021c-.054.015-.094.083-.13.12h-.01l-.27.28-.238.226-.108.119h-.021l-.011.032h-.011l-.043.054c-.143.104-.254.243-.378.367l-.043.032-.195.205c-.038.039-.09.07-.118.119h-.022v.021h-.01c-.02.023-.022.007-.033.043-.044.013-.011.008-.032.033h-.011v.01h-.022l-.183.195-.313.302-.14.151c-.052.051-.108.092-.152.151-.014.02-.038.027-.053.054h-.022v.022c-.051.013-.164.152-.205.194l-.335.323-.151.162-.076.054v.022h-.01l-.044.054h-.021l-.054.064h-.01v.022a.384.384 0 00-.152.151h-.01v.065h2.751c.074 0 .17.005.227-.011h.119v-.01h.118v-.012h.13v-.01h.054v-.011h.097v-.011h.076v-.01h.043v-.012h.086v-.01h.054v-.011h.032v-.011h.087v-.01h.032v-.012h.033v-.01h.075v-.01h.033v-.012l.097-.01v-.011h.032v-.011l.087-.011v-.01h.02v-.012h.066v-.01l.043-.011v-.011h.054v-.011h.022v-.01l.075-.011v-.011h.022v-.011h.043v-.01h.032v-.012h.022v-.01h.043v-.011l.043-.01v-.012h.054l.011-.021.075-.01.012-.023.064-.01v-.011h.022v-.01h.032v-.012l.043-.01v-.01h.043l.011-.022h.022v-.01h.032v-.011l.043-.011v-.011h.033l.01-.022h.033v-.01l.043-.011v-.011h.033l.01-.021.054-.012.011-.02.054-.012.011-.021.054-.011.01-.022h.033v-.01h.022l.01-.022h.033a1.46 1.46 0 00.01-.022h.022v-.01h.022v-.011h.021v-.011h.022v-.01h.022l.01-.022.044-.011.01-.022h.033l.01-.021.044-.011.01-.022.044-.01.01-.022.043-.01.011-.022.044-.011.01-.022.033-.01v-.011l.043-.011.011-.022.032-.01v-.011l.043-.011.022-.033h.022l.01-.021.044-.01a1.39 1.39 0 01.021-.033h.022l.01-.022.033-.01v-.011h.022l.021-.033h.022l.01-.021.033-.011v-.01h.021l.011-.022.033-.011.021-.033h.022l.021-.032h.022l.022-.032h.021l.032-.043.033-.011.01-.022h.022l.033-.043h.021l.044-.054h.021l.043-.054h.022l.054-.065h.021l.044-.053c.1-.072.173-.153.258-.238.037-.036.084-.059.108-.108h.022c.014-.051.064-.074.097-.108l.216-.237h.022v-.022h.01c.02-.022.022-.006.033-.043.03-.008.025-.002.032-.032h.022l.173-.183.345-.335v-.01c.05-.05.127-.102.162-.162h.022c.008-.03.019-.031.032-.054h.022c.01-.037.03-.032.053-.054l.044-.054.097-.086.55-.561h.022v-.022h.01l.044-.054.032-.01v-.022c.051-.014.164-.153.205-.194l.486-.475v-.01l.097-.087.043-.054c.024-.024.054-.026.065-.065h.022c.021-.078.119-.083.14-.161.053-.015.094-.083.13-.12l.27-.258v-.01l.183-.173.065-.076h.021l.065-.086h.022l.42-.432.022-.01.205-.216c.035-.036.082-.064.108-.108h.022v-.022h.01l.044-.054.032-.01.011-.033c.025-.021.02.012.032-.032.035-.01.124-.1.14-.13h.022c.004.01.007.037.011.043l.022.011v.033l.021.01v.033h.01v.021h.012v.022h.01v.021h.011v.022h.011v.022h.01v.021h.012v.022h.01v.021h.011v.022h.011v.021h.011l.01.054.023.011v.033l.02.01v.022h.012v.032h.01l.022.065h.01v.022h.012v.021h.01v.022h.011v.021h.011l.01.044h.012l.01.043h.011v.032l.022.01v.033l.021.01v.033h.011v.022h.01l.012.043h.01v.022h.011v.021h.011v.022h.011v.021h.01v.022h.012l.032.097.022.01.032.098h.01l.012.043h.01v.022h.011v.021h.01v.022h.012v.021h.01v.022h.011l.011.043h.01v.022h.012v.032h.01v.022l.022.01.01.044h.012v.032h.01v.022h.011v.021h.011v.022h.01v.021h.012v.022h.01v.021h.011v.022h.011l.022.065h.01v.032h.011v.021l.022.011.021.076h.011l.011.043h.01v.021h.012v.023h.01v.02h.011v.022h.011v.022h.01l.011.043h.011v.022h.011v.032h.01v.022l.022.01v.022h.011v.032h.011v.022h.01v.022h.012v.021h.01v.022h.011v.021h.011v.022h.011v.021h.01v.022h.011v.021h.011v.022h.011v.022h.01v.032l.023.011v.022h.01v.02h.011v.033h.01l.023.065h.01v.022h.011v.021h.01v.022h.012l.01.043h.01a.345.345 0 01.012.043h.01v.033h.011v.021h.011v.022l.022.01v.033h.01v.021h.012v.022h.01v.022h.011v.021h.011v.022h.01v.021h.012v.022h.01v.021h.01c.012.033.023.065.033.098h.011v.021h.011v.022l.022.01.032.098h.011v.021h.01v.022h.011v.021h.011v.022h.01v.022h.012l.01.043h.011v.021h.011v.033l.022.01v.033h.01l.022.065h.01a.69.69 0 01.022.064h.011v.022h.011v.021h.011v.022h.01v.021h.012l.021.065h.01v.032h.012l.01.044h.011v.021l.022.011v.032h.01v.022h.011v.021h.011v.022h.01v.022h.012v.021h.01v.022h.011v.032l.022.011.01.043h.012l.01.043h.011v.033h.011v.021l.022.011.01.054h.011l.01.043h.012v.022h.01v.021h.011v.022h.011l.022.065h.01v.032h.011l.011.054h.011v.021h.01v.033h.011l.022.065h.01v.021h.012v.033h.01l.022.064h.01v.022h.012l.021.065.022.01v.022h.01v.021h.011v.022h.011v.022l.022.01.022.065.02.011v.022l.023.01v.022l.021.01v.022l.022.01v.023l.022.01v.022l.021.01v.022l.022.011v.022h.01l.011.032.022.011v.021l.043.033v.022l.032.02v.023l.054.043v.021l.043.033.011.032.13.119v.021l.075.065.011.021h.022l.097.108h.022l.053.065h.022l.032.043h.022c.01.015.022.03.033.043h.021l.022.033h.021l.022.032h.021l.011.022.033.01v.011h.021l.022.033h.022l.01.021h.022l.01.022.033.01v.011h.022v.011h.021a.543.543 0 00.011.022l.065.021.01.022.065.022.011.021h.032l.011.022h.022v.01h.021v.011h.022v.011h.022v.01h.021v.012h.022v.01l.065.022v.01h.032v.012l.043.01v.011h.033v.01c.014.005.028.008.043.012v.01h.032v.011h.022v.011h.032v.01c.014.005.029.008.043.012v.01l.076.011v.01h.021v.012l.076.01v.011h.032v.011h.033v.011h.032v.01l.108.023v.01l.097.01v.012h.033v.01h.064v.011h.044v.011h.043v.01l.119.012v.01h.064v.011l.14.011v.01l.238.012c.092.026.218.021.335.021h2.762c.007-.021-.001-.01.011-.021v-.087h-.01l-.022-.064h-.011v-.022h-.01v-.022h-.011v-.032h-.011l-.022-.065h-.01v-.021h-.012v-.022h-.01v-.021h-.011v-.022h-.011v-.021h-.01v-.022h-.012v-.022h-.01v-.021h-.011V28.9h-.011l-.022-.065h-.01v-.032h-.011l-.01-.043h-.012a3.934 3.934 0 01-.01-.043l-.022-.011v-.032h-.011v-.022h-.01v-.022h-.012v-.021h-.01v-.022h-.011v-.021h-.01v-.022h-.012l-.032-.097h-.01v-.022h-.012v-.021l-.021-.01v-.033h-.011v-.022h-.01v-.021h-.012v-.022h-.01v-.022h-.011v-.021h-.011v-.022h-.01v-.021h-.012l-.01-.044h-.011l-.011-.043h-.01v-.021h-.012v-.032h-.01v-.022h-.011v-.022a.87.87 0 00-.022-.01l-.01-.054h-.011l-.011-.043h-.011v-.022h-.01v-.022h-.011v-.021h-.011v-.022h-.01v-.021h-.012l-.01-.044h-.011v-.021h-.011v-.032h-.011v-.022h-.01v-.022l-.023-.01v-.033h-.01v-.021h-.011v-.022h-.011v-.022h-.01v-.021h-.011v-.022h-.011v-.021h-.011v-.022h-.01v-.022h-.012v-.021h-.01v-.022h-.011v-.021h-.011v-.033h-.01v-.021h-.012l-.01-.043h-.011v-.022h-.011v-.021h-.01v-.022h-.012v-.022h-.01v-.021h-.011l-.011-.043h-.01l-.012-.043h-.01l-.044-.12-.021-.01v-.032h-.011v-.022h-.01v-.022h-.012v-.021h-.01v-.022h-.01v-.021h-.012v-.022h-.01v-.021H84.1v-.033l-.022-.01v-.022h-.01v-.022h-.012v-.032l-.021-.01v-.033l-.022-.01-.01-.055h-.012l-.021-.065h-.011v-.021h-.01v-.022h-.011v-.021h-.011v-.033l-.022-.01v-.022h-.01v-.022h-.011a7.377 7.377 0 01-.033-.097l-.021-.01v-.033h-.011v-.021h-.01v-.022h-.012v-.022h-.01v-.021h-.012v-.022h-.01v-.021h-.011v-.033l-.022-.01-.01-.044h-.011l-.011-.043h-.01v-.032h-.012v-.022h-.01v-.021l-.022-.011v-.032h-.01v-.022h-.011v-.022h-.011v-.021h-.011v-.022h-.01v-.021h-.012v-.033a2.132 2.132 0 01-.021-.01l-.011-.044h-.01a3.863 3.863 0 01-.011-.043h-.012v-.032h-.01v-.022h-.01v-.021l-.022-.011v-.032h-.011v-.022h-.011v-.022h-.01v-.021h-.012v-.022h-.01v-.021h-.011v-.022h-.011v-.021h-.011v-.022h-.01v-.022h-.011v-.021h-.011v-.033h-.011l-.01-.043h-.012v-.021l-.021-.011a2.726 2.726 0 00-.011-.054h-.01v-.022h-.012v-.021h-.01v-.022h-.011v-.021h-.011v-.022h-.01v-.021h-.012l-.01-.044h-.011v-.021h-.011v-.033h-.01v-.021h-.011v-.022l-.022-.01v-.033h-.01v-.021h-.012v-.022h-.01v-.022h-.011v-.021h-.011v-.022h-.011v-.021h-.01v-.022h-.012v-.022h-.01v-.021h-.011v-.022h-.011v-.021h-.01v-.033h-.011v-.021h-.011v-.022l-.022-.01-.01-.055h-.012l-.01-.043h-.011v-.021h-.011v-.022h-.01v-.021h-.011v-.022h-.012v-.021h-.01l-.01-.044h-.012v-.021h-.01v-.033h-.011v-.021h-.011v-.022l-.022-.01v-.033h-.01v-.022h-.011v-.021h-.011v-.022h-.01v-.021h-.012v-.022h-.01v-.021h-.011v-.022h-.011v-.032l-.022-.011v-.022h-.01v-.021h-.011v-.033h-.011v-.021h-.01l-.012-.043h-.01v-.022h-.011v-.022h-.011v-.021h-.01v-.022h-.012v-.021h-.01a1.8 1.8 0 00-.011-.043h-.011a5.173 5.173 0 00-.01-.054 4.363 4.363 0 00-.022-.011v-.022h-.011v-.021h-.01v-.033h-.012v-.021h-.01v-.022h-.011v-.021h-.011v-.022h-.01v-.022h-.012v-.021h-.01v-.022h-.011v-.021h-.011v-.022h-.011v-.021h-.01v-.022h-.011v-.032l-.022-.011v-.022h-.01v-.032h-.012v-.022h-.01v-.021h-.011v-.022h-.011v-.021h-.01v-.022h-.012v-.022h-.01v-.021h-.011v-.022h-.011v-.021h-.011v-.022h-.01v-.021H82.2v-.033a1.449 1.449 0 01-.022-.01v-.033l-.022-.01v-.033a.487.487 0 01-.021-.011v-.032h-.01v-.022h-.012v-.021h-.01v-.022h-.011v-.022h-.011V22.6h-.011v-.022h-.01v-.021h-.012v-.022h-.01v-.022h-.011v-.032l-.022-.01v-.022h-.01l-.011-.044h-.011v-.032h-.01v-.021h-.012v-.022h-.01v-.022h-.011v-.02h-.011v-.023h-.011v-.021h-.01v-.022h-.012v-.021h-.01v-.022h-.011v-.021h-.011v-.022h-.01v-.032l-.022-.011v-.033l-.022-.01v-.033h-.01v-.021h-.011a1.817 1.817 0 01-.011-.044h-.011v-.021h-.01v-.021h-.012v-.022h-.01v-.022h-.011v-.021h-.011l-.01-.043h-.012l-.01-.054-.022-.011v-.022h-.01v-.021h-.012v-.033h-.01v-.021h-.011l-.011-.044h-.01v-.021h-.012v-.022h-.01v-.021h-.011v-.022h-.011v-.021h-.01l-.012-.043h-.01a6.523 6.523 0 00-.022-.076l-.022-.01v-.023h-.01v-.032h-.011v-.021h-.01l-.012-.043h-.01v-.022H81.4v-.022h-.011v-.021h-.01v-.022h-.012v-.021h-.01l-.011-.043h-.011l-.022-.076-.021-.01-.022-.076h-.01v-.022h-.012v-.022h-.01v-.021h-.011v-.022h-.01v-.021h-.012v-.022h-.01l-.011-.043h-.011v-.021h-.01a3.226 3.226 0 00-.012-.054l-.021-.011v-.022h-.011v-.022h-.01v-.032h-.012v-.021h-.01v-.022h-.011v-.021h-.011v-.022h-.01v-.022h-.012v-.021h-.01v-.022h-.011L81 20.378h-.01v-.033h-.011v-.021l-.022-.011-.01-.043h-.012v-.033h-.01l-.022-.064h-.01v-.022h-.012v-.022h-.01v-.021h-.011v-.033l-.022-.01v-.022h-.01v-.021h-.011v-.033h-.011v-.021h-.01v-.022l-.022-.01v-.033h-.011v-.022h-.011v-.021h-.01v-.022h-.012v-.021h-.01v-.022h-.011v-.022h-.011l-.01-.043h-.012l-.01-.043h-.011v-.022h-.011v-.032h-.01v-.021h-.012v-.022a.866.866 0 01-.021-.01v-.033h-.011v-.022h-.01v-.021h-.012v-.022h-.01v-.021h-.011v-.022h-.011v-.022h-.01v-.021h-.012v-.022h-.01l-.033-.097h-.01v-.021h-.011l-.011-.044h-.011v-.021h-.01v-.022h-.012v-.021h-.01v-.022h-.011v-.022h-.011v-.021h-.01l-.012-.054-.02-.01v-.022h-.012v-.022h-.01v-.021h-.01c-.028-.053-.034-.124-.076-.163.005-.075.097-.128.14-.172l.27-.28.065-.054.022-.033.032-.01.01-.033h.022v-.021l.033-.011a8.57 8.57 0 00.043-.055h.01v-.02h.022l.184-.195.324-.313.064-.075.13-.13c.02-.02.04-.029.054-.054h.022c.012-.044.007-.011.032-.032v-.01h.01c.053-.065.115-.115.173-.174l.615-.625h.022c.008-.03.003-.025.032-.032.016-.058.072-.072.108-.108.015-.015.03-.055.044-.065h.021l.065-.076.151-.14c.139-.139.266-.286.421-.41l.01-.032h.011l.044-.054h.021l.087-.097.216-.205.215-.226.206-.195.075-.086.065-.054.01-.021.033-.011v-.022c.044-.012.011-.007.032-.032h.011v-.011c.026-.021.021.012.033-.032.058-.016.091-.081.13-.12h.01l.291-.301.206-.194.097-.108h.021l.065-.087h.022l.431-.442a.48.48 0 00.043-.032l.206-.216c.038-.038.09-.07.118-.119h.022v-.021h.01c.02-.023.023-.007.033-.043.056-.015.103-.092.14-.13l.022-.01.302-.313.27-.26c.04-.043.08-.085.119-.129h.022l.01-.032h.011l.022-.033h.021l.432-.442.173-.162.086-.097c.043-.043.098-.075.13-.129h.021v-.021h.022l.054-.065h.01v-.022c.056-.015.142-.131.184-.173h.01l.314-.323c.048-.048.116-.09.15-.151h.022v-.022h.011l.065-.075c.03-.022.043-.013.054-.054.031-.008.036-.012.043-.043.056-.015.142-.131.184-.173h.01l.313-.323c.049-.049.117-.091.152-.152h.022c.014-.055.07-.073.096-.118h.022c.013-.044.008-.012.032-.032v-.011h.011l.011-.033c.025-.02.02.012.032-.032h.022l.194-.205.313-.302.076-.086.13-.13c.019-.02.039-.029.053-.054h.022v-.021l.032-.011c.014-.018.03-.036.043-.054h.011v-.022c.048-.012.067-.055.097-.086l.162-.162c.026-.025.057-.043.076-.075h.01v-.011c-.046-.017-.13-.01-.194-.01V8.11zm2.396 0c-.052 0-.211-.012-.237.011-.023.024-.01.053-.022.086h-.01v.033h-.012v.032h-.01v.043h-.011l-.011.097h-.01v.022h-.012l-.01.108h-.011v.032h-.011v.033h-.01v.032h-.012l-.01.097h-.011v.033h-.011v.032h-.011l-.01.108h-.011v.021h-.011v.043h-.01v.033H92.7v.064h-.01v.033h-.011v.021h-.011v.065h-.011v.043h-.01v.033h-.012v.032h-.01v.032h-.011l-.011.097h-.01v.022h-.011l-.011.108h-.011v.022h-.01v.043h-.012v.043h-.01l-.011.097h-.011v.032h-.011v.033h-.01v.064h-.012v.033h-.01v.032h-.011v.033h-.01l-.012.096h-.01v.033h-.011v.032h-.011l-.01.108h-.012v.033h-.01v.032h-.011v.032h-.011v.054h-.01v.043h-.012l-.021.13h-.011v.032h-.01v.032h-.012v.044h-.01l-.011.097h-.011v.032h-.01v.032h-.012v.065h-.01v.033h-.011v.032h-.011v.032h-.01a19.27 19.27 0 00-.012.097h-.01v.033h-.011v.032h-.011v.065h-.01v.032h-.011v.033h-.011v.043h-.011l-.01.086h-.012v.043h-.01v.033h-.011l-.011.097c-.01.03-.03.055-.033.097h3.594c.01-.05.03-.098.043-.14v-.054h.011v-.033h.011v-.032h.01l.012-.097h.01v-.033h.011v-.032h.011v-.043h.01v-.054h.012v-.033h.01v-.032h.011v-.054h.01c.005-.028.008-.057.012-.086h.01v-.032h.011v-.033h.011v-.065h.011v-.032h.01v-.032h.011v-.043h.012l.02-.13h.012v-.021h.01l.011-.108h.011v-.022h.01l.022-.14h.011v-.033h.011v-.032h.01v-.032h.012v-.065h.01v-.032h.011v-.033h.011l.01-.097h.012v-.032h.01v-.032h.011V9.89h.011l.01-.097h.012v-.021h.01l.011-.108h.011v-.032h.01V9.6h.012v-.032h.01v-.054h.011V9.47h.011v-.033h.01v-.043h.012l.01-.097h.011v-.032h.011v-.033h.01V9.2h.012v-.065h.01v-.032h.011V9.07h.011l.01-.097h.012v-.032h.01V8.91h.011v-.033h.011v-.064h.01V8.78h.012v-.032h.01v-.054h.011c.004-.029.008-.058.01-.086h.012v-.033h.01v-.032h.011l.011-.097h.01v-.033h.012v-.032h.01v-.065h.011l.011-.065h.01V8.22l.022-.01v-.1h-3.345zm-53.508 9.384h-.01c-.02.072.008.19-.011.26v.14h-.011v.085h-.011v.108h-.01v.076h-.012v.075c-.026.09-.037.205-.064.292v.054h-.011v.032h-.011v.032h-.01l-.012.108h-.01v.032h-.011v.033h-.011v.054h-.01v.032h-.012v.033h-.01v.032h-.011l-.011.086h-.01v.033h-.012v.021h-.01v.033h-.011v.032h-.01v.032h-.012v.033h-.01v.032h-.011v.022h-.011v.032h-.011l-.01.065h-.012v.021h-.01v.033h-.011v.021h-.011v.033h-.01v.021h-.011v.033h-.011l-.011.043h-.01v.032h-.011v.022h-.012v.032l-.021.01v.033h-.011v.022h-.01l-.011.043h-.011v.032h-.011v.022h-.01l-.012.043h-.01v.022h-.011v.021h-.011v.022h-.01v.022h-.012v.021h-.01v.022h-.011v.021H39v.022h-.012v.021h-.01v.022h-.011v.021l-.022.011v.022h-.01v.021h-.012v.022h-.01v.022h-.011v.021l-.022.011v.021h-.01v.022h-.011v.022h-.011v.021l-.022.011a1.514 1.514 0 01-.01.043l-.022.011a1.174 1.174 0 01-.011.043.483.483 0 01-.022.01l-.01.044-.022.01-.01.044-.022.01-.01.033h-.012a1.817 1.817 0 00-.01.043l-.022.011v.022l-.022.01v.022l-.021.01v.022l-.022.011v.022l-.032.021v.022a2.19 2.19 0 00-.022.01l-.01.033h-.012v.021l-.021.011v.022l-.032.021-.011.033-.022.01V21a.87.87 0 00-.021.011v.021l-.033.022v.022l-.032.021v.022l-.044.032v.022l-.032.021v.022a8.1 8.1 0 01-.043.033l-.01.032-.023.01v.022l-.064.054v.022l-.022.01v.011l-.032.022v.021l-.076.065v.022l-.108.097v.021h-.01l-.033.044c-.04.039-.148.118-.162.172-.03.008-.024.003-.032.033-.048.013-.067.055-.097.086l-.087.075a.48.48 0 01-.032.043H37.4l-.086.098h-.022l-.054.064h-.021l-.054.065h-.022l-.043.054h-.022l-.043.054h-.021l-.033.043h-.021l-.011.022-.032.01-.033.044h-.021l-.011.021h-.022l-.01.022-.033.01-.022.033h-.021l-.022.032-.032.011-.011.021h-.022a.618.618 0 01-.01.022h-.022l-.022.032h-.021l-.011.022-.032.01v.012h-.022l-.01.021-.033.011v.01h-.022a.483.483 0 00-.01.022h-.022l-.01.022h-.022l-.011.022a3.893 3.893 0 01-.043.01v.011a2.05 2.05 0 01-.033.01l-.01.022h-.022a.621.621 0 01-.011.022l-.043.01-.011.022h-.022v.011h-.021l-.011.022-.032.01v.012h-.033l-.01.021-.044.01a.621.621 0 00-.01.023l-.044.01v.01h-.021v.012h-.022v.01h-.022l-.01.022h-.022v.01h-.021v.012h-.022v.01h-.022v.011h-.021l-.011.022h-.032v.01h-.022l-.01.022h-.033a.734.734 0 01-.011.022l-.054.01a1.1 1.1 0 01-.01.022h-.033v.01h-.022l-.01.022h-.033v.011h-.022v.011a4.47 4.47 0 01-.064.022v.01h-.032v.011l-.044.011v.01h-.032v.012l-.043.01v.011h-.033v.011l-.043.01v.011h-.032v.011a2.725 2.725 0 00-.044.011v.01c-.021.005-.043.008-.064.012v.01h-.022v.011l-.097.022v.01h-.021v.011l-.098.022v.01h-.02v.012h-.043v.01h-.022v.011h-.032v.011h-.044v.01h-.021v.011h-.043v.011h-.033v.01h-.032v.012h-.043c-.133.047-.295.074-.432.118l-.162.022v.01h-.065v.012h-.054v.01h-.065v.011h-.097v.011h-.065v.01l-.226.012c-.123.035-.3.021-.453.021-.152 0-.333.012-.454-.021h-.118v-.011h-.087v-.01h-.075v-.012h-.065v-.01h-.065v-.011h-.054v-.011h-.065v-.01h-.043v-.012h-.054v-.01l-.086-.011v-.011l-.087-.01v-.012l-.075-.01v-.011h-.032v-.011h-.044v-.01h-.021v-.012l-.065-.01v-.011h-.032v-.011h-.033v-.01h-.032v-.012h-.033v-.01h-.02v-.011l-.066-.01v-.012h-.021v-.01h-.033v-.011l-.043-.011v-.01h-.033v-.012l-.064-.021v-.011h-.022v-.01h-.021v-.012h-.022v-.01l-.054-.011-.01-.022-.044-.01v-.011h-.022v-.011h-.02v-.01h-.023v-.012h-.021v-.01h-.022l-.01-.022-.044-.01-.01-.022a1.366 1.366 0 01-.033-.011v-.011l-.043-.01-.01-.022-.033-.011v-.01l-.044-.012v-.01l-.032-.011-.01-.022h-.022l-.022-.032h-.021l-.011-.022h-.022a3.037 3.037 0 00-.021-.032h-.022a2.025 2.025 0 00-.022-.033h-.021a5.996 5.996 0 01-.033-.043h-.021a37.016 37.016 0 00-.054-.064h-.022l-.054-.065h-.021v-.011l-.044-.032c-.049-.05-.113-.14-.172-.173v-.022h-.022c-.01-.038-.041-.058-.065-.086h-.01v-.021l-.022-.011v-.01l-.032-.023v-.021l-.043-.032v-.022a4.532 4.532 0 01-.033-.021V22.5l-.032-.022v-.021l-.033-.022a5.411 5.411 0 01-.01-.043l-.022-.01v-.022l-.032-.022v-.021l-.022-.012-.01-.042-.023-.011a2.044 2.044 0 01-.01-.033h-.011l-.01-.043-.022-.01v-.022h-.011v-.022h-.011v-.021h-.01v-.022h-.012v-.021l-.021-.011v-.022h-.011v-.021h-.01v-.022h-.012v-.022h-.01v-.021h-.011v-.022h-.01v-.021h-.012v-.022h-.01a7.026 7.026 0 00-.022-.064h-.011v-.033h-.01v-.021h-.012v-.033h-.01l-.011-.043h-.011l-.01-.065h-.011v-.021h-.011l-.011-.065h-.01v-.022h-.012l-.021-.108h-.011v-.032h-.01v-.032h-.012v-.033h-.01l-.011-.086h-.011v-.032h-.01v-.054h-.012v-.044h-.01v-.053h-.011v-.054h-.011v-.044h-.01v-.064c-.03-.095-.027-.226-.055-.324v-.13c-.015-.053-.01-.144-.01-.215 0-.128-.02-.301.01-.41l.011-.237h.01v-.086h.012v-.087h.01v-.075c.026-.082.04-.198.065-.28v-.054h.011l.021-.13h.011V18.8h.011v-.033h.01v-.032h.012v-.065h.01v-.032h.011l.022-.108h.01v-.03h.012v-.033h.01v-.032h.01l.023-.097h.01v-.021h.011l.022-.098h.01v-.021h.012l.021-.097h.01l.022-.065h.011v-.043h.011l.022-.065h.01v-.032h.011l.01-.043h.012v-.022h.01v-.033h.011l.022-.064h.01v-.022h.012v-.021h.01v-.033h.011l.022-.064h.01v-.022h.011v-.022h.011l.022-.064.021-.011v-.032h.01v-.022l.023-.01v-.023h.01v-.021h.011v-.021h.011v-.022h.01V17.3l.023-.01.021-.065.021-.011.012-.043.02-.011c.005-.014.008-.029.012-.043l.021-.01.011-.044.022-.01.01-.044.022-.01v-.022h.01v-.022l.033-.021.011-.044.022-.01v-.022l.021-.01v-.022l.022-.011v-.022l.021-.01v-.022l.022-.011v-.022h.01l.012-.032a.617.617 0 01.021-.01v-.022l.044-.033v-.021l.021-.011.01-.032h.012v-.022a1.81 1.81 0 00.032-.022v-.021l.032-.021v-.022l.033-.022v-.021l.032-.022v-.021l.043-.033v-.021l.054-.044v-.021a8.1 8.1 0 00.043-.032V16.2l.055-.043v-.022l.053-.043v-.021l.087-.076v-.022l.108-.097c.072-.1.162-.173.248-.259l.119-.13h.022l.13-.14h.02l.044-.053h.021l.054-.065h.022l.054-.065h.021l.033-.043h.021l.033-.043h.021l.044-.054h.021l.022-.032.032-.011.011-.022h.021l.011-.021h.022l.022-.033.032-.01a.62.62 0 00.01-.022h.022l.011-.022h.022l.021-.032.033-.01.01-.022h.022l.01-.022.033-.01v-.011h.022l.01-.022h.022l.011-.022a2.05 2.05 0 00.032-.01v-.011h.022l.01-.022h.022l.011-.021h.022l.01-.022.044-.01.01-.022h.022v-.01h.022l.01-.023.033-.01v-.011l.043-.01.01-.023.044-.01.01-.022.044-.01a.87.87 0 00.01-.022h.022v-.011l.065-.022.011-.021h.022v-.011h.021v-.01h.022v-.012h.021l.011-.021h.022v-.011h.021v-.01h.022v-.012h.022v-.01h.021v-.011h.022v-.01h.021v-.011h.022v-.011h.021v-.011l.043-.01v-.012l.044-.01v-.011h.021v-.011h.022v-.01h.032l.011-.022h.022v-.011h.032v-.011l.043-.01v-.012h.033a4.22 4.22 0 01.01-.021h.033v-.011h.022v-.01h.032v-.012l.043-.01v-.011h.022v-.01h.032V14h.021v-.01l.065-.011v-.011h.022v-.01c.021-.005.043-.008.065-.012v-.01h.021v-.011l.065-.011v-.01h.022v-.012h.043v-.01h.021v-.011l.065-.011v-.01h.033v-.012h.032v-.01h.032v-.011h.033v-.011h.043v-.01h.032v-.011h.033v-.011l.075-.011v-.01l.119-.023v-.01l.097-.011v-.01h.033v-.011l.14-.022v-.011h.065c.09-.028.208-.037.302-.065h.086v-.01h.076v-.011h.097v-.011h.13v-.01h.118c.11-.032.31-.011.443-.011h.183v.01h.12v.01h.118v.012h.097v.01h.065v.011h.075v.011h.065c.109.033.242.051.345.086l.087.011.496.173v.01l.043.011v.011h.033v.01l.065.022v.011h.021v.011h.022v.01h.021v.012l.173.075.01.022.044.01a.87.87 0 01.01.022l.044.011.01.022.044.01.01.022.044.01.01.022h.022l.022.033h.021l.011.021h.022l.01.022h.022l.022.032h.021l.022.032h.022l.021.033h.022l.032.043h.022l.043.054h.022l.053.065h.022l.173.183.065.054v.022l.075.064v.022l.054.043v.022l.032.021v.022l.033.021v.022l.021.01.011.033.043.032v.022l.022.01v.022l.022.011.01.033h.011v.021l.022.01.01.044.022.01.01.033h.012l.01.043a.72.72 0 01.022.011v.022h.01v.021h.012v.022h.01v.021a.73.73 0 00.022.011v.022h.01v.021h.012v.022h.01v.022h.011v.021h.011v.022h.01v.021h.012v.022h.01l.022.065h.01v.032h.012l.01.043h.011v.032h.011l.01.044h.012v.032h.01v.022h.011l.01.064h.012v.022h.01l.011.065h.011v.032h.01v.032h.012l.021.108h.011v.043h.01v.044h.012v.032h.01v.043h.011v.054h.011v.054h.01v.043h.012v.043h.01v.065h.011v.065h.011v.075h.01v.087h.012l.01.226h.011v.259h.011v.119zm4.36 3.538h.01c.005-.014.008-.029.012-.043h.01v-.022h.011v-.021h.011l.022-.065h.01v-.032h.011l.022-.065h.01v-.022h.012v-.021h.01v-.033h.011l.011-.043h.01v-.021h.012v-.032h.01l.011-.044h.01v-.032h.012l.01-.043h.011v-.033h.011l.022-.064h.01v-.043l.022-.011v-.033h.011v-.021h.01l.012-.054h.01v-.032h.011v-.022h.011v-.033h.01v-.021h.012l.01-.065h.011l.011-.043h.01v-.032h.012v-.033h.01v-.021h.01l.012-.065h.01l.011-.065h.011v-.021h.011l.01-.065h.011v-.022h.012v-.032h.01v-.032h.01v-.033h.012v-.032h.01v-.032h.011V19.5h.011v-.032h.01v-.033h.012l.01-.075h.011v-.021h.011v-.033h.01l.033-.14h.011v-.043h.01v-.033h.012v-.032h.01v-.054h.011v-.032h.011v-.033h.01v-.032h.012l.01-.097h.011v-.032h.011v-.033h.01l.012-.097h.01v-.032h.011v-.044h.011v-.043h.01v-.043h.012v-.054h.01V18.4h.011l.011-.108c.035-.111.051-.256.086-.367v-.065c.03-.096.037-.227.065-.323v-.087c.03-.1.024-.242.054-.345v-.118h.01v-.119h.012v-.14h.01v-.151h.011v-.292a1.723 1.723 0 000-.485v-.28h-.01v-.173h-.011v-.108h-.011v-.13h-.011v-.107h-.01v-.087h-.012v-.075h-.01v-.086c-.017-.06-.026-.147-.043-.206v-.064h-.011a10.54 10.54 0 00-.011-.13c-.037-.12-.057-.27-.097-.388L45 13.87c-.064-.19-.111-.402-.184-.582v-.033h-.01v-.032h-.011v-.032h-.011v-.033h-.01v-.032h-.012v-.022h-.01a4.861 4.861 0 00-.011-.065h-.011v-.021h-.01l-.012-.065h-.01v-.021h-.011l-.01-.065h-.012a1.947 1.947 0 00-.01-.043h-.011v-.033h-.011l-.011-.043h-.01v-.032H44.6v-.022h-.01l-.01-.043h-.012v-.032h-.01v-.022h-.011v-.032h-.011l-.011-.043h-.01V12.5h-.011v-.032l-.022-.011a2.148 2.148 0 01-.01-.054h-.012l-.021-.065h-.011a3.028 3.028 0 01-.01-.043l-.022-.01v-.033h-.011v-.022h-.011v-.021l-.022-.011-.01-.043h-.011v-.022h-.011v-.021h-.01v-.022h-.012v-.021h-.01v-.022l-.022-.01v-.023h-.01v-.021h-.012v-.022h-.01v-.02l-.022-.012-.022-.065-.021-.01-.011-.044-.022-.01a4.52 4.52 0 01-.01-.043l-.022-.011v-.022h-.01v-.021h-.012v-.022l-.032-.022v-.021l-.021-.011-.011-.032h-.011a1.817 1.817 0 01-.01-.044.395.395 0 01-.022-.01v-.022l-.022-.01v-.022a.873.873 0 01-.022-.011v-.022a.873.873 0 01-.021-.01v-.022a2.173 2.173 0 01-.022-.01V11.4h-.01a1.366 1.366 0 01-.011-.033l-.022-.01v-.022a2.025 2.025 0 01-.032-.022l-.011-.032-.022-.01v-.022l-.021-.011v-.022l-.033-.021v-.022l-.032-.022v-.02a2.558 2.558 0 00-.043-.033l-.011-.033-.022-.01v-.022L43.575 11v-.022l-.065-.054v-.022l-.043-.032v-.022l-.065-.053v-.022l-.064-.054-.011-.032a42.216 42.216 0 00-.14-.13v-.021l-.195-.184-.075-.086h-.022v-.011a4.396 4.396 0 01-.043-.032l-.076-.087h-.021v-.01c-.025-.021-.04-.045-.076-.054v-.022c-.035-.01-.05-.033-.076-.054v-.01h-.021l-.032-.044h-.022l-.033-.043h-.02l-.033-.043h-.022a15.925 15.925 0 00-.043-.054h-.022l-.01-.022h-.022l-.01-.021a1.28 1.28 0 00-.033-.01l-.033-.044h-.021a1.98 1.98 0 01-.022-.033h-.022l-.01-.021h-.022l-.021-.032h-.022a.767.767 0 00-.01-.022l-.033-.01v-.011h-.022v-.011l-.032-.011-.011-.022h-.022l-.021-.032h-.022a2.868 2.868 0 00-.01-.021h-.022l-.01-.022-.033-.01v-.012a1.841 1.841 0 01-.044-.01.604.604 0 01-.01-.022l-.033-.01v-.012l-.043-.01-.01-.022-.033-.01v-.012l-.043-.01-.011-.022a10.929 10.929 0 01-.065-.022l-.01-.021h-.022v-.01h-.022l-.01-.023h-.022v-.01h-.022v-.011h-.021v-.01h-.022a1.351 1.351 0 01-.01-.023h-.023v-.01h-.021v-.011h-.022v-.01c-.014-.005-.028-.008-.043-.012l-.01-.021-.044-.011v-.01h-.021v-.012H41.2v-.01h-.022v-.011h-.021v-.01l-.043-.012v-.01l-.043-.011v-.011h-.022v-.01h-.022v-.012h-.021v-.01a163.57 163.57 0 00-.065-.022v-.01h-.033v-.012h-.02v-.01h-.023v-.011l-.043-.01v-.012h-.032v-.01h-.022v-.011a7.086 7.086 0 01-.064-.022v-.01h-.033V8.81l-.054-.011v-.011a4.23 4.23 0 00-.043-.01v-.012h-.032v-.01h-.022v-.011l-.065-.011v-.01h-.021v-.012H40.4v-.01h-.022v-.011l-.064-.01V8.67h-.022v-.01a7.15 7.15 0 01-.064-.011v-.011h-.022v-.01h-.032v-.012h-.033v-.01h-.032v-.011h-.033v-.011h-.032v-.01h-.032v-.012h-.033v-.01h-.032V8.54l-.14-.033v-.01l-.108-.022v-.01l-.713-.173-.755-.119h-.108v-.011h-.108v-.01h-.108v-.011h-.173V8.13l-.28-.01h-.14a1.952 1.952 0 00-.53 0h-.14l-.291.01v.01l-.303.012v.01h-.097v.011h-.13v.01h-.075v.012h-.097v.01h-.087c-.083.024-.199.03-.28.054l-.14.011v.01l-.13.012v.01h-.054v.011h-.054v.011h-.065v.011H34.8v.01l-.118.012c-.132.041-.292.063-.421.107l-.098.011v.01l-.118.022v.011h-.033v.011h-.054v.01h-.032v.012h-.032v.01h-.054v.011l-.184.043v.011l-.108.022v.01h-.032v.011h-.033v.011h-.032v.01h-.033v.012h-.032v.01h-.043v.011h-.032v.011h-.033v.01h-.032v.012h-.032v.01h-.033v.011h-.032v.01l-.098.023v.01h-.021v.01a4.393 4.393 0 01-.065.012v.01h-.032v.011H32.9v.011h-.032v.011h-.021v.01l-.065.012v.01h-.022v.011l-.054.01v.012h-.043v.01l-.043.011v.011h-.033v.01h-.021v.012l-.065.01v.011h-.022v.011h-.032v.01l-.054.012v.01h-.022v.011h-.032v.01h-.022v.012h-.032v.01l-.043.011v.011h-.032v.01l-.044.012v.01h-.032v.011h-.022v.011h-.032v.01l-.043.012v.01h-.033v.011l-.064.022v.01h-.022v.011h-.022v.011h-.032v.011l-.065.022v.01h-.021v.011h-.033v.011a4.801 4.801 0 00-.064.022v.01h-.022v.011h-.022v.01l-.043.012v.01l-.054.011a1.527 1.527 0 00-.01.022h-.033v.01h-.022v.012h-.021v.01l-.043.011v.01h-.022v.011h-.022v.011h-.021v.011h-.022v.01h-.021v.012l-.043.01v.011h-.022v.011h-.022v.01h-.021v.012h-.022l-.01.021h-.033l-.01.022a2.39 2.39 0 01-.044.01v.011h-.021v.011h-.022v.01h-.022v.012h-.021v.01h-.022l-.01.022h-.022v.01h-.022v.012h-.021v.01h-.022v.011h-.022a.734.734 0 01-.01.022h-.022v.01h-.022v.011h-.021v.011h-.022v.011h-.021l-.011.022h-.033l-.01.021-.044.01-.01.022-.044.011-.01.022-.044.01a.604.604 0 00-.01.022l-.065.022-.01.021h-.023v.011h-.021l-.01.022-.044.01-.01.022-.044.01-.01.022-.044.011a2.177 2.177 0 01-.01.022l-.044.01-.01.022-.044.011-.01.022h-.022l-.011.021h-.022l-.01.022h-.022l-.01.021-.044.011-.01.022h-.022a2.173 2.173 0 00-.011.021h-.022l-.01.022h-.022l-.011.021-.043.011-.011.022h-.022l-.01.021h-.022a1.073 1.073 0 01-.01.022h-.023a1.085 1.085 0 01-.01.021h-.022l-.01.022h-.022l-.01.021h-.023l-.01.022h-.022v.011l-.032.01a1.439 1.439 0 00-.011.022h-.022l-.021.033h-.022a.548.548 0 00-.01.021h-.022l-.022.033h-.021l-.011.021-.033.01v.012h-.021l-.01.021h-.023l-.021.033-.032.01-.012.022h-.021l-.01.022h-.022l-.022.032h-.022l-.021.032h-.022l-.01.022h-.022l-.011.021-.032.011-.033.043h-.021l-.022.033h-.021l-.022.032h-.022l-.021.033h-.022l-.032.043h-.022l-.021.032h-.022l-.022.032h-.021l-.032.044h-.022l-.032.043h-.022l-.043.054h-.022a9.72 9.72 0 01-.032.043h-.022l-.043.054h-.022l-.043.054h-.021l-.044.054h-.021l-.043.054h-.022l-.065.075h-.021l-.054.065h-.022l-.075.086-.033.01-.065.077h-.021l-.13.14h-.021l-.12.13c-.014.01-.028.02-.042.032l-.011.021h-.022l-.194.205c-.072.072-.166.135-.216.227h-.022c-.02.073-.11.088-.129.162h-.022v.021l-.032.022-.086.097-.022.01v.022l-.075.065v.022l-.098.086v.021l-.086.076v.021l-.054.044v.021l-.065.054v.022l-.021.01v.011l-.033.022v.021a5.4 5.4 0 00-.043.033v.021l-.054.044v.02a3.24 3.24 0 01-.043.033v.022l-.043.032v.022l-.043.032v.022l-.044.032v.022l-.043.032v.022l-.021.01-.011.033-.043.032v.022l-.032.021v.022l-.033.021v.022l-.032.022v.021a.868.868 0 00-.033.022v.021l-.032.022v.021l-.033.022v.022l-.021.01v.022l-.032.022v.021l-.033.022v.021l-.022.011v.022l-.032.021v.022l-.022.01-.01.033h-.011v.022l-.022.01v.022l-.032.022-.011.032-.021.01-.011.044-.022.01v.022l-.032.022-.011.043-.033.022v.021l-.021.011v.021l-.021.011-.011.033h-.011a3.028 3.028 0 00-.01.043l-.033.021-.011.043-.022.011-.01.033h-.011l-.011.043-.022.01v.022l-.021.011-.011.043-.033.022-.021.064-.022.011-.01.044-.022.01v.022h-.01v.021l-.022.011-.011.033h-.011a5.45 5.45 0 01-.01.043l-.023.01-.021.065-.022.01v.022h-.01v.022h-.011v.022a2.173 2.173 0 00-.022.01l-.01.033h-.011v.021h-.011v.022h-.011v.021h-.01v.022l-.023.01v.022h-.01v.022h-.011v.022h-.01v.021l-.023.011v.022h-.01v.021h-.01v.022h-.012v.021l-.021.011-.011.043h-.01v.022h-.012v.021h-.01v.022h-.011v.022h-.011v.021l-.022.011-.01.054-.022.01v.022h-.01v.022h-.012v.021h-.01v.022h-.011v.022h-.011v.021h-.01v.022h-.012v.021h-.01v.022H24.5v.021h-.011l-.01.044h-.012l-.01.043h-.011a5.413 5.413 0 01-.022.064h-.01a1.956 1.956 0 01-.011.044h-.011v.032h-.011l-.022.065h-.01v.021h-.011v.033a1.465 1.465 0 01-.022.01v.022h-.01v.032h-.011l-.011.044h-.01v.032h-.012l-.01.043h-.011v.022h-.011v.032h-.011l-.01.043h-.011v.032h-.011l-.011.044h-.01v.021h-.012v.033h-.01l-.011.043h-.011l-.01.064H24.1l-.01.044h-.011v.032h-.011l-.01.043h-.012v.043h-.01l-.011.043h-.011l-.01.065h-.012l-.01.054h-.011v.022h-.011l-.01.065h-.012v.021h-.01v.043h-.011l-.011.054h-.01v.022h-.012l-.021.097h-.011l-.01.065h-.012v.021h-.01v.032h-.011v.044h-.011v.032h-.01v.032h-.011v.032h-.011v.033h-.011v.032h-.01v.033h-.012l-.01.075h-.011v.022h-.011v.032h-.011l-.01.086h-.011v.033h-.011v.032h-.011l-.032.151h-.011l-.011.108h-.01v.022h-.012l-.01.086a9.272 9.272 0 00-.054.162v.065h-.011v.032h-.01l-.012.097h-.01v.054c-.02.064-.034.152-.055.216v.054c-.021.07-.032.166-.053.237v.076c-.034.112-.032.263-.065.377v.086h-.011v.087h-.011v.118h-.01v.12h-.012v.129h-.01v.183h-.011v.28a1.644 1.644 0 000 .475v.28h.01v.184h.011v.108h.011v.108h.01v.118h.012v.087h.01v.086h.011v.076h.011v.075h.011l.01.13h.012l.01.129c.03.099.045.218.076.313l.01.108h.012v.032h.01l.011.097h.011l.022.119h.01v.043h.011l.011.075h.01v.033h.011v.043h.011v.032h.011v.044h.011v.021h.01l.044.183h.01v.022h.012v.033h.01v.032h.01v.032h.012v.032h.01v.022h.011l.022.097h.01l.012.054h.01v.022h.011l.01.065h.012l.01.043h.011v.032h.011l.01.054h.012v.022h.01v.032h.011l.011.043h.01v.022h.012v.032h.01l.022.065h.01v.021h.012l.01.054.022.011v.032h.01v.022h.012v.021h.01v.022h.011v.022h.011v.021h.01v.022h.012v.021h.01v.022h.011v.022h.011v.021h.01v.022h.012v.021l.021.011v.032l.022.011.022.065.02.01v.022h.012v.022h.01v.021h.011v.022h.011v.022a.711.711 0 01.022.01l.01.033h.011v.021h.011v.022h.011v.021h.01v.022h.011l.011.033.022.01.01.043.022.011v.022l.022.01v.022l.021.011.011.043c.008.004.015.008.022.01v.022l.022.011v.022l.021.01v.022h.01l.012.032.021.011v.022l.033.022v.021a.621.621 0 00.021.01l.011.033h.01v.022l.033.021v.022l.033.021v.022l.021.01v.022l.032.022v.022l.044.032v.022l.043.032v.021l.043.033v.021c.01.008.022.015.033.022v.022l.064.054v.021l.022.011v.01l.032.022v.022l.087.075v.022l.086.075c.078.108.177.188.27.281.038.038.071.103.13.119v.021c.035.01.08.061.108.086a.543.543 0 00.01.022h.022l.043.054h.022l.043.054h.021l.055.065h.02l.044.054h.022l.032.043h.022l.021.032h.022l.032.043h.022l.01.022.033.01v.011h.022l.032.044h.022l.01.021.033.011v.01h.021l.022.033h.022l.021.032h.022l.01.022.033.01v.012h.021l.011.021h.022l.01.022h.022l.011.021.032.011v.01l.044.012.01.021.033.011v.011l.043.01.01.022.044.011.01.022.033.01v.011h.021v.01h.022a.878.878 0 00.011.023h.022v.01h.021v.011h.022v.011h.021l.011.021.043.011.011.022h.032l.011.021.065.022.011.022h.032l.011.021h.022v.01h.021v.012h.022v.01h.022v.011h.021v.011h.022v.01h.021v.012h.022v.01h.022v.011h.021v.011l.065.021v.011l.097.033v.01l.065.022v.01h.032v.012h.022v.01h.032v.011l.043.011v.01h.022v.012h.032v.01h.022v.011h.032v.011l.043.01v.012l.065.01v.011h.022v.011h.032v.01h.022v.012l.064.01v.011h.022v.01l.097.023v.01h.022v.011l.065.01v.012h.032v.01h.032v.011h.033v.011h.032v.01h.033v.011h.032v.012h.043v.01l.14.033v.01h.033v.011h.032v.01l.087.012v.01h.032v.011h.043v.011h.043v.01h.044v.011l.086.011v.011l.086.01v.012l.756.14h.075v.01h.087v.012h.075v.01h.097v.011h.108v.011h.098v.01l.496.022c.072.02.19.011.28.011h.562v-.01h.173v-.011h.172v-.011h.173c.114-.033.276-.022.389-.054h.107c.108-.031.25-.034.356-.065h.076v-.01h.054v-.012h.065v-.01h.075v-.011h.043v-.01l.12-.01c.061-.02.143-.035.204-.055h.054c.168-.053.367-.082.529-.14l.205-.043v-.011l.076-.01v-.011h.032v-.011h.032v-.01h.044v-.012h.043v-.01h.032v-.011h.044v-.011h.02v-.01h.033v-.012h.043v-.01h.033v-.011h.032v-.01h.033v-.012l.064-.01v-.011h.033v-.011h.032v-.011h.033v-.01h.032v-.011h.032v-.011h.033v-.011l.097-.022v-.01h.021v-.011l.065-.011v-.01h.022v-.012h.043v-.01l.043-.011v-.011h.043v-.01h.022v-.012l.065-.01v-.011l.054-.01v-.012h.021v-.01l.065-.011v-.011l.043-.01v-.012h.033v-.01h.021v-.011h.033v-.011l.043-.01v-.012h.032v-.01l.043-.011v-.01l.065-.012v-.01l.043-.011v-.011h.033v-.01h.021v-.012h.033l.01-.021h.033v-.011l.043-.01v-.012h.032v-.01l.044-.011v-.011h.021v-.01h.032v-.012l.044-.01v-.011h.021v-.011h.022v-.01h.032v-.012l.065-.021v-.01h.022v-.012h.021v-.01h.022V28.1l.054-.011.01-.022.055-.01v-.011l.065-.022v-.01h.02v-.011h.023v-.011h.021v-.011h.022v-.01h.021v-.012h.022l.01-.021h.033v-.011h.022l.01-.021.098-.033.01-.021h.033l.01-.022.065-.021.011-.022h.033l.01-.022.044-.01.01-.022h.033l.01-.021.065-.022.011-.022h.032l.011-.021.065-.022.01-.021h.023v-.011h.021v-.011h.022l.01-.022.065-.021.011-.022.043-.01.011-.022.065-.022a.543.543 0 01.01-.021h.022v-.011h.022l.01-.022.033-.01v-.011l.043-.011.01-.022h.023v-.01h.02l.012-.022.032-.01V27.3l.043-.01.011-.022h.022l.01-.021h.022l.011-.022.043-.01a.334.334 0 01.011-.022h.022v-.011h.021l.011-.022h.022l.01-.021h.022l.01-.022h.022l.011-.022h.022l.01-.021h.022l.011-.022h.021l.011-.021h.022l.01-.022h.022l.01-.021h.023l.01-.022h.022v-.01l.032-.012.011-.021h.022l.021-.033h.022l.01-.021h.022l.011-.022.032-.01v-.011h.022l.01-.022h.023l.021-.032.032-.011.011-.022h.022a.85.85 0 01.01-.021h.022l.022-.033h.021a.257.257 0 00.022-.032h.021l.011-.021h.022l.01-.022.033-.01.022-.033h.021c.008-.01.015-.022.022-.033h.021l.022-.032h.022l.021-.032h.022l.022-.033h.021l.033-.043.032-.01a.87.87 0 01.01-.022h.022l.032-.043.033-.011a.719.719 0 00.01-.022h.022a.621.621 0 00.011-.021h.01a.621.621 0 00.012-.022h.021l.033-.043h.021l.033-.043h.021l.044-.054h.021l.043-.054h.022l.043-.054h.022l.043-.054h.021l.055-.064h.02l.055-.065h.022l.064-.076h.022v-.021c.037-.01.061-.042.086-.065l.011-.022h.022l.097-.108h.021l.13-.14h.021v-.021l.033-.011.021-.033.076-.064.335-.346c.037-.037.126-.098.14-.15h.022l.021-.044.108-.097v-.021l.119-.108v-.022l.086-.075v-.022l.076-.065v-.021l.064-.054v-.022l.076-.064v-.022l.054-.043v-.022a8.1 8.1 0 00.043-.032V24l.065-.054v-.021l.054-.044v-.021l.022-.01v-.012l.021-.01v-.022l.022-.01.01-.033.044-.032v-.022l.043-.032v-.022l.021-.01.011-.033.044-.032v-.022l.032-.022v-.021a.96.96 0 01.032-.022v-.021a.948.948 0 01.033-.022v-.021l.043-.033v-.021l.021-.011v-.022l.033-.021v-.022l.032-.022v-.021l.032-.022v-.021l.022-.011v-.022l.032-.021v-.022l.022-.01v-.022l.033-.022v-.021l.021-.011v-.022l.032-.021v-.022l.022-.01v-.022l.022-.011.01-.032h.011v-.022l.022-.01v-.022l.032-.022v-.021l.022-.011.01-.043.033-.022v-.022l.021-.01v-.022a1.46 1.46 0 00.022-.01l.01-.044.033-.021.011-.044.022-.01.01-.033h.011a3.45 3.45 0 01.011-.043l.022-.01v-.022l.021-.011v-.022l.022-.01.01-.044.022-.01.011-.033h.01l.011-.043.022-.01v-.022a.725.725 0 01.022-.011l.01-.043.022-.011.022-.065a.882.882 0 00.021-.01l.011-.044.022-.01.01-.044.022-.01.022-.065.021-.011.022-.065.022-.01v-.022h.01V21.8h.011v-.021h.01v-.022l.023-.01v-.022h.01v-.022l.022-.01.075-.173.022-.01v-.022h.01v-.022h.012v-.021h.01v-.022h.011V21.4h.011v-.021h.01v-.022h.012a1.92 1.92 0 01.01-.043l.022-.01v-.033l.022-.011v-.021h.01v-.022h.011v-.032h.011v-.022l.022-.01.021-.076.022-.011v-.033zm20.074.97h.01v-.032h.011v-.032h.011v-.054h.01l.022-.118h.011v-.033h.011l.01-.097h.011v-.021h.011v-.054h.011v-.044h.01v-.032h.012v-.054h.01V21.4h.011v-.032h.011v-.054h.011l.022-.12h.01v-.031h.011l.01-.098h.012v-.021h.01v-.065c.115-.344.187-.735.303-1.079v-.064h.01v-.022h.011v-.043h.011v-.054c.09-.267.145-.575.238-.841v-.054h.01l.022-.119h.01v-.032h.012l.01-.097h.011v-.022h.01v-.065h.012v-.032h.01v-.032h.011v-.054h.011v-.033h.01v-.032h.012v-.054h.01v-.032h.011v-.054h.011v-.033h.011V18.1h.01v-.054h.012v-.032h.01v-.033h.011v-.065h.011v-.032h.01v-.032h.011v-.054h.011l.022-.119h.01v-.032h.011v-.054h.011v-.032h.011v-.033h.01v-.054h.011l.022-.13h.01v-.032h.012v-.032h.01v-.054c.078-.228.127-.495.206-.723v-.053h.01v-.033h.011v-.032h.011l.022-.13h.01V16.2h.011v-.021h.011v-.054h.01v-.043h.012v-.033h.01v-.053h.011v-.033h.011v-.032h.01v-.054h.012l.021-.119h.011v-.032h.01l.011-.097h.011v-.022h.011l.01-.097h.012l.01-.086h.011v-.033h.011v-.032h.011v-.054h.01v-.032h.012l.01-.087h.011v-.032h.011l.01-.097h.011v-.022h.011l.011-.097h.01l.012-.086h.01v-.033h.011v-.032h.011v-.054h.01v-.032h.012l.01-.087h.011v-.032h.011l.01-.097h.012v-.022h.01V14.4c.102-.306.167-.655.27-.96v-.065h.011v-.032h.011v-.033h.01v-.054h.012v-.032h.01v-.032h.01v-.054h.012v-.033h.01v-.043h.011l.022-.13h.01V12.9h.011v-.032h.012v-.065h.01v-.021h.011l.011-.097h.01l.022-.12h.011v-.031h.01v-.054h.012v-.033h.01v-.032h.011v-.054h.011v-.032h.01v-.033h.012v-.065h.01v-.021h.011v-.043h.01v-.054h.011l.022-.119h.01v-.032h.012v-.054h.01v-.032h.011v-.033h.011v-.054h.011v-.032h.01v-.032h.012v-.065h.01v-.022h.011v-.043h.011v-.054h.011v-.021h.01v-.055h.012v-.043h.01v-.032h.01v-.054h.012v-.032h.01v-.033h.011v-.053h.011l.022-.12h.01v-.031h.011l.011-.098h.011v-.021h.01v-.065h.011v-.032h.012v-.033h.01v-.054h.01v-.032h.012v-.054h.01v-.065h.011v-.032h.011v-.086h.01v-.087h.012v-.075h.01v-.119c0-.096.012-.224-.01-.302l-.022-.227h-.01v-.032h-.011l-.011-.108h-.011v-.021h-.01l-.011-.087h-.011v-.021h-.011v-.043h-.01l-.012-.043h-.01v-.033h-.011v-.021h-.011v-.033h-.011l-.022-.065h-.01v-.021h-.011l-.022-.065-.022-.01a17.252 17.252 0 00-.01-.044h-.01c-.005-.01-.008-.021-.012-.032l-.021-.011-.011-.043-.033-.022v-.021l-.021-.011v-.022l-.043-.032V8.82l-.087-.075v-.022a.463.463 0 00-.021-.01l-.054-.065h-.022l-.075-.086h-.022l-.021-.033-.033-.01-.01-.022h-.022l-.011-.022h-.022l-.021-.032h-.022v-.011h-.021l-.011-.022h-.022V8.4h-.021v-.01h-.022v-.012h-.022l-.01-.021h-.022v-.011c-.015-.004-.029-.008-.043-.01v-.012l-.054-.01a.612.612 0 00-.011-.022h-.043a.453.453 0 00-.011-.022h-.022v-.01h-.043v-.01h-.021v-.011l-.076-.011v-.01h-.022v-.012h-.043v-.01l-.075-.01v-.012h-.065v-.01h-.043v-.011h-.043v-.011h-.098v-.01h-.075V8.12h-.13c-.115-.032-.326-.01-.464-.01h-1.878c-.16 0-.353-.015-.496.01l-.01.097h-.011v.022h-.011v.043h-.011v.054h-.01l-.023.119h-.01v.032h-.011v.054h-.01v.032h-.012v.033h-.01v.054h-.011v.032h-.01v.032h-.012v.065h-.01v.022h-.011l-.011.097h-.011l-.022.118h-.01v.033h-.011v.054h-.011v.032h-.01v.033h-.011v.053h-.011v.033h-.011v.032h-.01l-.023.13h-.01v.054h-.011v.02h-.01v.054h-.012l-.021.13h-.011v.032h-.01v.032h-.012v.054c-.09.268-.147.574-.237.841v.065h-.011v.033h-.01v.032h-.012v.054h-.01l-.022.119h-.01v.032h-.012v.054h-.01v.032h-.011v.033h-.01v.053h-.012v.033h-.01v.032h-.011v.065h-.011v.022h-.01c-.005.032-.008.064-.012.097h-.01l-.022.118h-.011v.033h-.01v.054h-.011v.032h-.011v.032h-.011v.054h-.01v.033h-.012v.032h-.01v.065h-.011v.021h-.011a9.24 9.24 0 00-.01.097c-.04.11-.07.246-.109.356l-.01.097h-.012v.022h-.01l-.01.097h-.012v.022h-.01v.053h-.011l-.022.13h-.01v.032h-.012v.033h-.01v.054h-.011v.032h-.011v.043h-.01v.054h-.011v.022h-.011v.054h-.011l-.022.129h-.01v.032h-.011v.033h-.011v.054c-.091.268-.148.574-.238.841v.065h-.01v.032h-.011v.033h-.011v.053h-.01v.033h-.012v.032h-.01v.054h-.011l-.022.119h-.01v.032h-.011l-.011.097h-.011v.022h-.01v.065c-.09.267-.146.574-.238.841v.054h-.011v.032h-.01v.033h-.012l-.021.129h-.011v.054c-.104.304-.165.656-.27.96v.054h-.01v.032h-.012v.044h-.01v.053h-.011v.022h-.011v.054H60l-.022.13h-.011v.032h-.01v.032h-.012v.054h-.01l-.022.119h-.01v.032h-.011v.054h-.011v.032h-.011v.033h-.011v.053h-.01v.044h-.012v.032h-.01v.054c-.105.305-.165.655-.27.96v.054h-.011v.032h-.01a7.014 7.014 0 00-.011.097h-.012v.022h-.01v.054h-.01v.043h-.012v.033h-.01v.053h-.011v.033h-.011v.032h-.01v.054h-.012v.033h-.01v.032h-.011v.054h-.011v.032h-.011v.043h-.01v.054h-.011v.022h-.012v.054h-.01l-.022.13h-.01v.032h-.011v.032h-.011v.054h-.011l-.022.119h-.01v.032h-.011l-.01.097h-.012v.022h-.01v.054h-.011v.043h-.011v.032h-.01v.054h-.012v.032h-.01v.033h-.011v.054h-.01l-.023.118h-.01v.032h-.011v.055h-.011v.032h-.01v.032h-.012v.055h-.01v.043h-.011v.032h-.011v.054h-.01v.032h-.012v.033h-.01v.054h-.011l-.022.118h-.01v.033h-.011v.054h-.011v.032h-.011v.032h-.01v.065h-.012v.032h-.01v.033h-.011v.053h-.01v.033h-.012l-.01.086h-.011l-.011.087h-.01v.032h-.012v.032h-.01v.054h-.011v.032h-.011l-.01.098h-.012v.032h-.01v.032h-.011v.054h-.011l-.022.119h-.01v.032h-.011v.054h-.011v.032h-.01v.033h-.012v.054h-.01v.032h-.011v.044h-.011v.054c-.104.304-.167.654-.27.96v.064h-.01v.022h-.011v.043h-.011v.054h-.011v.032h-.01l-.012.087h-.01l-.011.086h-.011v.032h-.011v.033h-.01v.054h-.011v.032h-.011l-.011.097h-.01v.022h-.012l-.01.096h-.011v.022h-.011v.054h-.01v.043H58.1v.032h-.01v.055h-.011v.032h-.011v.032h-.01v.054h-.012l-.02.119h-.012v.032h-.01l-.011.097h-.011v.022h-.011v.065c-.115.343-.186.735-.302 1.078v.065h-.011v.022h-.011l-.01.097h-.012l-.021.118h-.011v.033h-.01v.054h-.012v.032h-.01v.033h-.011v.053h-.01v.033h-.012v.043h-.01v.054h-.011v.022h-.011l-.01.096h-.012v.033h-.01v.054h-.011v.032h-.011v.033h-.011v.053h-.01v.033h-.012v.032h-.01v.054h-.01l-.023.119h-.01v.032h-.011v.054c-.054.165-.095.355-.151.518v.054h-.011v.032h-.01v.032h-.012v.065h-.01v.033h-.011v.032h-.011v.054h-.01l-.023.119h-.01v.032h-.011v.054h-.01v.032h-.012v.032h-.01v.054h-.011v.033h-.01v.032h-.012v.065H57v.032h-.011v.033h-.011v.053h-.011l-.022.12h-.01v.032h-.011v.054h-.011v.032h-.01v.033h-.011v.053h-.012v.033h-.01l-.01.097h-.012l-.021.118h-.011v.033h-.011v.043h-.01l-.012.075h-.01l.01.033h5.278c.035 0 .078.005.097-.01h.01l.011-.055h.011v-.054h.011l.022-.13h.01v-.032h.011v-.032h.011v-.054c.091-.267.146-.575.238-.841v-.054h.01l.022-.13h.01v-.032h.012v-.032h.01v-.055c.091-.267.146-.575.238-.84v-.055h.01v-.032h.011v-.043h.011v-.054h.01v-.022h.012v-.054h.01l.022-.129h.01v-.032h.012v-.033h.01v-.054h.011v-.032h.011v-.033h.01l.023-.129h.01v-.054h.011v-.021H63l.012-.098h.01v-.021h.011v-.065h.011v-.032h.01v-.032h.012v-.054h.01l.022-.12h.01v-.031h.011v-.054h.011v-.033h.011v-.032h.01v-.054h.012v-.043h.01v-.033h.011v-.054h.011v-.032h.011v-.032h.01v-.054h.011l.022-.119h.01v-.032h.012v-.054h.01v-.033h.011v-.032h.011v-.054h.01v-.043h.012v-.032h.01v-.054h.011v-.033h.011v-.032h.011v-.054h.01v-.032h.011v-.054h.012v-.033h.01v-.032h.01v-.054h.012v-.032h.01v-.033h.011v-.054h.011v-.032h.01v-.043h.012v-.054c.055-.163.097-.354.15-.518v-.054h.011l.022-.119h.01v-.032h.012V23.6h.01v-.032h.011v-.033h.011v-.053h.011v-.033h.01v-.043h.011v-.054h.011v-.021h.011v-.054h.01v-.044h.012v-.032h.01l.022-.118h.01v-.054h.012v-.033h.01v-.032h.011v-.065h.011v-.021h.01l.012-.098h.01v-.021h.011v-.054h.011v-.043h.01v-.033h.012v-.054h.01v-.032h.011v-.032h.011l.022-.13h.01v-.054h.011v-.022h.011l.01-.096h.012v-.022h.01v-.054h.011v-.043h.011v-.032h.01v-.054h.002zM63.757 3.82h.01v.032h.011v.054h.01v.054h.012v.022h.01v.053h.011v.022h.011v.032h.01v.044h.012l.01.043h.011v.032h.011v.021h.01v.033h.012l.021.065h.011v.021h.01l.022.065.022.01.01.044h.012l.01.032.022.011.01.043.033.022v.021l.022.011v.022l.032.021v.011l.022.01v.022l.086.076v.021l.043.033.011.021h.022l.065.076h.021l.043.054h.022l.01.022h.022l.022.032h.021l.011.021.043.011.022.033h.032l.011.021.043.01.011.023h.022v.01h.032l.01.022.055.01.01.022h.044v.011l.043.01v.012h.032v.01h.022v.011h.032v.01h.044v.012h.021v.01h.054v.011h.032v.011h.033v.01h.065v.012h.043v.01h.054v.011h.097c.22.063.61.033.885.033h1.975c.044 0 .126.01.151-.011.022-.006.01.001.022-.011.018-.02.01-.058.021-.086h.011v-.043h.011V5.19h.01v-.033h.012v-.032h.01V5.07h.01v-.032h.012v-.043c.083-.244.132-.525.216-.766v-.054h.01v-.033h.011V4.1h.011v-.054h.01v-.021h.011l.011-.097h.011l.01-.087h.012v-.032h.01v-.032h.011v-.054h.011V3.69h.011l.01-.097h.012v-.021h.01l.011-.098h.011v-.021h.011v-.054h.01l.022-.13h.01v-.032h.012v-.032h.01V3.15h.011v-.032h.011v-.044h.01V3.02h.012V3h.01v-.054h.011v-.043h.011V2.88h.011v-.054h.01v-.043h.011V2.75h.012v-.054c.09-.267.145-.575.237-.842l.01-.097h.011l.011-.086h.011V1.64h.01v-.033h.012v-.054h.01v-.032h.011l.011-.086h.01v-.033h.011l.011-.097h.011v-.021h.01V1.23h.012v-.044h.01v-.032h.011V1.1h.011v-.032h.011v-.032h.01V.982h.011l.022-.119h.01V.831h.012V.777h.01V.744h.011V.712h.011V.647h.01V.615h.012V.582h.01V.528h.011V.496h.011V.464h.01V.41h.012l.021-.119h.011V.26h.01V.205h.012V.172h.01V.14h.011V.075h.011A.172.172 0 0069.92 0h-5.385c-.007.033-.023.06-.032.086V.14h-.01l-.023.12h-.011v.03h-.01v.054h-.011v.032h-.011V.41h-.011v.054h-.01l-.023.13h-.01v.032h-.011v.032h-.011v.054h-.01l-.022.119h-.011v.032h-.011v.054h-.01v.032h-.012v.033h-.01v.054h-.011v.032h-.01v.043h-.012v.054h-.01v.032h-.011l-.011.087h-.011v.032h-.01l-.023.119h-.01v.054h-.01v.032h-.012v.032h-.01v.054h-.011v.033h-.011a10.69 10.69 0 00-.01.097h-.012l-.021.118h-.011v.033h-.01v.054h-.012v.032h-.01v.032h-.011v.054h-.011v.033h-.01v.043h-.012v.054h-.01v.021h-.011l-.011.098h-.01v.032h-.012l-.01.086h-.011l-.011.087h-.01v.032h-.012v.032h-.01v.054h-.011v.033h-.011l-.01.097H63.8v.032h-.012v.054h-.01l-.01.097h-.012l-.01.183c-.045.155-.03.46.01.604v.087zM16.443 17.625v.118l-.021.292h-.011v.086h-.01v.065h-.012v.075c-.03.102-.041.236-.075.335v.043h-.01v.021h-.012v.076h-.01l-.011.043h-.011v.043h-.011v.033h-.01v.043h-.011v.032h-.011v.033h-.01c-.005.028-.008.057-.012.086h-.01v.021h-.011v.054h-.011v.022h-.01v.032h-.012v.043h-.01v.022h-.012v.032h-.01v.033h-.011v.032h-.01v.032h-.012v.033h-.01v.021h-.011v.033h-.01l-.012.054h-.01v.021h-.011v.033H16l-.01.043h-.012v.032h-.01l-.011.043h-.011v.022h-.01v.032h-.012l-.01.043h-.011v.022h-.011v.032h-.01v.022h-.012l-.01.043h-.011v.022h-.011v.021h-.011v.022h-.01v.021h-.012v.022h-.01v.021h-.011v.022h-.01v.021h-.012v.022h-.01v.022h-.011v.021l-.022.011v.022h-.01v.021h-.011v.022h-.011v.021l-.022.011v.022h-.01v.021h-.011v.022h-.011v.021l-.022.011-.01.044-.022.01-.022.065a1.449 1.449 0 01-.021.01v.022a1.454 1.454 0 00-.022.011l-.01.043-.022.011v.022a.87.87 0 00-.022.01v.022l-.021.01-.011.044-.022.01v.022a.857.857 0 01-.021.011v.022l-.022.01v.022h-.01l-.012.033-.021.01v.022l-.033.022v.021l-.021.01v.022l-.033.022v.022l-.021.01-.011.033h-.01v.021l-.022.011-.011.032-.043.033v.021l-.033.022v.021l-.032.022v.022l-.043.032v.022a1.8 1.8 0 00-.044.032v.021l-.021.011v.011l-.022.01v.022l-.064.054v.022l-.076.065v.021l-.076.065v.022l-.021.01-.032.044-.087.075v.022l-.194.183-.076.086h-.021l-.108.119h-.022l-.086.097h-.022a6.794 6.794 0 00-.043.054h-.022l-.064.076h-.022l-.032.043h-.022l-.032.043h-.022l-.022.032h-.021l-.033.043h-.021l-.011.022h-.01l-.011.021h-.022l-.022.033h-.021l-.011.021h-.022a1.449 1.449 0 00-.01.022l-.033.01-.021.033h-.022l-.022.033h-.021l-.022.032h-.021l-.011.021-.043.011v.011l-.033.01-.01.022h-.022l-.011.022-.032.01v.012h-.022l-.01.021-.033.011v.01h-.022l-.01.022h-.022l-.011.022-.043.01-.01.022-.033.011v.01l-.043.012-.011.021-.043.011-.011.022h-.022v.01h-.021v.011h-.022v.011h-.022l-.01.022-.065.02a.395.395 0 01-.011.022h-.022v.011h-.021v.011h-.022v.01h-.021l-.011.023H12.6v.01h-.021v.011h-.022v.01h-.021v.012h-.022v.01h-.021v.011h-.022v.011h-.022v.01h-.021v.012l-.044.01v.011l-.043.011v.01h-.021v.012h-.033l-.01.021-.13.043v.011h-.021v.011l-.044.01v.012h-.032v.01l-.054.011v.01h-.022v.012h-.032v.01l-.043.011v.01h-.033v.012h-.021v.01l-.065.011v.011h-.022v.011l-.064.01v.011h-.022v.011h-.043v.011h-.022v.011l-.097.022v.01h-.032v.011h-.033v.011h-.032v.01l-.108.022v.01c-.025.005-.05.008-.076.012v.01l-.118.022v.01l-.098.012v.01h-.032v.011h-.054v.011h-.043v.01h-.043v.012h-.065c-.086.026-.203.038-.291.064h-.087v.011h-.075v.01h-.087v.012h-.13V24h-.118v.011h-.227c-.184 0-.41.02-.56-.021l-.217-.011-.464-.086-.464-.14v-.012h-.021v-.01l-.065-.01v-.012l-.054-.01v-.011h-.022v-.011h-.032v-.011l-.043-.01v-.012l-.054-.01v-.011l-.065-.022v-.01h-.022v-.011h-.021v-.011h-.022v-.01h-.021v-.011h-.022v-.011H7.57v-.011h-.02v-.01h-.022v-.012h-.021l-.011-.021-.065-.022-.01-.021-.044-.011-.01-.022-.033-.01v-.011l-.043-.011a.604.604 0 00-.011-.022h-.022l-.01-.021h-.022l-.011-.022h-.021l-.011-.021H7.16a3.573 3.573 0 01-.021-.033h-.022l-.01-.021h-.022a4.05 4.05 0 01-.022-.033h-.022l-.032-.043h-.022l-.043-.054h-.021l-.022-.032-.032-.022v-.01h-.022l-.01-.022c-.025-.023-.05-.056-.087-.065a.624.624 0 00-.13-.13v-.021H6.6c-.011-.039-.042-.059-.065-.086h-.01v-.022l-.065-.054v-.021a5.062 5.062 0 01-.044-.033v-.021l-.043-.033v-.021l-.021-.01v-.023l-.033-.021v-.022l-.021-.01v-.022l-.033-.022v-.021l-.021-.011v-.022l-.022-.01-.01-.033H6.2l-.01-.043-.022-.01a2.41 2.41 0 01-.01-.033h-.012l-.01-.043a.732.732 0 01-.022-.011v-.032a1.076 1.076 0 01-.021-.011v-.022H6.08v-.021h-.01v-.022h-.01v-.021h-.012v-.022l-.021-.01-.022-.076-.021-.011v-.032h-.011v-.022h-.011l-.01-.043H5.94v-.033h-.01l-.011-.043h-.011l-.162-.474-.097-.464-.022-.28h-.01v-.152a1.725 1.725 0 010-.485v-.119l.01-.15h.011l.022-.27h.01v-.044h.011v-.064h.011v-.065h.01v-.065h.012v-.054c.016-.05.037-.122.054-.172v-.054h.01v-.033h.011v-.032H5.8l.01-.097h.012v-.032h.01l.022-.108h.01v-.033h.012v-.032h.01l.022-.097h.01v-.022h.012l.021-.097h.011v-.021h.01l.012-.065h.01v-.022h.011v-.032h.011l.01-.054h.012v-.022h.01v-.032h.011v-.022h.011v-.032h.01v-.021h.012v-.022h.01v-.022h.011v-.032h.01l.022-.065h.011v-.021h.011v-.033l.022-.01v-.033h.01v-.021h.011v-.022h.011v-.021h.01v-.022h.012v-.022h.01v-.021h.011v-.022h.011v-.021h.01v-.022h.012v-.021h.01v-.022h.011v-.022l.022-.01v-.022h.01v-.022h.011v-.021h.011v-.022h.011v-.021a.575.575 0 01.022-.011v-.022h.01v-.021a.475.475 0 01.022-.011v-.022h.01v-.021h.012v-.022h.01v-.021l.022-.011.01-.043.022-.011.011-.032h.011l.01-.044.022-.01v-.022h.011v-.022l.033-.021.01-.043.022-.011v-.022a.835.835 0 01.022-.01v-.022a2.13 2.13 0 01.02-.01v-.023h.012l.01-.032.022-.01v-.022l.032-.022v-.021l.022-.01a.881.881 0 00.01-.034h.012v-.02l.043-.034v-.021a.698.698 0 00.021-.01l.011-.033h.011v-.022l.033-.021.01-.033.022-.01.01-.033h.011l.011-.032h.022a.087.087 0 01.021-.043h.011v-.022l.022-.01v-.011l.021-.011v-.022l.044-.032v-.022l.075-.065v-.021l.054-.043v-.022l.086-.075v-.022a.569.569 0 00.022-.01l.086-.098.033-.021v-.022h.021c.01-.038.031-.041.054-.065l.14-.15h.022c.009-.03.003-.025.033-.033v-.022c.038-.01.111-.086.13-.118h.02v-.022c.04-.01.06-.041.087-.065v-.01h.022l.043-.054h.022l.043-.054h.021l.044-.054h.021l.032-.043h.022l.043-.054h.022a.48.48 0 01.032-.043h.022l.01-.022h.022l.01-.022.033-.01.022-.033h.022l.021-.032.033-.011.01-.022h.022l.01-.021h.022l.022-.032h.022l.01-.022.033-.01v-.011h.021l.011-.022h.022l.021-.033h.022l.01-.021.044-.01a.518.518 0 00.01-.022h.022l.01-.022h.023l.01-.021h.022l.01-.022.044-.01.01-.023h.022v-.01h.022l.01-.022h.022l.011-.022h.022v-.01l.064-.022.011-.021.043-.011.011-.022.065-.021.01-.022h.023v-.01h.02v-.012h.023v-.01h.021a.725.725 0 00.01-.022h.033l.011-.022h.022v-.01h.032l.01-.022.044-.01v-.011h.022v-.011h.021v-.01h.022v-.012h.021v-.01h.033l.01-.022.055-.01v-.012h.021v-.01l.065-.022v-.01h.032v-.012h.022v-.01l.043-.011v-.011h.033v-.01h.021v-.012h.033v-.01l.043-.011v-.01h.032V14l.043-.01v-.011h.033v-.011h.021v-.01h.033v-.012h.032v-.01h.033v-.011h.032v-.011h.021v-.01h.033v-.012h.032v-.01h.033v-.011h.032v-.011h.032v-.01h.022v-.012l.075-.01v-.011h.022v-.011l.086-.01v-.011l.076-.011v-.011h.032v-.01h.033v-.012l.086-.01v-.011h.043v-.011h.043v-.01h.044v-.011h.043v-.011h.054v-.011l.108-.011v-.01h.043v-.011h.054v-.011h.075v-.011h.054v-.01h.065v-.012h.097v-.01h.065v-.011h.097v-.011h.13c.118-.034.294-.021.442-.021.143 0 .308-.01.421.02h.119v.012h.097v.01h.076v.011h.064v.011h.065v.01h.054v.011h.065v.012h.054v.01h.043v.01h.043v.012h.054v.01l.087.011v.011l.075.01v.012h.033v.01h.032v.011h.043v.011h.032v.01h.033v.012h.032v.01h.033v.011h.021v.011l.065.01v.012l.054.01v.011h.022v.011h.032v.01c.014.005.029.008.043.012v.01h.032v.011l.065.022v.01h.022v.011h.032a.716.716 0 01.011.022l.054.01.01.022.044.011v.01h.022v.011h.021v.011h.022v.011h.021v.011h.022l.01.022.065.021.011.022a2.3 2.3 0 01.044.01l.01.022.033.01v.012l.043.01.01.022h.022l.011.022h.022l.021.032h.022l.021.032h.022l.022.033h.021l.022.032h.021l.022.032h.022l.032.044h.022l.064.075h.022l.119.13.172.162v.02l.076.066v.021l.022.011.01.032.044.033v.021l.043.033v.021l.021.011v.022l.033.021.01.043.033.022v.022l.021.01.011.033h.011l.01.043.023.01.01.033h.01l.022.065.022.01.022.065.021.01v.023h.011v.021h.011v.022h.01v.021h.012v.022h.01v.021h.011l.022.065h.01v.033h.011v.021h.011l.01.043h.012v.033h.01l.011.043h.011l.011.065h.01v.021h.012l.01.065h.011v.021h.011v.044h.01v.021h.011l.011.065h.011v.043h.01v.032h.011v.044h.012v.032h.01v.043h.01v.043h.012v.043h.01v.044h.011l.011.108h.01c.005.039.008.079.012.118h.01v.076h.011v.075h.011v.097h.01v.097h.012v.151c.01.113.03.31 0 .42zm5.57-2.158v-.161H22v-.13h-.01v-.108h-.011v-.097h-.01v-.075h-.012v-.086c-.024-.085-.03-.198-.054-.281l-.01-.13h-.011l-.022-.161c-.045-.145-.07-.316-.119-.453l-.01-.097h-.011v-.022h-.011l-.011-.087h-.01l-.023-.107h-.01v-.033h-.01v-.032h-.012v-.032h-.01v-.033h-.011v-.032h-.011v-.032h-.01v-.033h-.011v-.032h-.012v-.033h-.01v-.032h-.01v-.032h-.012v-.022h-.01l-.011-.065h-.011v-.021h-.01v-.032h-.012v-.022h-.01l-.011-.065h-.011v-.021h-.01v-.033h-.012v-.021h-.01v-.033h-.011l-.011-.043h-.01v-.032h-.012l-.01-.043h-.011v-.022h-.011v-.032h-.01l-.012-.043h-.01v-.033h-.01l-.022-.065h-.01v-.021h-.012v-.022h-.01v-.021h-.011v-.022h-.01v-.032l-.023-.01v-.023h-.01l-.011-.043h-.01l-.012-.054-.021-.01-.011-.044h-.01v-.021h-.012v-.022h-.01v-.021h-.011v-.022h-.011v-.021l-.022-.011v-.022h-.01v-.021h-.011v-.022h-.011v-.022l-.022-.01a6.929 6.929 0 00-.01-.044l-.022-.01-.01-.043-.022-.011-.022-.065-.021-.01v-.022h-.011v-.022l-.022-.01-.01-.033h-.012l-.01-.043-.022-.011v-.022l-.021-.01v-.022l-.022-.01v-.022l-.022-.011v-.022l-.021-.01v-.022l-.022-.011v-.021l-.021-.011v-.022h-.011l-.011-.032-.022-.011v-.022a.72.72 0 01-.021-.01 3.971 3.971 0 00-.011-.033l-.032-.021v-.022l-.033-.021v-.022l-.021-.01v-.022l-.022-.011-.01-.032a3.645 3.645 0 01-.033-.022v-.021l-.043-.033a2.05 2.05 0 00-.011-.032l-.022-.011V11l-.064-.054v-.021l-.044-.033v-.021a8.5 8.5 0 00-.054-.043v-.022l-.064-.054v-.021l-.119-.108c-.072-.1-.163-.174-.248-.26a34.71 34.71 0 00-.13-.14h-.022l-.086-.097h-.01a.857.857 0 00-.011-.021h-.022l-.054-.065h-.021l-.055-.065h-.021l-.01-.021h-.012a2.024 2.024 0 01-.021-.033h-.022l-.032-.043h-.022l-.01-.021h-.011l-.011-.022h-.022l-.01-.021a2.55 2.55 0 00-.033-.011l-.032-.043h-.022l-.021-.033h-.022l-.022-.032h-.021c-.008-.01-.015-.022-.022-.033h-.022l-.01-.021-.033-.01V9.62h-.021a2.94 2.94 0 01-.022-.032h-.021l-.011-.022-.033-.01v-.011h-.021a1.207 1.207 0 01-.011-.022l-.033-.01v-.011h-.021l-.01-.022h-.023l-.01-.022h-.022l-.01-.021h-.022l-.011-.021h-.022l-.01-.022a1.725 1.725 0 00-.044-.01.473.473 0 00-.01-.022l-.033-.011V9.34h-.021v-.01h-.022l-.01-.022-.044-.011a1.79 1.79 0 00-.01-.022h-.022v-.01h-.022v-.011h-.021v-.011h-.022l-.01-.022h-.022v-.01h-.022l-.01-.022h-.022v-.01h-.022v-.012h-.022v-.01h-.021l-.01-.022h-.022v-.01h-.022v-.012h-.022v-.01h-.021v-.011h-.022V9.08h-.022l-.01-.022h-.033l-.01-.021a7.933 7.933 0 00-.044-.011v-.01a21.209 21.209 0 00-.065-.022v-.01h-.032v-.012l-.064-.021V8.94h-.022v-.01h-.022v-.012h-.032v-.01l-.065-.022v-.011h-.021v-.01h-.033v-.012a2.034 2.034 0 01-.043-.01v-.011h-.022v-.011h-.032v-.01l-.043-.011v-.01h-.032v-.011l-.044-.01v-.012l-.065-.01v-.011h-.021v-.011h-.032v-.01h-.022v-.012l-.065-.01v-.011h-.021V8.67l-.065-.01v-.012h-.022v-.01l-.097-.022v-.01h-.032v-.011h-.033v-.011h-.032v-.011h-.032v-.01h-.033v-.012h-.032v-.01l-.065-.011v-.01h-.043v-.01h-.033v-.012h-.032v-.01h-.032v-.011l-.087-.011v-.01l-.119-.022v-.011h-.032v-.011l-.086-.01V8.39l-.098-.011v-.011h-.032v-.01h-.054v-.012h-.043v-.01h-.054c-.133-.043-.305-.056-.442-.097h-.076v-.011h-.076v-.01h-.064v-.012h-.087v-.01h-.086v-.011h-.076v-.011h-.108v-.011h-.097v-.01h-.108v-.011h-.183v-.011l-.28-.011h-.141a1.952 1.952 0 00-.529 0h-.28v.01l-.335.012v.01h-.108v.01h-.108v.012h-.13v.01h-.075v.011h-.086v.011h-.098c-.146.043-.331.044-.474.087h-.076c-.08.024-.19.04-.27.064h-.064v.01h-.033v.012h-.065v.01h-.043V8.4l-.097.011v.011h-.043v.01h-.043v.011h-.054v.011h-.043v.011l-.087.01v.012h-.032v.01h-.054v.011h-.043v.011h-.033v.01h-.054v.012H10.7v.01h-.033v.011h-.054v.011l-.107.022v.01h-.033v.011h-.032v.011h-.043v.01h-.022v.011l-.086.011v.011h-.022v.01h-.043v.012h-.032v.01h-.033v.011h-.043v.011h-.022v.01l-.075.012v.01h-.022v.011h-.043v.011h-.032v.01H9.9V8.8l-.194.053v.011h-.033v.01h-.021v.012l-.065.01v.011h-.022v.011l-.064.011v.01H9.48v.012h-.032v.01h-.022v.011l-.064.011v.01H9.34v.012h-.033v.01h-.032v.01c-.014.005-.029.008-.043.012v.01h-.033v.011h-.021v.011h-.033v.01l-.043.012v.01a5.102 5.102 0 01-.054.011v.011h-.032v.01l-.054.012v.01H8.94v.011h-.032l-.011.022h-.032v.01h-.022v.012l-.097.032v.01h-.032v.011l-.065.022v.01h-.022v.012h-.032v.01l-.065.022v.01h-.021v.012h-.022v.01h-.033v.011h-.021v.011H8.41v.01h-.02v.012h-.022v.01h-.021v.01h-.022v.012h-.021v.01l-.065.022v.01l-.054.012-.011.021h-.032v.011H8.12v.01h-.022v.012h-.021v.01h-.022v.011h-.021v.011h-.022l-.01.022H7.98v.01h-.022v.011h-.022v.01h-.021v.012h-.022v.01h-.021v.011H7.85v.011h-.022v.01h-.021v.012h-.022l-.01.021h-.022v.011H7.73v.01h-.02v.012h-.022v.01h-.021l-.011.022h-.022v.01h-.021v.011H7.59v.011h-.022a.68.68 0 00-.01.022h-.022v.01h-.022v.011h-.021v.011h-.022v.011H7.45l-.011.022-.065.021-.01.022-.044.01-.01.022a2.084 2.084 0 00-.044.011l-.01.021-.066.022-.01.022-.043.01a.66.66 0 00-.011.022h-.022v.01h-.022a.796.796 0 00-.01.022 1.378 1.378 0 01-.033.011v.011l-.043.01-.01.022-.044.011-.01.022H6.91v.01h-.022v.011h-.021l-.022.033-.043.01a.418.418 0 01-.011.022l-.032.01v.012l-.043.01a.836.836 0 00-.011.022h-.022l-.022.032a3.319 3.319 0 00-.043.011l-.01.022h-.022l-.01.021h-.022l-.011.022h-.022l-.01.022H6.49l-.01.021h-.023l-.01.022h-.022l-.01.021h-.022l-.011.022H6.36v.01l-.032.011-.01.022h-.023l-.021.032h-.022l-.01.022H6.22l-.022.032h-.021l-.011.022-.032.01v.011h-.022l-.022.033h-.02l-.011.021h-.022a4.05 4.05 0 00-.021.033l-.033.01-.01.022H5.95a1.959 1.959 0 00-.01.021h-.022l-.022.033h-.022l-.021.032H5.83l-.021.033h-.022l-.022.032h-.021l-.022.032h-.021l-.022.033h-.022l-.02.032h-.023l-.032.043-.032.011-.011.022h-.022l-.01.021h-.012l-.01.022h-.022l-.032.043H5.41l-.032.043h-.022a5.4 5.4 0 01-.032.043h-.022l-.032.043h-.022a6.32 6.32 0 01-.054.065h-.021l-.043.054h-.022l-.043.054h-.022l-.054.065h-.021l-.054.064h-.022l-.065.076h-.021l-.087.097h-.021l-.076.086c-.174.126-.314.293-.464.443l-.043.032-.01.022h-.022l-.011.032-.022.01-.054.065c-.085.086-.176.16-.248.26l-.14.129v.021l-.033.022-.032.043h-.01v.022l-.087.075v.022l-.087.075v.022l-.064.054v.021c-.018.015-.036.03-.054.043v.022l-.065.054v.022l-.054.043v.021l-.054.043v.022l-.054.043v.022l-.043.032v.022l-.043.032v.022l-.033.021v.022l-.043.032-.01.033-.022.01v.022a.48.48 0 00-.043.032v.022a1.397 1.397 0 00-.022.01v.011L2.733 14v.022l-.021.01v.022l-.043.033v.021l-.033.022v.021l-.032.022v.022l-.022.01v.022l-.032.022-.01.032a.378.378 0 01-.023.01v.022l-.021.01v.022l-.032.022v.022l-.022.01v.022l-.032.022v.021l-.022.01-.01.033h-.012v.022l-.032.021v.022a1.087 1.087 0 00-.022.01l-.01.033H2.29v.022l-.033.021v.022l-.021.01v.022l-.022.01-.01.034h-.011v.021a.572.572 0 00-.022.01v.022l-.022.011-.01.043-.022.011v.022l-.032.021-.011.043-.022.011-.01.033h-.011l-.011.043-.022.01v.022l-.021.01a3.097 3.097 0 01-.011.044l-.022.01v.022l-.021.011-.011.043-.021.011v.022a1.205 1.205 0 00-.022.01v.022l-.022.01v.022h-.01v.022l-.022.01-.022.066-.021.01-.011.043-.022.011-.01.043-.022.011-.022.065-.021.01v.022h-.011v.022h-.011v.021h-.01v.022l-.022.01v.022H1.6v.022h-.011v.022h-.01v.021l-.022.01v.022h-.011v.022h-.011v.022h-.01v.021l-.022.011a2.514 2.514 0 01-.011.043H1.48v.022h-.01v.021h-.012v.022h-.01v.021l-.022.011-.021.065h-.011v.021h-.011v.022h-.01v.022h-.011v.021H1.35l-.01.043h-.01l-.012.044h-.01l-.022.064h-.011v.022h-.01v.021l-.022.011a2.643 2.643 0 00-.011.054h-.01v.022H1.21v.021H1.2v.022h-.01v.021h-.011l-.022.065h-.01v.032h-.011v.022h-.011v.022h-.01c-.005.014-.008.029-.012.043h-.01v.032h-.011l-.022.065h-.01v.021h-.011v.033h-.011v.021h-.011l-.022.065h-.01l-.011.065H.963l-.01.043H.94v.022H.93v.032H.92l-.011.043h-.01l-.012.065h-.01l-.011.043H.855v.033h-.01v.02H.832l-.01.066h-.01l-.011.043h-.01l-.011.064H.768l-.01.055h-.01v.021H.735v.032h-.01v.022h-.01l-.011.076h-.01a2.305 2.305 0 00-.012.043h-.01c-.019.064-.036.13-.054.194H.607v.021H.596l-.022.108c-.05.128-.093.28-.14.41a46.42 46.42 0 01-.022.13h-.01v.021H.39v.033H.38v.064H.37v.033H.357v.032h-.01l-.022.14h-.01v.033H.304l-.011.097h-.01v.043h-.01v.043H.26v.054H.25v.043H.24v.054c-.05.157-.06.348-.108.507l-.011.14c-.036.12-.03.278-.065.4v.107h-.01v.12H.034l-.011.269c-.015.052.006.145-.011.205-.02.071-.01.19-.01.28v.583h.01v.194h.01l.022.367h.011v.086h.011v.097h.01v.086H.09l.01.14c.028.095.038.212.065.302v.065h.011v.043h.01v.065c.056.177.09.38.152.55v.043h.01v.033h.011v.043H.37l.011.065h.01v.032h.012v.032h.01v.032h.011v.033h.011v.032h.01v.033h.012v.032h.01v.033h.011v.032h.011v.032h.01v.022H.51l.01.065h.011v.021h.011v.032h.01v.022h.012l.01.065h.011l.011.043h.01l.012.065h.01l.011.043H.65v.021h.01v.033h.012l.01.043h.011v.032h.011l.01.043h.012v.022h.01v.032h.011v.022h.011l.01.043H.78v.022h.01v.021h.011v.022h.011v.021h.01v.022h.011l.011.043h.011l.01.043h.012v.022h.01v.021h.011v.022h.01v.022H.92v.021h.01l.011.043.022.011v.021h.01l.022.065.022.011v.022h.01v.021h.012v.022h.01v.021l.022.011.01.043.022.011.011.043.022.011.01.043.022.011.01.032h.012l.01.044h.011l.011.032.022.01v.022l.021.011.011.032h.01l.012.044.021.01v.022l.032.021v.022l.022.01v.023h.01c.005.01.008.021.012.032l.021.01v.022l.033.022v.021l.022.011v.022l.032.021v.022l.032.021v.022l.032.022v.021l.044.033v.021l.043.032.01.033.022.01v.022l.054.043v.022l.043.032v.022l.076.065v.021l.097.086v.022l.086.076.011.032h.022c.014.054.122.133.162.173.025.025.034.054.075.064.009.03.003.025.033.033v.021c.038.01.1.08.13.108l.01.022h.022l.054.064h.021c.015.018.03.036.043.054h.022l.065.076h.021l.033.043h.021l.033.043h.021l.033.044h.021l.022.032.032.01.011.022h.022l.021.032h.022l.01.022h.022l.022.032H3.1l.022.033h.022l.01.021.033.011v.01h.021l.022.033h.021l.011.022.033.01v.011h.021l.011.022h.022l.01.022h.022l.01.021.033.01v.012h.022l.01.021h.022v.011H3.5a.644.644 0 00.01.022l.044.01.01.022.044.01.01.022.044.011.01.022.044.01.01.022.065.021.011.022h.022v.011h.021v.01h.022v.012h.021l.011.021h.022v.011h.021v.01h.022v.012h.022v.01h.021l.011.022h.032v.01h.022l.01.022h.033v.011h.022v.01h.021v.012h.022v.01h.022v.011h.021v.011h.022v.011h.021v.01l.044.011v.011l.043.01v.012h.021v.01h.033v.011l.043.011v.01h.021v.012h.033v.01l.043.011v.011h.022v.01H4.6v.012l.043.01v.011h.033v.011h.021v.01h.032v.012h.022v.01l.054.011v.011l.065.01v.012h.022v.01l.064.011v.01h.022v.012l.064.01v.011h.033v.011h.022v.01h.032v.012h.032v.01h.033v.011h.032v.011h.032v.01h.044v.011h.032v.012h.032v.01H5.4v.011h.032v.01l.076.012v.01l.108.022v.01l.086.011v.011l.086.011v.01h.033v.011h.043v.011h.043v.011h.054v.01h.043v.012h.054c.108.035.246.052.356.086l.13.01v.012h.065v.01h.075v.011h.065v.011h.075v.01h.087v.012h.075v.01h.098v.011h.119v.011h.086v.01h.15v.012l.238.01h.12c.086.025.228.011.334.011.14 0 .38.021.496-.01h.184v-.011l.334-.011v-.011h.097v-.01h.12c.127-.037.295-.03.42-.066h.097c.171-.05.383-.055.55-.107l.119-.011v-.011h.043v-.01h.044v-.012h.064v-.01h.033v-.011l.108-.01v-.012h.032v-.01h.054v-.011h.043c.051-.018.122-.037.173-.054l.086-.011v-.011h.033v-.01h.054c.26-.09.553-.154.798-.26l.076-.01v-.011h.021v-.01l.065-.012v-.01h.022v-.011h.043v-.011h.022v-.01c.021-.005.043-.008.065-.012v-.01h.021v-.011l.065-.011v-.01h.021v-.012l.065-.01v-.011h.021v-.01l.065-.012v-.01l.054-.011v-.011h.022v-.01l.065-.012v-.01l.043-.011v-.011h.032v-.01l.043-.012v-.01h.033v-.011h.021v-.01h.033v-.012l.043-.01v-.011h.032v-.011l.043-.01v-.012h.033v-.01l.043-.011v-.011h.033v-.01l.064-.022v-.011h.022v-.011h.032v-.01h.022v-.012l.054-.01v-.011l.065-.022v-.01h.021v-.011h.022v-.011l.043-.01v-.012l.054-.01c.04-.025.104-.072.162-.076l-.065.27h-.01v.054h-.011v.032h-.011v.043h-.01v.054H13.7v.022h-.01v.043h-.011v.054h-.011v.021h-.011v.054h-.01v.044h-.012v.032h-.01v.054h-.011v.032h-.01v.032h-.012v.054h-.01v.033h-.011v.043h-.011v.054h-.01v.021h-.012l-.01.098h-.011v.032h-.011v.054h-.01v.032h-.012v.033h-.01v.054h-.011v.032h-.011v.032h-.01v.054h-.012v.032h-.01l-.011.098h-.011v.021h-.01v.054h-.012v.043h-.01v.033h-.011v.054h-.011v.032h-.01v.032h-.012v.054h-.01l-.022.119h-.01v.032h-.012v.054h-.01v.032h-.011v.033h-.011v.054h-.01v.043h-.012v.032h-.01v.055c-.105.304-.167.655-.27.96v.064h-.011v.022h-.01c-.005.032-.008.064-.012.097h-.01v.032h-.011l-.011.086h-.01l-.012.087h-.01v.032h-.011v.033h-.011v.053h-.01v.033h-.012l-.01.097h-.011v.022h-.011l-.01.096h-.012v.022h-.01a10.65 10.65 0 01-.011.097h-.011l-.01.087h-.012v.032h-.01v.032h-.011v.054h-.011v.033h-.01l-.012.086h-.01v.032h-.011l-.011.097h-.01v.022h-.011v.065h-.011v.032h-.011v.032h-.01v.054h-.012v.033h-.01v.032h-.011v.054h-.011v.032h-.01v.054h-.012v.044h-.01v.02h-.011v.055h-.01c-.008.043-.016.086-.022.13h-.011v.032h-.011v.032h-.01v.054h-.012l-.021.119h-.011v.032h-.01c-.005.032-.008.065-.012.097h-.01v.022h-.011v.054h-.011v.043h-.01v.032h-.012v.054h-.01v.033h-.011v.032h-.011v.054h-.01l-.023.119h-.01v.032h-.011l-.011.097h-.01v.021h-.011v.065h-.011v.032h-.011v.033h-.01v.054h-.012l-.021.119h-.011v.032h-.01v.054h-.012v.032h-.01v.032h-.011v.055h-.011v.043h-.01v.032h-.012v.054h-.01v.032h-.011v.033h-.011v.054h-.01l-.023.118h-.01v.033h-.011v.054h-.01v.032h-.012v.033h-.01v.064h-.011v.032h-.011v.033h-.01v.054h-.011v.032h-.011v.033h-.011v.053h-.01a9.21 9.21 0 00-.022.12h-.011v.032h-.011v.054h-.01v.032h-.012v.043h-.01v.054h-.011v.032h-.011v.033h-.01v.054h-.012l-.021.118h-.011v.032h-.01v.054h-.012v.033h-.01v.032h-.011v.065h-.011v.022h-.01l-.012.097h-.01v.032h-.011v.032h-.011v.055c-.091.267-.147.574-.238.84v.065h-.01v.022h-.011l-.011.097h-.01v.022h-.012v.054h-.01v.043h-.011v.032h-.011v.054h-.01v.033h-.011v.032h-.011v.054h-.011l-.022.118h-.01v.033h-.011l-.011.097h-.01v.021h-.012v.065h-.01v.033h-.011v.032h-.011v.054h-.01v.032h-.012v.032h-.01v.054h-.011v.033h-.01l-.012.086h-.01l-.011.076h2.978a.405.405 0 01.011-.022l.173-.01v-.011l.108-.011v-.011h.054v-.01h.043v-.012h.054v-.01h.032v-.011h.033v-.011h.054v-.01h.032v-.012h.022v-.01h.054v-.011h.021v-.011l.065-.01v-.012h.022v-.01l.064-.011v-.01h.022v-.012l.065-.01.01-.022h.044l.01-.021h.022v-.012h.032v-.01l.065-.022v-.01h.022v-.011h.021v-.011h.022v-.01h.022v-.012h.021v-.01h.022l.01-.022h.033l.01-.022.044-.01a1.08 1.08 0 00.01-.022l.044-.01.01-.022h.033l.022-.033.043-.01.01-.022.033-.01v-.012l.043-.01.011-.022h.022l.021-.033h.022l.021-.032h.022l.022-.032h.021l.022-.032h.021l.011-.022h.022l.054-.065h.021c.015-.018.03-.036.043-.054h.022l.054-.064h.022l.097-.108.183-.173v-.021l.054-.044v-.021l.065-.054v-.022l.043-.032v-.022l.032-.021v-.022a1.87 1.87 0 00.044-.032v-.022l.021-.01.011-.033h.01v-.022l.033-.021v-.022l.022-.01.01-.033h.011v-.022l.022-.01.01-.043.022-.011a2.47 2.47 0 01.011-.043l.022-.011.01-.043.022-.011.011-.043.021-.01v-.033l.022-.011v-.022h.01v-.032l.023-.01.01-.055.022-.01.01-.054h.012l.01-.044h.011v-.032a.87.87 0 00.022-.01v-.033h.01v-.022h.011l.011-.065h.01v-.021h.012l.01-.065h.011v-.032h.011v-.033h.01v-.032h.012v-.032h.01v-.043h.011v-.033h.011v-.032h.01l.023-.13h.01v-.053h.011v-.033h.01v-.032h.012v-.054h.01v-.033h.011v-.043h.011v-.043h.01v-.032h.012v-.054h.01v-.033h.011V35.5h.011v-.054h.01v-.032h.012v-.043h.01v-.054h.011v-.022h.011v-.054h.01v-.043h.011v-.032h.011v-.054h.011v-.033h.01v-.032h.012v-.054h.01v-.032h.011v-.033h.011v-.054h.01v-.032h.012v-.043h.01v-.054h.011v-.022h.011v-.054h.011l.021-.13h.011v-.032h.011v-.032h.01v-.054h.012l.021-.118h.011v-.033h.01l.012-.097h.01v-.021h.011v-.055h.011v-.043h.01v-.032h.012v-.054h.01v-.032h.011v-.032h.011v-.055h.01l.023-.118h.01v-.032h.011l.01-.098h.012v-.021h.01v-.065h.011v-.032h.011v-.033h.01v-.054h.012l.021-.118h.01v-.033h.012v-.053h.01v-.033h.011v-.032h.01l.012-.097h.01v-.022h.012v-.065h.01v-.032h.011v-.032h.01v-.054c.079-.229.128-.495.206-.723v-.054h.01v-.032h.012v-.043h.01v-.054h.01v-.033h.012v-.032h.01V31.8h.012v-.033h.01v-.043h.011v-.043h.01v-.032h.012v-.054h.01v-.032h.011v-.033h.011l.01-.097h.012v-.032h.01v-.054h.011v-.033h.01v-.032h.012v-.054h.01l.022-.119h.01v-.032h.012v-.054h.01v-.032h.012v-.033h.01v-.064h.01v-.022h.012l.01-.097h.011l.022-.118h.01v-.033h.012v-.054h.01v-.032h.011v-.033h.01v-.054h.012v-.032h.01v-.043h.011v-.054c.069-.2.117-.434.184-.636v-.055h.01l.022-.118h.01v-.032h.012v-.054h.01v-.033h.011v-.032h.011v-.054h.01v-.032h.012v-.044h.01v-.053h.011v-.022h.011v-.054h.01l.022-.13h.011v-.032h.011v-.032h.01v-.054H19v-.032h.01v-.033h.011l.022-.13h.01v-.053h.011v-.022h.011v-.054h.011v-.043h.01v-.032h.012v-.054h.01v-.033h.011v-.032h.011v-.054h.01l.022-.119h.011v-.032h.011v-.054h.01v-.032h.012v-.033h.01v-.054h.011v-.043h.011v-.032h.01v-.054c.105-.304.168-.655.27-.96v-.065h.012v-.021h.01v-.043h.011v-.055c.091-.267.145-.575.238-.84v-.055h.01v-.032h.011v-.043h.011v-.054h.01v-.022h.012v-.054h.01v-.043h.011v-.032h.011v-.054h.01v-.033h.012v-.032h.01v-.054h.011v-.032h.01v-.043h.012v-.054h.01v-.022h.011l.01-.097h.012v-.021h.01v-.054h.011l.022-.13h.01v-.032h.012v-.033h.01v-.053h.011v-.033h.011v-.043h.01v-.054h.011v-.022h.011l.011-.097h.01v-.032h.012v-.054h.01V24.4h.011v-.032h.011v-.054h.01v-.033h.012v-.032h.01v-.054h.011v-.032h.011v-.044h.01v-.054h.012v-.021h.01l.011-.097h.011l.01-.087h.012v-.032h.01v-.032h.011v-.055h.011v-.032h.011l.01-.097h.011v-.022h.011l.011-.096h.01v-.022h.012v-.054h.01v-.043h.011v-.032h.011v-.055h.01v-.032h.012v-.032h.01v-.054h.011v-.032h.011v-.044h.01v-.043h.011v-.032h.011l.011-.097h.01V22.9h.012v-.065h.01v-.032h.011v-.032h.011v-.054h.01v-.033h.012v-.032h.01v-.054h.011l.022-.119h.01v-.032h.011l.011-.097h.011v-.022h.01v-.064h.012v-.033h.01V22.2h.011v-.054h.011l.022-.119h.01v-.032h.011v-.054h.011v-.032h.01v-.033h.012v-.054h.01v-.032h.011v-.043h.011v-.054c.091-.266.145-.575.237-.841v-.054h.011v-.033h.011v-.032h.01l.022-.13h.011v-.053h.011v-.022h.01c.005-.032.008-.065.012-.097h.01l.011-.087h.011v-.032h.01v-.032h.012v-.054h.01v-.033h.011l.011-.086h.01v-.032h.012l.01-.097h.011v-.022h.011l.01-.097h.012l.01-.086h.011v-.033h.011v-.032h.01v-.054h.012v-.032h.01l.011-.086h.011v-.022h.01v-.065h.012v-.032h.01v-.022h.011l.011-.086h.01v-.022h.012v-.054h.01V19.2h.011v-.032h.01v-.054h.012v-.022h.01l.011-.097h.011v-.021h.011l.032-.184h.01v-.032h.012v-.032h.01v-.065h.011v-.033h.011v-.032h.01v-.054c.018-.05.038-.122.055-.172l.022-.162c.037-.115.051-.261.086-.378l.021-.215c.025-.082.03-.197.055-.281v-.097h.01v-.097h.011l.011-.216c.023-.083.017-.213.032-.302v-.194h.011v-.755h-.01c-.017-.06.003-.153-.011-.205z" fill="#fff"/></svg>