<svg width="70" height="70" fill="none" xmlns="http://www.w3.org/2000/svg"><path d="M29.925 63.305a1.15 1.15 0 11-2.301 0 1.15 1.15 0 012.301 0zm18.416-13.812a1.151 1.151 0 11-2.302 0 1.151 1.151 0 012.302 0z" fill="#E4E4E4"/><path d="M64.024 44.124a12.862 12.862 0 001.07-4.964 1.15 1.15 0 00-.865-1.102c-.203-.052-5.04-1.258-8.166 1.193a6.616 6.616 0 00-1.428 1.57 13.654 13.654 0 00-1.92-3.528 1.152 1.152 0 00-1.842 1.382 10.941 10.941 0 012.256 6.258c-.036.219-.066.428-.088.62l-.261-.173a7.846 7.846 0 00-4.727-1.642 10.59 10.59 0 00-1.083.06c.483-2.541.112-5.17-1.053-7.48a16.525 16.525 0 01-1.163-8.864 3.445 3.445 0 002.436-3.282 3.441 3.441 0 00-2.304-3.243c.002-.36.002-.699.002-.785C44.714 8.867 35.448-.142 24.17.002 12.894-.142 3.627 8.867 3.453 20.144c0 .086 0 .423.002.782a3.281 3.281 0 00-1.276.798 3.382 3.382 0 00-1.028 2.448 3.445 3.445 0 002.436 3.282 16.53 16.53 0 01-1.163 8.864 10.841 10.841 0 001.441 12.337A14.928 14.928 0 000 58.7v6.906a3.457 3.457 0 003.453 3.453h41.435a3.396 3.396 0 002.157-.794 5.624 5.624 0 002.665.794 6.898 6.898 0 003.977-1.006 1.55 1.55 0 011.967 0 6.902 6.902 0 003.978 1.006c3.844 0 9.426-5.721 9.426-14.686 0-5.814-1.653-9.185-5.034-10.25zm-6.54-3.06c1.56-1.225 3.947-1.117 5.248-.943-.14 1.306-.608 3.648-2.17 4.872a7.207 7.207 0 01-5.15.954c.013-.232.018-.491.016-.766a6.69 6.69 0 012.055-4.118zm-13.097 3.46a6.056 6.056 0 00-2.302 2.04 14.886 14.886 0 00-4.202-2.109 1.14 1.14 0 00-.624-.634l-4.888-1.954a2.31 2.31 0 00-2.77.859l-.826 1.239v-4.218a17.684 17.684 0 0013.21-12.122h.43a18.376 18.376 0 001.444 9.725 9.201 9.201 0 01.528 7.174zM24.17 50.872l-2.302-3.453v-7.277c.764.091 1.533.139 2.302.144a20.62 20.62 0 002.303-.144v7.276l-2.303 3.454zm3.453-30.153h8.057v1.151a3.457 3.457 0 01-3.453 3.453h-1.15a3.457 3.457 0 01-3.454-3.453v-1.15zm9.372-1.884a2.28 2.28 0 00-1.315-.418h-8.057c-.3 0-.598.06-.876.176a4.748 4.748 0 00-5.124.011 2.276 2.276 0 00-.905-.187H12.66c-.471 0-.93.146-1.315.418l-2.829 1.072.039-.16a.844.844 0 00.02-.087l.001-.002.002-.01.477-2.603c6.452-1.756 9.415-4.856 10.705-6.836 2.16 2.407 7.456 6.625 17.706 5.948a16.163 16.163 0 012.354 3.749l-2.826-1.07zM12.661 20.72h8.057v1.151a3.457 3.457 0 01-3.453 3.453h-1.151a3.457 3.457 0 01-3.453-3.453v-1.15zm-4.519 4.149a14.373 14.373 0 01-.085-1.513c0-.29.01-.559.028-.822l2.274-.861v.198a5.762 5.762 0 005.755 5.755h1.15a5.762 5.762 0 005.756-5.755v-1.15a2.292 2.292 0 00-.026-.256 2.408 2.408 0 012.356-.028 2.315 2.315 0 00-.029.283v1.151a5.762 5.762 0 005.755 5.755h1.151a5.762 5.762 0 005.755-5.755v-.198l2.275.861c.016.258.027.527.027.822a14.3 14.3 0 01-.084 1.502 14.55 14.55 0 01-.223 1.36 15.4 15.4 0 01-12.564 11.475c-2.144.387-4.34.387-6.485 0A15.352 15.352 0 018.364 26.17c-.096-.435-.17-.87-.222-1.302zm14.605 28.016l-3.031 3.788-6.54-11.21 3.65-1.46 5.92 8.882zm8.769-8.88l3.648 1.459-6.54 11.21-3.03-3.789 5.922-8.88zm12.221-18.68h-1.285c.01-.073.026-.141.035-.213.064-.584.097-1.17.099-1.756 0-.118-.006-.221-.008-.334h1.16c.31 0 .606.127.82.353.213.21.332.498.33.798 0 .636-.515 1.15-1.15 1.151zM24.17 2.303c10.006-.145 18.243 7.834 18.416 17.84v.575h-.225l-.052-.327a17.33 17.33 0 00-.269-1.109 19.817 19.817 0 00-3.175-5.057 1.124 1.124 0 00-.979-.408c-12.855 1.057-17.146-6.031-17.32-6.33a1.141 1.141 0 00-1.128-.568 1.16 1.16 0 00-.975.81c-.064.205-1.652 5.041-10.682 7.268-.44.109-.775.464-.857.91l-.602 3.283c-.106.4-.21.801-.307 1.292l-.037.236h-.223v-.575c.173-10.006 8.41-17.985 18.415-17.84zM3.806 23.352a1.11 1.11 0 01.81-.33h1.148c-.002.111-.009.216-.009.333.002.591.036 1.183.1 1.77.008.067.025.131.034.198H4.604a1.15 1.15 0 01-1.15-1.151c-.001-.31.126-.607.352-.82zm.677 13.995a18.37 18.37 0 001.443-9.722h.437a17.636 17.636 0 0013.203 12.122v4.218l-.826-1.24a2.313 2.313 0 00-2.769-.86l-4.888 1.956a1.139 1.139 0 00-.61.611 14.926 14.926 0 00-4.92 2.631 8.513 8.513 0 01-1.07-9.716zm-2.181 28.26v-6.906a12.618 12.618 0 018.886-12.08l7.384 12.66a1.15 1.15 0 001.894.14l2.553-3.193v10.53H3.454c-.635 0-1.15-.515-1.151-1.15zm23.02 1.15V56.229l2.553 3.193a1.152 1.152 0 001.894-.14l7.379-12.649a12.615 12.615 0 013.909 2.04 18.103 18.103 0 00-.773 5.702 17.152 17.152 0 004.722 12.368 1.145 1.145 0 01-.118.016H25.32zm34.31 0a4.705 4.705 0 01-2.822-.695 3.785 3.785 0 00-4.277 0 4.706 4.706 0 01-2.823.696 3.996 3.996 0 01-2.209-.884c-.021-.014-.033-.037-.054-.05l-.018-.007c-2.327-1.728-4.843-5.77-4.843-11.443 0-5.145 1.3-7.17 3.055-7.92l.007-.003a6.099 6.099 0 012.405-.41 5.633 5.633 0 013.44 1.247 4.63 4.63 0 002.602 1.055h.003a3.44 3.44 0 00.865-.132c.613.086 1.231.13 1.85.13a8.36 8.36 0 005.17-1.536c.251-.2.486-.42.703-.658 1.55.236 4.07 1.286 4.07 8.227 0 7.682-4.613 12.384-7.124 12.384z" fill="#E4E4E4"/><path d="M47.19 54.097a1.15 1.15 0 00-2.302 0c0 .2.015 4.904 1.272 7.421a1.15 1.15 0 102.06-1.03 18.585 18.585 0 01-1.03-6.39z" fill="#E4E4E4"/></svg>