<svg width="65" height="65" fill="none" xmlns="http://www.w3.org/2000/svg"><path d="M63 31.928a5.414 5.414 0 00-3.94-1.71h-.782v-2.25a6.473 6.473 0 004.102-10.266 5.396 5.396 0 10-10.363 0 6.473 6.473 0 004.102 10.266v2.25h-.782a5.396 5.396 0 00-5.384 5.755l.34 5.095a8.643 8.643 0 00-2.807-.336V3.238a1.08 1.08 0 00-1.08-1.08h-9.713V1.08A1.08 1.08 0 0035.614 0H11.871a1.08 1.08 0 00-1.079 1.08v1.078H1.08A1.08 1.08 0 000 3.238v49.644a1.08 1.08 0 001.08 1.079H29.6c.903 4.373 3.073 7.928 6.028 9.6a7.079 7.079 0 003.502.969 6.657 6.657 0 002.96-.707 6.568 6.568 0 005.031.371c1.705-.55 3.286-1.773 4.575-3.492a5.413 5.413 0 005.224 4.05h.557a5.409 5.409 0 005.384-5.036l1.583-23.743A5.415 5.415 0 0063 31.928zM52.882 21.584a4.296 4.296 0 011.15-2.932 1.078 1.078 0 00.199-1.168 3.237 3.237 0 115.936 0 1.079 1.079 0 00.197 1.168 4.316 4.316 0 01-2.086 7.113v-5.26a1.08 1.08 0 00-2.159 0v5.26a4.324 4.324 0 01-3.237-4.18zM12.95 2.158h21.584v1.08a3.241 3.241 0 01-3.238 3.237H16.188a3.241 3.241 0 01-3.237-3.237v-1.08zM29.139 49.34c0 .823.043 1.644.129 2.462H2.158V4.317h8.743a5.405 5.405 0 005.287 4.317h15.11a5.405 5.405 0 005.287-4.317h8.742v36.676a17.51 17.51 0 00-2.158.588v-2.894h-.006a7.671 7.671 0 00-1.255-3.672c-2.049-3.073-5.727-3.718-8.452-3.718a1.08 1.08 0 00-1.065.902 6.364 6.364 0 001.426 4.834c1.472 1.738 3.892 2.7 7.193 2.868v1.68c-2.088-.713-5.858-1.58-8.64.171-2.144 1.35-3.231 3.902-3.231 7.588zM40.81 37.73c-2.478-.176-4.306-.882-5.326-2.067a4.096 4.096 0 01-.954-2.169c2.584.187 4.44 1.073 5.528 2.64.335.488.59 1.027.752 1.596zm5.647 24.411c-1.306.422-2.59.264-3.813-.47a1.079 1.079 0 00-1.11 0c-1.954 1.171-3.712.654-4.844.014-1.477-.837-2.814-2.41-3.766-4.431-1.065-2.26-1.628-4.996-1.628-7.913 0-2.893.746-4.83 2.218-5.758 1.491-.941 3.565-.762 5.042-.447a15.5 15.5 0 013.065 1.007 1.08 1.08 0 00.934 0c1.408-.676 5.414-2.026 7.897-.68l.903 13.56c-1.183 2.63-2.957 4.491-4.898 5.118zM62.29 35.83l-1.583 23.743a3.247 3.247 0 01-3.23 3.021h-.557a3.246 3.246 0 01-3.23-3.021l-.518-7.77h3.46a1.079 1.079 0 100-2.16h-3.604l-.288-4.316h3.556a1.08 1.08 0 100-2.158h-3.7l-.288-4.317h3.988a1.079 1.079 0 100-2.159h-4.131l-.058-.863a3.24 3.24 0 013.23-3.453h3.723a3.237 3.237 0 013.23 3.453z" fill="#E4E4E4"/><path d="M18.346 15.109h21.585a1.08 1.08 0 000-2.158H18.347a1.08 1.08 0 000 2.158zM41.01 26.98a1.08 1.08 0 00-1.08-1.079H18.347a1.08 1.08 0 000 2.159h21.585a1.08 1.08 0 001.08-1.08zm-11.871 3.238H18.346a1.08 1.08 0 000 2.158H29.14a1.08 1.08 0 000-2.158zm0 8.634H18.346a1.08 1.08 0 000 2.158H29.14a1.08 1.08 0 000-2.158zm-2.159 4.317h-8.634a1.08 1.08 0 000 2.158h8.634a1.08 1.08 0 000-2.158zm-8.634-23.743H29.14a1.08 1.08 0 000-2.159H18.346a1.08 1.08 0 000 2.159zm-3.912-8.397l-1.27 1.016a5.4 5.4 0 101.35 1.685l1.27-1.016a1.08 1.08 0 00-1.35-1.685zm-1.483 5.16a3.242 3.242 0 11-1.53-2.75l-2.383 1.907a1.078 1.078 0 00.556 1.915 1.078 1.078 0 00.793-.23l2.383-1.906c.12.341.18.701.18 1.063zm1.483 7.791l-1.27 1.015a5.4 5.4 0 101.35 1.685l1.27-1.015a1.08 1.08 0 10-1.35-1.686zm-1.483 5.159a3.241 3.241 0 11-1.53-2.749l-2.383 1.906a1.08 1.08 0 001.35 1.686l2.383-1.907c.119.342.18.702.18 1.064zm1.483 7.791l-1.27 1.016a5.4 5.4 0 101.35 1.685l1.27-1.016a1.08 1.08 0 00-1.35-1.685zm-1.483 5.16a3.242 3.242 0 11-1.53-2.75l-2.383 1.907a1.08 1.08 0 101.35 1.685l2.383-1.906c.119.342.18.701.18 1.063z" fill="#E4E4E4"/></svg>