<svg width="50" height="70" fill="none" xmlns="http://www.w3.org/2000/svg"><path d="M21.584 20.91a1.349 1.349 0 10-2.698 0v1.349a1.349 1.349 0 102.698 0v-1.35zm8.095 2.698a1.35 1.35 0 001.349-1.35V20.91a1.349 1.349 0 10-2.698 0v1.349c0 .745.604 1.349 1.349 1.349zm-1.383 6.037a1.35 1.35 0 00-1.908-1.908 2.026 2.026 0 01-2.862 0 1.35 1.35 0 00-1.908 1.908c.92.92 2.13 1.38 3.339 1.38 1.21 0 2.418-.46 3.339-1.38z" fill="#E4E4E4"/><path d="M38.582 39.391h-7.555v-3.15a12.907 12.907 0 005.214-5.214h5.579c.745 0 1.349-.604 1.349-1.349V18.212C43.169 8.17 34.999 0 24.957 0S6.745 8.17 6.745 18.212v11.466c0 .745.604 1.35 1.35 1.35h5.578a12.907 12.907 0 005.213 5.213v3.15h-7.554C5.083 39.391 0 44.475 0 50.723v16.998a1.35 1.35 0 001.349 1.349h47.216a1.35 1.35 0 001.349-1.35V50.724c0-6.248-5.084-11.332-11.332-11.332zM12.592 28.33h-3.15V18.212c0-8.555 6.96-15.514 15.514-15.514 8.554 0 15.514 6.96 15.514 15.514v10.117h-3.148c.292-1.067.45-2.224.45-3.372v-7.42c0-.478-.253-.92-.666-1.162L25.642 9.629a1.348 1.348 0 00-1.368 0l-11.467 6.746a1.35 1.35 0 00-.665 1.162c.003 7.83-.006 7.401.006 7.807.03.997.18 2.02.444 2.985zm2.247-3.372V18.31l10.118-5.952 10.117 5.952c-.005 7.242.086 7.465-.274 8.982-1.066 4.487-5.096 7.784-9.843 7.784-5.674 0-10.118-4.646-10.118-10.118zM28.33 37.32v2.912l-3.372 3.855-3.373-3.855V37.32c2.142.585 4.48.619 6.745 0zM2.698 50.723c0-4.76 3.873-8.634 8.634-8.634h8.291l3.598 4.112-2.661 3.105a1.35 1.35 0 00-.325.878v16.188H2.698V50.723zm44.518 15.649H22.933v-15.69L30.3 42.09h8.283c4.76 0 8.634 3.873 8.634 8.634v15.649z" fill="#E4E4E4"/><path d="M14.84 52.882H8.093a1.35 1.35 0 000 2.698h6.745a1.35 1.35 0 000-2.698zm21.99 3.507l1.92-2.302c2.644-3.174.376-8.14-3.921-7.945-3.964.179-5.976 4.888-3.43 7.945l1.92 2.302-3.103 3.723a1.35 1.35 0 002.073 1.727l2.786-3.343 2.785 3.343a1.35 1.35 0 102.073-1.727l-3.102-3.723zm-1.755-2.107l-1.602-1.922c-1.155-1.386-.225-3.61 1.726-3.523 1.725.078 2.608 2.166 1.478 3.522l-1.602 1.923z" fill="#E4E4E4"/></svg>