<svg width="50" height="70" fill="none" xmlns="http://www.w3.org/2000/svg"><path d="M41.325 31.084c.077-.38.116-.766.117-1.154a10.572 10.572 0 00-3.642-7.314c.128.014.246.021.377.038a3.981 3.981 0 001.851-7.7 18.841 18.841 0 00-4.623-1.088c.178-.772.272-1.562.28-2.354 0-3.127-2.279-5.96-5.755-7.263v-.796a3.454 3.454 0 00-6.907 0v.198c-.382.067-.753.15-1.113.25l-.6-1.5a3.067 3.067 0 00-5.797 1.981l.926 3.243a13.784 13.784 0 00-1.485 2.466 15.338 15.338 0 00-2.049-7.388A5.417 5.417 0 008.235 0h-4.52a2.342 2.342 0 00-1.866 3.755c1.257 1.676 2.756 4.182 2.756 6.606v15.517C2.452 28.184 0 32.508 0 40.291c0 10.276 1.241 12.176 2.455 12.678.201.084.417.127.634.127.065-.003.13-.01.193-.021.386.86.827 1.695 1.323 2.497v8.317a5.158 5.158 0 009.209 3.216 5.125 5.125 0 008.422-.513c.641.103 1.289.161 1.938.175 3.405.011 6.794.468 10.08 1.358 1.967.559 3.994.876 6.037.945 2.769 0 9.209-1.346 9.209-13.814 0-5.762-2.867-16.107-8.175-24.172zm-2.186-1.154c.01.286-.011.572-.064.853-.03.052-.056.106-.078.161a1.31 1.31 0 01-.333.58l-.04.034c-.058.052-.12.099-.185.14-.036.024-.07.048-.11.07-.105.06-.214.11-.327.153-.036.014-.08.025-.118.038-.13.043-.263.08-.398.11l-.129.028a6.694 6.694 0 01-.65.09l-.143.01c-.265.021-.55.035-.878.035-.213 0-.418-.01-.614-.03-.015 0-.028-.004-.043-.005a5.635 5.635 0 01-.52-.078l-.039-.01a4.866 4.866 0 01-.46-.119c-.027-.008-.051-.02-.078-.028a4.133 4.133 0 01-.35-.133c-.047-.021-.09-.045-.134-.067a3.242 3.242 0 01-.222-.117 2.522 2.522 0 01-.166-.111c-.041-.03-.084-.059-.122-.09a1.867 1.867 0 01-.157-.144c-.022-.022-.045-.044-.065-.066a1.243 1.243 0 01-.12-.162c-.013-.021-.026-.042-.037-.063a.705.705 0 01-.087-.384.83.83 0 01.063-.28 1.47 1.47 0 01.09-.207l.016-.025c.111-.189.247-.363.403-.517v-.001l.002-.002.001-.001c.182-.186.348-.386.499-.598.026-.036.061-.067.086-.103.053-.076.093-.158.142-.237.004-.007.011-.012.016-.02.027-.044.048-.092.075-.137.125-.212.237-.432.335-.657.004-.01.01-.015.014-.024.021-.05.035-.103.055-.154.08-.204.155-.409.215-.62.004-.01.011-.019.015-.03l.002-.007c.023-.082.035-.167.055-.25.043-.18.087-.357.118-.538v-.002c.015-.084.023-.167.035-.25l.006-.019v-.004c.013-.09.025-.18.035-.27l.002-.018.005-.039c.016-.151.026-.3.035-.45 0-.01.005-.016.006-.025.005-.088.01-.175.013-.263v-.044l.002-.06.002-.105.003-.114v-.011c0-.03-.003-.057-.003-.085l.005-.02c0-.012-.006-.025-.006-.038l-.002-.053a12.376 12.376 0 00-.023-.702c-.007-.103-.01-.213-.019-.31a8.295 8.295 0 014.37 6.595zM33.92 16.117h.002c.204 0 .408-.001.613 0a15.04 15.04 0 014.724 1.006c.46.16.827.511 1.006.963a1.678 1.678 0 01-1.784 2.287 10.011 10.011 0 00-5.597.464l-.005.002-.01.003a1.13 1.13 0 00-.354.29c-.01.013-.027.018-.037.03-.014.018-.015.042-.028.06a1.135 1.135 0 00-.167.356c-.007.027-.02.05-.024.076a1.14 1.14 0 00-.011.407l.2 1.193c.012.105.022.227.032.346a11.305 11.305 0 01.032.595c.005.209.005.422-.004.638l-.006.123a7.695 7.695 0 01-.083.789l-.008.039a5.675 5.675 0 01-.17.719l-.023.067c-.011.035-.024.068-.036.102-.064.183-.141.36-.23.53-.035.067-.069.133-.107.197a2.94 2.94 0 01-.421.559l-.005.006-.018.02a5.36 5.36 0 00-.421.482l-.007.007v.003l-.008.008c-.063.01-.126.018-.19.027a27.7 27.7 0 01-1.858.188c-.087.005-.177.008-.265.014-.696.04-1.417.066-2.175.066-.243 0-.5-.018-.763-.044-.124-.013-.254-.034-.383-.052-.139-.02-.278-.039-.419-.064a13.255 13.255 0 01-.815-.174 15.544 15.544 0 01-.767-.208 10.307 10.307 0 01-2.46-1.063 4.364 4.364 0 00-.452-.408 1.003 1.003 0 01-.002-.121c.004-.025.018-.046.02-.072.06-.465.187-.92.375-1.35l.032-.08a11.731 11.731 0 01.439-.928c.14-.27.292-.548.463-.835l.045-.073a21.631 21.631 0 012.212-3.016l.085-.096c.288-.326.587-.648.9-.962l.002-.001c.303-.301.622-.586.956-.854.06-.047.118-.1.178-.146.263-.202.536-.39.819-.565.114-.071.228-.144.343-.209a9.003 9.003 0 011.151-.55c.226-.09.452-.172.68-.242a8.73 8.73 0 01.433-.12c.246-.064.492-.124.741-.17.107-.02.214-.034.321-.051.293-.046.586-.087.886-.114.045-.005.092-.007.138-.011.737-.062 1.494-.08 2.285-.083zm-18.955 7.01c0-6.824 1.218-11.7 3.619-14.49a1.15 1.15 0 00.234-1.067l-1.091-3.82a.765.765 0 011.445-.494l1.004 2.51a1.151 1.151 0 001.498.64 9.173 9.173 0 012.603-.598 1.151 1.151 0 001.049-1.147V3.454a1.151 1.151 0 112.302 0V5.08c0 .513.339.964.831 1.106 2.945.851 4.925 2.992 4.925 5.326-.01.782-.12 1.56-.328 2.313l-.02.001a21.678 21.678 0 00-2.476.178 14.429 14.429 0 00-1.331.249c-.299.07-.598.15-.898.247-.139.043-.277.096-.415.146a11.266 11.266 0 00-1.184.504c-.246.121-.491.254-.737.399-.072.043-.144.073-.216.117.326-.983.887-1.852 1.849-1.852a1.151 1.151 0 000-2.302c-3.42 0-4.48 3.84-4.594 6.432a23.128 23.128 0 00-1.176 1.322c-.105.127-.212.253-.314.381-.208.26-.412.527-.611.799l-.138.192a15.718 15.718 0 00-2.459 4.688h-.71l-.092-.033c-.15-.055-.309-.109-.464-.163l-.623-.22a71.39 71.39 0 01-1.457-.513l-.025-.01v-1.26zM3.715 2.302h4.52a3.11 3.11 0 012.678 1.555 13.002 13.002 0 011.75 6.504v11.914c-.583.189-1.104.382-1.588.59a6.553 6.553 0 00-4.168 1.098V10.36c0-3.057-1.75-6.03-3.192-8.058zm1.11 47.302l-.006.017c-.262.624-.553.925-1.05 1-.008 0-.014.007-.022.008a2.127 2.127 0 01-.294.022c-.051 0-.102.004-.154.01-.323-.673-.997-2.965-.997-10.37 0-7.404 2.336-11.22 4.219-13.096.013-.012.03-.017.043-.029 1.841-1.817 3.626-2.18 4.317-1.986.016.004.033 0 .05.005.02.007.05.011.066.02a36.577 36.577 0 004.684 1.879c.197.067.362.127.541.19l.513.181a9.888 9.888 0 011.936.875c.03.036.05.078.085.112.142.132.293.255.451.368.057.066.108.136.153.21.01.016.018.035.027.053.05.102.09.21.116.32.007.03.017.053.023.084.03.149.044.3.044.453 0 3.984-6.408 9.22-9.851 12.032-1.086.887-1.944 1.588-2.475 2.12a5.251 5.251 0 00-.402.45c-.011.015-.02.031-.032.046a9.724 9.724 0 00-1.511 3.53 13.438 13.438 0 01-.473 1.496zm7.838 14.285a2.88 2.88 0 01-2.878 2.878 2.88 2.88 0 01-2.878-2.878v-5.251a23.491 23.491 0 005.756 4.607v.644zm5.18 2.878a2.88 2.88 0 01-2.824-2.331c1.513.68 3.081 1.23 4.688 1.64a2.84 2.84 0 01-1.864.691zm13.269-1.685a37.704 37.704 0 00-6.938-.617 13.642 13.642 0 01-2.332-.269c-.01-.002-.018-.01-.029-.012a26.546 26.546 0 01-7.453-2.663 23.555 23.555 0 01-.914-.526c-.13-.077-.258-.151-.387-.232a22.725 22.725 0 01-1.313-.889 21.156 21.156 0 01-.627-.468c-.242-.189-.478-.39-.714-.593a20.073 20.073 0 01-.865-.787c-.19-.183-.378-.366-.563-.558a18.314 18.314 0 01-.596-.655c-.136-.154-.267-.316-.399-.476-.37-.452-.717-.92-1.043-1.404a18.582 18.582 0 01-1.465-2.53c.022-.015.04-.035.062-.05.143-.096.277-.204.402-.322.068-.065.128-.135.19-.205.088-.098.171-.2.249-.307.051-.072.103-.143.15-.218a6.397 6.397 0 00.406-.789c.044-.103.089-.206.128-.311.054-.144.103-.286.15-.43l.027-.083c.105-.331.2-.66.284-.968a9.675 9.675 0 01.874-2.39c.133-.226.293-.434.476-.62.45-.45 1.309-1.151 2.303-1.964l.765-.626c.446 1.709.688 3.464.723 5.23a6.12 6.12 0 002.938 5.634c.158.079.332.12.509.12a1.153 1.153 0 00.536-2.172 3.638 3.638 0 01-1.603-2.635c.733.142 1.478.21 2.224.204a1.151 1.151 0 00.002-2.303 7.477 7.477 0 01-2.354-.338c-.004-.011-.012-.02-.016-.031a27.471 27.471 0 00-1.015-5.337l.086-.075c.215-.185.43-.37.646-.56.11-.097.217-.196.326-.293.19-.17.379-.338.567-.511.117-.107.231-.217.347-.326.178-.167.357-.333.534-.504.12-.117.238-.237.358-.355.167-.166.335-.331.5-.5.12-.123.234-.249.352-.374l.028-.029a4.817 4.817 0 001.128 1.989c.54.773.825 1.696.814 2.64a1.151 1.151 0 002.302 0c0-.045-.003-.157-.01-.296.362.178.758.279 1.161.296a1.16 1.16 0 001.161-1.152 1.142 1.142 0 00-1.141-1.15 8.6 8.6 0 01-2.657-1.963l-.002-.003a4.527 4.527 0 01-.814-2.643l-.003-.012c.099-.134.188-.269.282-.404.116-.166.235-.333.343-.5.093-.144.175-.289.261-.433.1-.167.202-.333.293-.5.08-.147.148-.295.22-.443.081-.166.165-.33.236-.497.064-.15.115-.3.17-.45.062-.165.126-.33.176-.495.046-.15.078-.302.115-.452.04-.165.082-.33.11-.495.025-.152.037-.303.051-.454.013-.124.038-.247.043-.37.09.031.186.056.277.087.135.046.268.087.405.129.251.078.5.153.756.22.104.026.206.049.31.073.273.066.543.129.814.179.12.022.234.036.352.055.238.038.475.078.703.102.33.037.66.057.992.06.59 0 1.159-.017 1.716-.04.168-.007.33-.018.494-.027a32.94 32.94 0 001.195-.088c.093-.009.195-.012.288-.021l.001.006a2.982 2.982 0 00.15.695c.023.068.038.138.066.206.038.09.095.172.14.26.021.04.032.082.054.121.015.025.036.047.05.072.072.113.149.223.233.327a3.712 3.712 0 00.665.666 4.57 4.57 0 00.598.404c.116.066.233.132.356.191.108.052.22.098.334.144.123.05.244.1.373.144.13.044.269.08.406.117.122.032.242.069.369.096.064.014.13.024.196.037a40.343 40.343 0 00-1.927 9.352c0 .268.018.535.053.8-.196.58-1.141 2.653-2.356 2.653a1.151 1.151 0 100 2.303 4.234 4.234 0 003.378-1.984c.262.496.543.971.815 1.425a8.119 8.119 0 011.563 4.012 11.597 11.597 0 01-2.323 6.47 12.194 12.194 0 00-2.251 5.658zm9.178 1.685a23.104 23.104 0 01-5.496-.88c-.455-.11-.926-.222-1.407-.332a9.553 9.553 0 011.934-4.923 16.143 16.143 0 002.454-5.52 11.622 11.622 0 012.5 2.735 4.16 4.16 0 01-.799 2.35 1.15 1.15 0 101.628 1.628c.423-.443.75-.968.963-1.543a2.788 2.788 0 001.677.73 1.151 1.151 0 00.108-2.298c-.095-.033-.688-.286-1.38-1.67a15.794 15.794 0 00-4.522-4.714 11.117 11.117 0 00-1.853-4.574 8.118 8.118 0 01-1.563-4.012 13.6 13.6 0 01.2-2.073 8.474 8.474 0 005.277 4.34c1.36.341 2.391 2.127 2.672 2.785a1.151 1.151 0 102.121-.895c-.147-.35-1.521-3.444-4.235-4.122-3.828-.958-4.896-5.968-4.907-6.019-.007-.036-.03-.063-.04-.098a76.3 76.3 0 01.91-3.146 8.012 8.012 0 001.886-.308l.136-.04c.093-.03.184-.067.276-.103a4.22 4.22 0 001.23-.698c4.643 7.515 7.137 16.7 7.137 21.889 0 10.016-4.327 11.511-6.907 11.511z" fill="#E4E4E4"/></svg>