<svg width="70" height="70" fill="none" xmlns="http://www.w3.org/2000/svg"><path d="M63.844 14.732l-.202-.275a13.496 13.496 0 00-10.887-5.545 13.42 13.42 0 00-7.466 2.26l-2.712 1.809a2.31 2.31 0 01-3.586-1.918v-7.72C38.991 1.044 35.238 0 31.75 0c-3.488 0-7.241 1.046-7.241 3.342v9.846c0 2.456.393 4.885 1.172 7.218a20.577 20.577 0 011.056 6.511v.28a15.34 15.34 0 01-6.411 12.458 2.41 2.41 0 01-1.406.45h-1.86a2.402 2.402 0 01-1.71-.708 8.933 8.933 0 00-6.359-2.634C4.034 36.763 0 40.797 0 45.754v19.974c0 1.905 2.394 3.342 5.57 3.342s5.57-1.437 5.57-3.342v-7.35c0-.7.284-1.385.797-1.898a2.688 2.688 0 012.79-.62l2.464.896a56.287 56.287 0 0019.299 3.402c4.008 0 7.95-.694 11.715-2.065l.556-.203a34.116 34.116 0 0011.449-6.946 27.383 27.383 0 008.86-20.141c0-5.812-1.807-11.37-5.226-16.071zM31.75 2.228c2.863 0 4.547.72 4.953 1.114-.406.393-2.09 1.114-4.953 1.114-2.863 0-4.548-.72-4.953-1.114.405-.393 2.09-1.114 4.953-1.114zM5.57 66.842c-2.157 0-3.342-.837-3.342-1.114 0-.278 1.185-1.114 3.342-1.114 2.156 0 3.342.836 3.342 1.114 0 .277-1.186 1.114-3.342 1.114zm53.134-17.54A31.89 31.89 0 0148 55.797l-.556.203a31.971 31.971 0 01-10.954 1.93 54.074 54.074 0 01-18.539-3.267l-2.464-.897a4.927 4.927 0 00-5.143 1.156 4.927 4.927 0 00-1.432 3.457v4.652c-.92-.404-2.062-.645-3.342-.645-1.28 0-2.422.241-3.342.645V45.754a6.772 6.772 0 016.763-6.763c1.806 0 3.505.704 4.783 1.98a4.615 4.615 0 003.285 1.362h1.86c.976 0 1.91-.3 2.702-.865a17.568 17.568 0 007.344-14.27v-.28c0-2.457-.395-4.886-1.172-7.219a20.577 20.577 0 01-1.056-6.511V5.836c1.384.573 3.232.848 5.013.848 1.781 0 3.628-.275 5.013-.848v5.225a4.54 4.54 0 004.534 4.534c.9 0 1.768-.263 2.516-.762l2.712-1.808a11.207 11.207 0 016.23-1.885c3.583 0 6.98 1.73 9.085 4.627l.201.275a24.94 24.94 0 014.8 14.76c0 7.017-2.965 13.76-8.137 18.5z" fill="#E4E4E4"/><path d="M62.078 34.343a20.767 20.767 0 01-6.385 11.674 27.465 27.465 0 01-9.212 5.591l-.56.204a27.71 27.71 0 01-4.886 1.286l.368 2.198a29.993 29.993 0 005.278-1.39l.56-.203a29.683 29.683 0 009.956-6.043 23.016 23.016 0 007.075-12.933l-2.194-.384zM36.752 53.472l.022 2.228c.771-.008 1.55-.045 2.314-.112l-.194-2.22c-.707.062-1.428.096-2.142.104z" fill="#E4E4E4"/></svg>