<svg width="70" height="70" fill="none" xmlns="http://www.w3.org/2000/svg"><path d="M34.535 22.28a3.345 3.345 0 003.342-3.341c0-1.843-1.5-3.343-3.342-3.343a3.346 3.346 0 00-3.342 3.343c0 1.842 1.5 3.342 3.342 3.342zm0-4.456a1.115 1.115 0 010 2.228 1.115 1.115 0 010-2.227zM7.28 34.67a4.228 4.228 0 00-3.016-1.25A4.27 4.27 0 000 37.688a4.24 4.24 0 001.249 3.015l9.295 9.295a4.234 4.234 0 003.016 1.248 4.27 4.27 0 004.264-4.265 4.24 4.24 0 00-1.248-3.016L7.28 34.671zm-5.052 3.017a2.04 2.04 0 012.037-2.038c.535 0 1.06.217 1.44.597l3.86 3.859-2.88 2.88-3.861-3.858a2.027 2.027 0 01-.596-1.44zm11.332 11.33a2.05 2.05 0 01-1.44-.597l-3.86-3.859 2.88-2.88L15 45.538a2.039 2.039 0 01-1.44 3.478zM64.805 33.42c-1.14 0-2.21.444-3.015 1.25l-9.296 9.295a4.235 4.235 0 00-1.249 3.015 4.27 4.27 0 004.265 4.265c1.14 0 2.21-.443 3.016-1.25l9.295-9.294a4.235 4.235 0 001.249-3.014 4.27 4.27 0 00-4.265-4.266zM56.95 48.422a2.039 2.039 0 01-2.88-2.882l3.86-3.859 2.88 2.881-3.86 3.86zm9.296-9.294l-3.86 3.859-2.881-2.88 3.86-3.86c.38-.38.903-.597 1.44-.597a2.039 2.039 0 011.44 3.478z" fill="#E4E4E4"/><path d="M62.386 27.334a5.058 5.058 0 00-5.052-5.053c-1.35 0-2.62.525-3.573 1.48l-4.122 4.122c-.048-.053-.085-.115-.136-.166h-.001c-1.086-1.086-2.866-1.232-4.148-.447l-1.88-1.71a11.057 11.057 0 002.144-5.506h1.376a3.337 3.337 0 003.137 2.228c1.843 0 3.343-1.5 3.343-3.342 0-1.843-1.5-3.342-3.343-3.342-1.45 0-2.675.934-3.137 2.228h-1.376a11.07 11.07 0 00-2.144-5.507l1.874-1.705a3.321 3.321 0 001.79.526c.893 0 1.732-.347 2.363-.978a3.323 3.323 0 00.979-2.364c0-.892-.349-1.732-.978-2.363-1.261-1.262-3.464-1.263-4.727 0a3.327 3.327 0 00-.98 2.363c0 .363.073.713.183 1.05l-2.005 1.823a11.086 11.086 0 00-6.325-2.815V6.48a3.337 3.337 0 002.229-3.137C37.877 1.5 36.377 0 34.535 0a3.346 3.346 0 00-3.342 3.342c0 1.45.935 2.676 2.228 3.137v1.376a11.093 11.093 0 00-6.325 2.815L25.09 8.848c.112-.336.183-.685.183-1.049 0-.892-.349-1.732-.98-2.362-1.263-1.263-3.466-1.26-4.725 0a3.317 3.317 0 00-.978 2.361c0 .893.348 1.733.978 2.363.63.632 1.47.98 2.364.98.645 0 1.26-.188 1.79-.527l1.874 1.704a11.071 11.071 0 00-2.146 5.507h-1.375a3.338 3.338 0 00-3.138-2.228 3.346 3.346 0 00-3.342 3.342c0 1.842 1.5 3.342 3.342 3.342 1.45 0 2.676-.935 3.137-2.228h1.376a11.06 11.06 0 002.146 5.506l-1.88 1.71c-1.282-.786-3.064-.64-4.148.446-.051.051-.09.112-.137.167l-4.122-4.122a5.022 5.022 0 00-3.573-1.48 5.058 5.058 0 00-5.052 5.054c0 1.35.526 2.62 1.48 3.573l15.23 15.23v17.92a5.02 5.02 0 005.014 5.013 5.02 5.02 0 005.013-5.013V51.245h2.228v12.812a5.02 5.02 0 005.013 5.013 5.02 5.02 0 005.013-5.013v-17.92l15.23-15.23a5.02 5.02 0 001.48-3.573zM35.676 44.56h-2.28a7.73 7.73 0 00-2.259-4.973L24.13 32.58c.055-.048.115-.086.166-.137.63-.63.98-1.47.98-2.363 0-.363-.073-.713-.184-1.048l2.006-1.823a11.086 11.086 0 006.325 2.815V31.4a3.337 3.337 0 00-2.228 3.137c0 1.843 1.5 3.342 3.342 3.342 1.843 0 3.342-1.5 3.342-3.342 0-1.45-.934-2.676-2.228-3.137v-1.376a11.093 11.093 0 006.326-2.815l2.005 1.824a3.316 3.316 0 00-.183 1.05c0 .892.349 1.732.98 2.362.05.051.112.09.167.137l-7.009 7.008a7.71 7.71 0 00-2.26 4.971zm-.027-10.026a1.115 1.115 0 01-2.228 0 1.115 1.115 0 012.228 0zm-1.114-6.684a8.84 8.84 0 01-1.098-.075c.04-.578.51-1.04 1.098-1.04.588 0 1.058.462 1.098 1.04-.36.045-.725.075-1.098.075zm12.603 1.114c.299 0 .577.116.786.325l.002.001c.21.21.326.49.326.788 0 .298-.116.577-.328.788-.42.42-1.15.423-1.574 0a1.103 1.103 0 01-.326-.788 1.112 1.112 0 011.114-1.114zm-4.805-10.026c0-.584.495-1.042 1.04-1.099.044.361.074.725.074 1.099 0 .373-.03.738-.075 1.1-.542-.058-1.039-.518-1.039-1.1zm7.798-1.114a1.115 1.115 0 010 2.227 1.115 1.115 0 010-2.227zM46.351 7.01a1.11 1.11 0 011.575 0c.211.21.326.49.326.787 0 .297-.116.577-.327.788a1.14 1.14 0 01-1.574 0 1.103 1.103 0 01-.327-.788c0-.297.116-.577.326-.787zm-11.816 3.015c.373 0 .738.03 1.098.075-.04.578-.51 1.04-1.098 1.04a1.106 1.106 0 01-1.098-1.04c.36-.045.725-.075 1.098-.075zm0-7.798a1.115 1.115 0 010 2.228 1.115 1.115 0 010-2.228zm-3.278 8.431a3.345 3.345 0 003.278 2.71 3.345 3.345 0 003.279-2.71 8.95 8.95 0 015.002 5.002 3.343 3.343 0 00-2.71 3.278 3.345 3.345 0 002.709 3.278 8.951 8.951 0 01-5.003 5.002 3.343 3.343 0 00-3.277-2.71 3.345 3.345 0 00-3.278 2.709 8.951 8.951 0 01-5.003-5.002 3.343 3.343 0 002.71-3.277 3.345 3.345 0 00-2.708-3.279 8.954 8.954 0 015-5.001zm-5.634 8.28c0-.374.03-.738.074-1.099.579.04 1.04.511 1.04 1.099 0 .587-.461 1.058-1.04 1.098a8.937 8.937 0 01-.074-1.098zm-4.48-10.353c-.21-.21-.325-.49-.325-.788 0-.297.116-.577.328-.788.21-.21.488-.326.786-.326.298 0 .577.116.788.327.21.21.326.49.326.787 0 .298-.116.577-.326.788a1.14 1.14 0 01-1.577 0zM18.94 20.052a1.115 1.115 0 010-2.227 1.115 1.115 0 010 2.227zm2.205 9.238c.21-.21.49-.325.788-.325a1.11 1.11 0 011.114 1.114c0 .298-.116.577-.326.787a1.139 1.139 0 01-1.576 0 1.102 1.102 0 01-.326-.787c0-.299.115-.577.326-.789zM8.912 27.334a2.829 2.829 0 012.824-2.825c.755 0 1.463.294 1.998.828l4.867 4.867c.03.819.35 1.584.916 2.176l-3.365 3.365-6.414-6.414a2.814 2.814 0 01-.826-1.997zm8.817 9.986l3.926-3.926c.05.005.1.014.152.015l7.754 7.754a5.533 5.533 0 011.632 3.938v8.372h-5.57v-7.337c0-.595-.232-1.154-.653-1.575l-7.241-7.241zm10.679 29.522a2.788 2.788 0 01-2.785-2.785v-8.355h5.57v8.355a2.788 2.788 0 01-2.785 2.785zm5.013-17.825V46.79h2.228v2.228h-2.228zm7.241 17.825a2.788 2.788 0 01-2.785-2.785v-8.355h5.57v8.355a2.788 2.788 0 01-2.785 2.785zm3.438-22.28a2.21 2.21 0 00-.653 1.575v7.337h-5.57v-8.372c0-1.489.58-2.888 1.632-3.94l7.754-7.754c.051-.003.101-.011.152-.015l3.926 3.926-7.24 7.242zm15.231-15.23l-6.415 6.413-3.364-3.364a3.31 3.31 0 00.916-2.177l4.867-4.867a2.811 2.811 0 011.998-.828 2.829 2.829 0 012.825 2.825 2.81 2.81 0 01-.827 1.997z" fill="#E4E4E4"/></svg>