<svg width="43" height="26" fill="none" xmlns="http://www.w3.org/2000/svg"><path fill-rule="evenodd" clip-rule="evenodd" d="M6.268 0H1.6C.267 0 0 .628 0 1.32c0 1.236 1.583 7.366 7.368 15.475 3.857 5.537 9.292 8.538 14.237 8.538 2.967 0 3.334-.666 3.334-1.815v-4.185c0-1.333.281-1.6 1.22-1.6.693 0 1.88.347 4.65 3.017 3.164 3.164 3.686 4.583 5.466 4.583h4.668c1.333 0 2-.666 1.616-1.982-.421-1.311-1.932-3.214-3.938-5.469-1.088-1.285-2.72-2.67-3.214-3.362-.692-.89-.494-1.285 0-2.076 0 0 5.687-8.01 6.28-10.729.297-.988 0-1.715-1.411-1.715h-4.668c-1.187 0-1.734.628-2.03 1.32 0 0-2.374 5.784-5.737 9.542-1.088 1.087-1.582 1.434-2.176 1.434-.297 0-.726-.347-.726-1.335V1.716C24.939.529 24.594 0 23.605 0H16.27c-.741 0-1.188.55-1.188 1.073 0 1.124 1.682 1.384 1.855 4.548v6.872c0 1.507-.272 1.78-.866 1.78-1.582 0-5.431-5.81-7.714-12.459C7.91.522 7.461 0 6.268 0z" fill="#78315C"/></svg>